<?xml version="1.0" encoding="UTF-8"?>
<svg id="Capa_1" data-name="Capa 1" xmlns="http://www.w3.org/2000/svg" xmlns:xlink="http://www.w3.org/1999/xlink" viewBox="0 0 596.28 458">
  <defs>
    <style>
      .cls-1 {
        clip-path: url(#clippath-73);
      }

      .cls-2 {
        clip-path: url(#clippath-72);
      }

      .cls-3 {
        clip-path: url(#clippath-62);
      }

      .cls-4, .cls-5, .cls-6, .cls-7, .cls-8, .cls-9, .cls-10 {
        fill: none;
      }

      .cls-4, .cls-6, .cls-7 {
        stroke-linejoin: round;
      }

      .cls-4, .cls-8 {
        stroke: #000;
        stroke-width: .8px;
      }

      .cls-11 {
        clip-path: url(#clippath-45);
      }

      .cls-12 {
        clip-path: url(#clippath-63);
      }

      .cls-13 {
        clip-path: url(#clippath-20);
      }

      .cls-14 {
        clip-path: url(#clippath-11);
      }

      .cls-15 {
        clip-path: url(#clippath-16);
      }

      .cls-16 {
        clip-path: url(#clippath-59);
      }

      .cls-17 {
        letter-spacing: -.05em;
      }

      .cls-17, .cls-18 {
        font-size: 7px;
      }

      .cls-19 {
        clip-path: url(#clippath-33);
      }

      .cls-20 {
        clip-path: url(#clippath-64);
      }

      .cls-21 {
        clip-path: url(#clippath-47);
      }

      .cls-22 {
        letter-spacing: -.16em;
      }

      .cls-23 {
        fill: #2078b5;
      }

      .cls-24, .cls-25, .cls-18, .cls-26, .cls-27, .cls-28, .cls-29, .cls-30 {
        fill: #1d1d1b;
        font-family: ArialMT, Arial;
      }

      .cls-24, .cls-25, .cls-27 {
        font-size: 8px;
      }

      .cls-25 {
        letter-spacing: -.05em;
      }

      .cls-31 {
        letter-spacing: 0em;
      }

      .cls-32 {
        clip-path: url(#clippath-41);
      }

      .cls-33 {
        clip-path: url(#clippath-32);
      }

      .cls-34 {
        clip-path: url(#clippath-2);
      }

      .cls-35 {
        clip-path: url(#clippath-13);
      }

      .cls-36 {
        clip-path: url(#clippath-37);
      }

      .cls-37 {
        clip-path: url(#clippath-46);
      }

      .cls-38 {
        clip-path: url(#clippath-25);
      }

      .cls-39, .cls-27 {
        letter-spacing: -.05em;
      }

      .cls-40 {
        clip-path: url(#clippath-15);
      }

      .cls-41 {
        clip-path: url(#clippath-6);
      }

      .cls-5, .cls-8, .cls-10 {
        stroke-miterlimit: 10;
      }

      .cls-5, .cls-10 {
        stroke: #e30613;
      }

      .cls-6, .cls-7 {
        stroke: #2078b5;
        stroke-width: .75px;
      }

      .cls-6, .cls-8 {
        stroke-linecap: square;
      }

      .cls-42 {
        clip-path: url(#clippath-40);
      }

      .cls-43 {
        clip-path: url(#clippath-26);
      }

      .cls-26, .cls-44 {
        font-size: 7.5px;
      }

      .cls-45 {
        clip-path: url(#clippath-75);
      }

      .cls-46 {
        clip-path: url(#clippath-7);
      }

      .cls-47 {
        clip-path: url(#clippath-21);
      }

      .cls-28 {
        font-size: 10px;
      }

      .cls-48 {
        clip-path: url(#clippath-34);
      }

      .cls-49 {
        clip-path: url(#clippath-57);
      }

      .cls-50 {
        clip-path: url(#clippath-1);
      }

      .cls-51 {
        clip-path: url(#clippath-4);
      }

      .cls-52 {
        clip-path: url(#clippath-38);
      }

      .cls-53 {
        clip-path: url(#clippath-36);
      }

      .cls-54 {
        clip-path: url(#clippath-27);
      }

      .cls-55 {
        clip-path: url(#clippath-60);
      }

      .cls-56 {
        clip-path: url(#clippath-44);
      }

      .cls-57 {
        clip-path: url(#clippath-12);
      }

      .cls-58 {
        clip-path: url(#clippath-24);
      }

      .cls-59 {
        clip-path: url(#clippath-30);
      }

      .cls-60 {
        clip-path: url(#clippath-22);
      }

      .cls-61 {
        letter-spacing: 0em;
      }

      .cls-62 {
        clip-path: url(#clippath-9);
      }

      .cls-63 {
        clip-path: url(#clippath-52);
      }

      .cls-64 {
        clip-path: url(#clippath);
      }

      .cls-65 {
        clip-path: url(#clippath-50);
      }

      .cls-66 {
        clip-path: url(#clippath-48);
      }

      .cls-67 {
        clip-path: url(#clippath-61);
      }

      .cls-68 {
        clip-path: url(#clippath-39);
      }

      .cls-69 {
        clip-path: url(#clippath-19);
      }

      .cls-70 {
        clip-path: url(#clippath-31);
      }

      .cls-71 {
        clip-path: url(#clippath-54);
      }

      .cls-72 {
        clip-path: url(#clippath-3);
      }

      .cls-73 {
        letter-spacing: -.02em;
      }

      .cls-74 {
        clip-path: url(#clippath-43);
      }

      .cls-10 {
        stroke-dasharray: 0 0 2.02 1.01;
      }

      .cls-75 {
        clip-path: url(#clippath-70);
      }

      .cls-76 {
        clip-path: url(#clippath-8);
      }

      .cls-29 {
        font-size: 9px;
        letter-spacing: -.03em;
      }

      .cls-77 {
        clip-path: url(#clippath-55);
      }

      .cls-78 {
        clip-path: url(#clippath-69);
      }

      .cls-79 {
        clip-path: url(#clippath-29);
      }

      .cls-80 {
        clip-path: url(#clippath-18);
      }

      .cls-81 {
        clip-path: url(#clippath-14);
      }

      .cls-82 {
        clip-path: url(#clippath-17);
      }

      .cls-83 {
        clip-path: url(#clippath-5);
      }

      .cls-84 {
        clip-path: url(#clippath-58);
      }

      .cls-85 {
        clip-path: url(#clippath-42);
      }

      .cls-86 {
        clip-path: url(#clippath-65);
      }

      .cls-87 {
        clip-path: url(#clippath-10);
      }

      .cls-88 {
        clip-path: url(#clippath-23);
      }

      .cls-89 {
        clip-path: url(#clippath-74);
      }

      .cls-90 {
        clip-path: url(#clippath-56);
      }

      .cls-91 {
        clip-path: url(#clippath-53);
      }

      .cls-92 {
        clip-path: url(#clippath-49);
      }

      .cls-93 {
        clip-path: url(#clippath-67);
      }

      .cls-94 {
        clip-path: url(#clippath-51);
      }

      .cls-95 {
        clip-path: url(#clippath-28);
      }

      .cls-96 {
        clip-path: url(#clippath-71);
      }

      .cls-97 {
        clip-path: url(#clippath-68);
      }

      .cls-98 {
        clip-path: url(#clippath-35);
      }

      .cls-99 {
        clip-path: url(#clippath-66);
      }
    </style>
    <clipPath id="clippath">
      <rect class="cls-9" x="147.04" y="344.36" width="6.7" height="5.81"/>
    </clipPath>
    <clipPath id="clippath-1">
      <rect class="cls-9" x="155.88" y="344.31" width="6.7" height="5.81"/>
    </clipPath>
    <clipPath id="clippath-2">
      <rect class="cls-9" x="164.73" y="344.44" width="6.7" height="5.81"/>
    </clipPath>
    <clipPath id="clippath-3">
      <rect class="cls-9" x="173.57" y="344.52" width="6.7" height="5.81"/>
    </clipPath>
    <clipPath id="clippath-4">
      <rect class="cls-9" x="182.41" y="344.76" width="6.7" height="5.81"/>
    </clipPath>
    <clipPath id="clippath-5">
      <rect class="cls-9" x="191.25" y="344.72" width="6.7" height="5.81"/>
    </clipPath>
    <clipPath id="clippath-6">
      <rect class="cls-9" x="200.09" y="344.41" width="6.7" height="5.81"/>
    </clipPath>
    <clipPath id="clippath-7">
      <rect class="cls-9" x="208.94" y="344.49" width="6.7" height="5.81"/>
    </clipPath>
    <clipPath id="clippath-8">
      <rect class="cls-9" x="217.78" y="344.63" width="6.7" height="5.81"/>
    </clipPath>
    <clipPath id="clippath-9">
      <rect class="cls-9" x="226.62" y="343.74" width="6.7" height="5.81"/>
    </clipPath>
    <clipPath id="clippath-10">
      <rect class="cls-9" x="235.46" y="344.04" width="6.7" height="5.81"/>
    </clipPath>
    <clipPath id="clippath-11">
      <rect class="cls-9" x="244.31" y="344.47" width="6.7" height="5.81"/>
    </clipPath>
    <clipPath id="clippath-12">
      <rect class="cls-9" x="253.15" y="344.24" width="6.7" height="5.81"/>
    </clipPath>
    <clipPath id="clippath-13">
      <rect class="cls-9" x="261.99" y="343.29" width="6.7" height="5.81"/>
    </clipPath>
    <clipPath id="clippath-14">
      <rect class="cls-9" x="270.83" y="344" width="6.7" height="5.81"/>
    </clipPath>
    <clipPath id="clippath-15">
      <rect class="cls-9" x="44.36" y="172.62" width="136.17" height="41.5"/>
    </clipPath>
    <clipPath id="clippath-16">
      <rect class="cls-9" x="47.2" y="202.47" width="6.7" height="5.81"/>
    </clipPath>
    <clipPath id="clippath-17">
      <rect class="cls-9" x="56.04" y="202.4" width="6.7" height="5.81"/>
    </clipPath>
    <clipPath id="clippath-18">
      <rect class="cls-9" x="64.89" y="202.43" width="6.7" height="5.81"/>
    </clipPath>
    <clipPath id="clippath-19">
      <rect class="cls-9" x="73.73" y="202.18" width="6.7" height="5.81"/>
    </clipPath>
    <clipPath id="clippath-20">
      <rect class="cls-9" x="82.57" y="202.38" width="6.7" height="5.81"/>
    </clipPath>
    <clipPath id="clippath-21">
      <rect class="cls-9" x="91.41" y="203.06" width="6.7" height="5.81"/>
    </clipPath>
    <clipPath id="clippath-22">
      <rect class="cls-9" x="100.26" y="203.03" width="6.7" height="5.81"/>
    </clipPath>
    <clipPath id="clippath-23">
      <rect class="cls-9" x="109.1" y="202.39" width="6.7" height="5.81"/>
    </clipPath>
    <clipPath id="clippath-24">
      <rect class="cls-9" x="117.94" y="202.64" width="6.7" height="5.81"/>
    </clipPath>
    <clipPath id="clippath-25">
      <rect class="cls-9" x="126.78" y="203.07" width="6.7" height="5.81"/>
    </clipPath>
    <clipPath id="clippath-26">
      <rect class="cls-9" x="135.62" y="201.76" width="6.7" height="5.81"/>
    </clipPath>
    <clipPath id="clippath-27">
      <rect class="cls-9" x="144.47" y="200.73" width="6.7" height="5.81"/>
    </clipPath>
    <clipPath id="clippath-28">
      <rect class="cls-9" x="153.31" y="201.29" width="6.7" height="5.81"/>
    </clipPath>
    <clipPath id="clippath-29">
      <rect class="cls-9" x="162.15" y="201.47" width="6.7" height="5.81"/>
    </clipPath>
    <clipPath id="clippath-30">
      <rect class="cls-9" x="170.99" y="202.52" width="6.7" height="5.81"/>
    </clipPath>
    <clipPath id="clippath-31">
      <rect class="cls-9" x="245.92" y="200.36" width="6.7" height="5.81"/>
    </clipPath>
    <clipPath id="clippath-32">
      <rect class="cls-9" x="254.76" y="200.34" width="6.7" height="5.81"/>
    </clipPath>
    <clipPath id="clippath-33">
      <rect class="cls-9" x="263.61" y="200.36" width="6.7" height="5.81"/>
    </clipPath>
    <clipPath id="clippath-34">
      <rect class="cls-9" x="272.45" y="200.12" width="6.7" height="5.81"/>
    </clipPath>
    <clipPath id="clippath-35">
      <rect class="cls-9" x="281.29" y="200.4" width="6.7" height="5.81"/>
    </clipPath>
    <clipPath id="clippath-36">
      <rect class="cls-9" x="290.13" y="200.7" width="6.7" height="5.81"/>
    </clipPath>
    <clipPath id="clippath-37">
      <rect class="cls-9" x="298.98" y="201.24" width="6.7" height="5.81"/>
    </clipPath>
    <clipPath id="clippath-38">
      <rect class="cls-9" x="307.82" y="200.31" width="6.7" height="5.81"/>
    </clipPath>
    <clipPath id="clippath-39">
      <rect class="cls-9" x="316.66" y="201.8" width="6.7" height="5.81"/>
    </clipPath>
    <clipPath id="clippath-40">
      <rect class="cls-9" x="325.5" y="203.04" width="6.7" height="5.81"/>
    </clipPath>
    <clipPath id="clippath-41">
      <rect class="cls-9" x="334.34" y="200.49" width="6.7" height="5.81"/>
    </clipPath>
    <clipPath id="clippath-42">
      <rect class="cls-9" x="343.19" y="195.35" width="6.7" height="5.81"/>
    </clipPath>
    <clipPath id="clippath-43">
      <rect class="cls-9" x="352.03" y="191.99" width="6.7" height="5.81"/>
    </clipPath>
    <clipPath id="clippath-44">
      <rect class="cls-9" x="360.87" y="176.48" width="6.7" height="5.81"/>
    </clipPath>
    <clipPath id="clippath-45">
      <rect class="cls-9" x="369.71" y="169.75" width="6.7" height="5.81"/>
    </clipPath>
    <clipPath id="clippath-46">
      <rect class="cls-9" x="47.23" y="35.92" width="6.7" height="5.81"/>
    </clipPath>
    <clipPath id="clippath-47">
      <rect class="cls-9" x="56.07" y="36.15" width="6.7" height="5.81"/>
    </clipPath>
    <clipPath id="clippath-48">
      <rect class="cls-9" x="64.91" y="35.54" width="6.7" height="5.81"/>
    </clipPath>
    <clipPath id="clippath-49">
      <rect class="cls-9" x="73.76" y="35.19" width="6.7" height="5.81"/>
    </clipPath>
    <clipPath id="clippath-50">
      <rect class="cls-9" x="82.6" y="34" width="6.7" height="5.81"/>
    </clipPath>
    <clipPath id="clippath-51">
      <rect class="cls-9" x="91.44" y="34.23" width="6.7" height="5.81"/>
    </clipPath>
    <clipPath id="clippath-52">
      <rect class="cls-9" x="100.28" y="35.71" width="6.7" height="5.81"/>
    </clipPath>
    <clipPath id="clippath-53">
      <rect class="cls-9" x="109.13" y="35.29" width="6.7" height="5.81"/>
    </clipPath>
    <clipPath id="clippath-54">
      <rect class="cls-9" x="117.97" y="34.61" width="6.7" height="5.81"/>
    </clipPath>
    <clipPath id="clippath-55">
      <rect class="cls-9" x="126.81" y="38.52" width="6.7" height="5.81"/>
    </clipPath>
    <clipPath id="clippath-56">
      <rect class="cls-9" x="135.65" y="37.3" width="6.7" height="5.81"/>
    </clipPath>
    <clipPath id="clippath-57">
      <rect class="cls-9" x="144.49" y="35.4" width="6.7" height="5.81"/>
    </clipPath>
    <clipPath id="clippath-58">
      <rect class="cls-9" x="153.34" y="36.43" width="6.7" height="5.81"/>
    </clipPath>
    <clipPath id="clippath-59">
      <rect class="cls-9" x="162.18" y="40.15" width="6.7" height="5.81"/>
    </clipPath>
    <clipPath id="clippath-60">
      <rect class="cls-9" x="171.02" y="37.39" width="6.7" height="5.81"/>
    </clipPath>
    <clipPath id="clippath-61">
      <rect class="cls-9" x="245.9" y="58.5" width="6.7" height="5.81"/>
    </clipPath>
    <clipPath id="clippath-62">
      <rect class="cls-9" x="254.74" y="58.55" width="6.7" height="5.81"/>
    </clipPath>
    <clipPath id="clippath-63">
      <rect class="cls-9" x="263.58" y="58.47" width="6.7" height="5.81"/>
    </clipPath>
    <clipPath id="clippath-64">
      <rect class="cls-9" x="272.42" y="58.32" width="6.7" height="5.81"/>
    </clipPath>
    <clipPath id="clippath-65">
      <rect class="cls-9" x="281.26" y="58.22" width="6.7" height="5.81"/>
    </clipPath>
    <clipPath id="clippath-66">
      <rect class="cls-9" x="290.11" y="57.47" width="6.7" height="5.81"/>
    </clipPath>
    <clipPath id="clippath-67">
      <rect class="cls-9" x="298.95" y="56.76" width="6.7" height="5.81"/>
    </clipPath>
    <clipPath id="clippath-68">
      <rect class="cls-9" x="307.79" y="57.82" width="6.7" height="5.81"/>
    </clipPath>
    <clipPath id="clippath-69">
      <rect class="cls-9" x="316.63" y="58.74" width="6.7" height="5.81"/>
    </clipPath>
    <clipPath id="clippath-70">
      <rect class="cls-9" x="325.48" y="59.57" width="6.7" height="5.81"/>
    </clipPath>
    <clipPath id="clippath-71">
      <rect class="cls-9" x="334.32" y="59.66" width="6.7" height="5.81"/>
    </clipPath>
    <clipPath id="clippath-72">
      <rect class="cls-9" x="343.16" y="59.05" width="6.7" height="5.81"/>
    </clipPath>
    <clipPath id="clippath-73">
      <rect class="cls-9" x="352" y="60.82" width="6.7" height="5.81"/>
    </clipPath>
    <clipPath id="clippath-74">
      <rect class="cls-9" x="360.84" y="63.43" width="6.7" height="5.81"/>
    </clipPath>
    <clipPath id="clippath-75">
      <rect class="cls-9" x="369.69" y="65.81" width="6.7" height="5.81"/>
    </clipPath>
  </defs>
  <text class="cls-28" transform="translate(9.07 12.76)"><tspan x="0" y="0" xml:space="preserve">A.   Cross-sectional</tspan></text>
  <g>
    <g>
      <line class="cls-5" x1="280.37" y1="338.49" x2="279.37" y2="338.49"/>
      <line class="cls-10" x1="278.36" y1="338.49" x2="145.7" y2="338.49"/>
      <line class="cls-5" x1="145.2" y1="338.49" x2="144.2" y2="338.49"/>
    </g>
    <line class="cls-4" x1="150.39" y1="355.09" x2="150.39" y2="356.36"/>
    <line class="cls-4" x1="159.23" y1="355.09" x2="159.23" y2="356.36"/>
    <line class="cls-4" x1="168.07" y1="355.09" x2="168.07" y2="356.36"/>
    <line class="cls-4" x1="176.92" y1="355.09" x2="176.92" y2="356.36"/>
    <line class="cls-4" x1="185.76" y1="355.09" x2="185.76" y2="356.36"/>
    <line class="cls-4" x1="194.6" y1="355.09" x2="194.6" y2="356.36"/>
    <line class="cls-4" x1="203.44" y1="355.09" x2="203.44" y2="356.36"/>
    <line class="cls-4" x1="212.28" y1="355.09" x2="212.28" y2="356.36"/>
    <line class="cls-4" x1="221.13" y1="355.09" x2="221.13" y2="356.36"/>
    <line class="cls-4" x1="229.97" y1="355.09" x2="229.97" y2="356.36"/>
    <line class="cls-4" x1="238.81" y1="355.09" x2="238.81" y2="356.36"/>
    <line class="cls-4" x1="247.65" y1="355.09" x2="247.65" y2="356.36"/>
    <line class="cls-4" x1="256.5" y1="355.09" x2="256.5" y2="356.36"/>
    <line class="cls-4" x1="265.34" y1="355.09" x2="265.34" y2="356.36"/>
    <line class="cls-4" x1="274.18" y1="355.09" x2="274.18" y2="356.36"/>
    <line class="cls-4" x1="144.2" y1="355.09" x2="142.73" y2="355.09"/>
    <line class="cls-4" x1="144.2" y1="346.79" x2="142.73" y2="346.79"/>
    <line class="cls-4" x1="144.2" y1="338.49" x2="142.73" y2="338.49"/>
    <line class="cls-4" x1="144.2" y1="330.19" x2="142.73" y2="330.19"/>
    <line class="cls-4" x1="144.2" y1="321.89" x2="142.73" y2="321.89"/>
    <line class="cls-4" x1="144.2" y1="313.59" x2="142.73" y2="313.59"/>
    <polyline class="cls-6" points="150.39 347.27 159.23 347.22 168.07 347.35 176.92 347.43 185.76 347.67 194.6 347.62 203.44 347.31 212.28 347.39 221.13 347.54 229.97 346.64 238.81 346.95 247.65 347.37 256.5 347.14 265.34 346.19 274.18 346.9"/>
    <g class="cls-64">
      <path class="cls-23" d="m150.39,348.36c.33,0,.65-.11.89-.32.24-.2.37-.48.37-.77s-.13-.57-.37-.77c-.24-.2-.55-.32-.89-.32s-.65.11-.89.32c-.24.2-.37.48-.37.77s.13.57.37.77c.24.2.55.32.89.32Z"/>
      <path class="cls-7" d="m150.39,348.36c.33,0,.65-.11.89-.32.24-.2.37-.48.37-.77s-.13-.57-.37-.77c-.24-.2-.55-.32-.89-.32s-.65.11-.89.32c-.24.2-.37.48-.37.77s.13.57.37.77c.24.2.55.32.89.32Z"/>
    </g>
    <g class="cls-50">
      <path class="cls-23" d="m159.23,348.31c.33,0,.65-.11.89-.32.24-.2.37-.48.37-.77s-.13-.57-.37-.77c-.24-.2-.55-.32-.89-.32s-.65.11-.89.32c-.24.2-.37.48-.37.77s.13.57.37.77c.24.2.55.32.89.32Z"/>
      <path class="cls-7" d="m159.23,348.31c.33,0,.65-.11.89-.32.24-.2.37-.48.37-.77s-.13-.57-.37-.77c-.24-.2-.55-.32-.89-.32s-.65.11-.89.32c-.24.2-.37.48-.37.77s.13.57.37.77c.24.2.55.32.89.32Z"/>
    </g>
    <g class="cls-34">
      <path class="cls-23" d="m168.07,348.44c.33,0,.65-.11.89-.32.24-.2.37-.48.37-.77s-.13-.57-.37-.77c-.24-.2-.55-.32-.89-.32s-.65.11-.89.32c-.24.2-.37.48-.37.77s.13.57.37.77c.24.2.55.32.89.32Z"/>
      <path class="cls-7" d="m168.07,348.44c.33,0,.65-.11.89-.32.24-.2.37-.48.37-.77s-.13-.57-.37-.77c-.24-.2-.55-.32-.89-.32s-.65.11-.89.32c-.24.2-.37.48-.37.77s.13.57.37.77c.24.2.55.32.89.32Z"/>
    </g>
    <g class="cls-72">
      <path class="cls-23" d="m176.92,348.52c.33,0,.65-.11.89-.32.24-.2.37-.48.37-.77s-.13-.57-.37-.77c-.24-.2-.55-.32-.89-.32s-.65.11-.89.32c-.24.2-.37.48-.37.77s.13.57.37.77c.24.2.55.32.89.32Z"/>
      <path class="cls-7" d="m176.92,348.52c.33,0,.65-.11.89-.32.24-.2.37-.48.37-.77s-.13-.57-.37-.77c-.24-.2-.55-.32-.89-.32s-.65.11-.89.32c-.24.2-.37.48-.37.77s.13.57.37.77c.24.2.55.32.89.32Z"/>
    </g>
    <g class="cls-51">
      <path class="cls-23" d="m185.76,348.76c.33,0,.65-.11.89-.32s.37-.48.37-.77-.13-.57-.37-.77-.55-.32-.89-.32-.65.11-.89.32-.37.48-.37.77.13.57.37.77.55.32.89.32Z"/>
      <path class="cls-7" d="m185.76,348.76c.33,0,.65-.11.89-.32s.37-.48.37-.77-.13-.57-.37-.77-.55-.32-.89-.32-.65.11-.89.32-.37.48-.37.77.13.57.37.77.55.32.89.32Z"/>
    </g>
    <g class="cls-83">
      <path class="cls-23" d="m194.6,348.71c.33,0,.65-.11.89-.32s.37-.48.37-.77-.13-.57-.37-.77-.55-.32-.89-.32-.65.11-.89.32-.37.48-.37.77.13.57.37.77.55.32.89.32Z"/>
      <path class="cls-7" d="m194.6,348.71c.33,0,.65-.11.89-.32s.37-.48.37-.77-.13-.57-.37-.77-.55-.32-.89-.32-.65.11-.89.32-.37.48-.37.77.13.57.37.77.55.32.89.32Z"/>
    </g>
    <g class="cls-41">
      <path class="cls-23" d="m203.44,348.4c.33,0,.65-.11.89-.32s.37-.48.37-.77-.13-.57-.37-.77-.55-.32-.89-.32-.65.11-.89.32-.37.48-.37.77.13.57.37.77.55.32.89.32Z"/>
      <path class="cls-7" d="m203.44,348.4c.33,0,.65-.11.89-.32s.37-.48.37-.77-.13-.57-.37-.77-.55-.32-.89-.32-.65.11-.89.32-.37.48-.37.77.13.57.37.77.55.32.89.32Z"/>
    </g>
    <g class="cls-46">
      <path class="cls-23" d="m212.28,348.48c.33,0,.65-.11.89-.32s.37-.48.37-.77-.13-.57-.37-.77-.55-.32-.89-.32-.65.11-.89.32-.37.48-.37.77.13.57.37.77.55.32.89.32Z"/>
      <path class="cls-7" d="m212.28,348.48c.33,0,.65-.11.89-.32s.37-.48.37-.77-.13-.57-.37-.77-.55-.32-.89-.32-.65.11-.89.32-.37.48-.37.77.13.57.37.77.55.32.89.32Z"/>
    </g>
    <g class="cls-76">
      <path class="cls-23" d="m221.13,348.63c.33,0,.65-.11.89-.32s.37-.48.37-.77-.13-.57-.37-.77-.55-.32-.89-.32-.65.11-.89.32-.37.48-.37.77.13.57.37.77.55.32.89.32Z"/>
      <path class="cls-7" d="m221.13,348.63c.33,0,.65-.11.89-.32s.37-.48.37-.77-.13-.57-.37-.77-.55-.32-.89-.32-.65.11-.89.32-.37.48-.37.77.13.57.37.77.55.32.89.32Z"/>
    </g>
    <g class="cls-62">
      <path class="cls-23" d="m229.97,347.73c.33,0,.65-.11.89-.32s.37-.48.37-.77-.13-.57-.37-.77-.55-.32-.89-.32-.65.11-.89.32-.37.48-.37.77.13.57.37.77.55.32.89.32Z"/>
      <path class="cls-7" d="m229.97,347.73c.33,0,.65-.11.89-.32s.37-.48.37-.77-.13-.57-.37-.77-.55-.32-.89-.32-.65.11-.89.32-.37.48-.37.77.13.57.37.77.55.32.89.32Z"/>
    </g>
    <g class="cls-87">
      <path class="cls-23" d="m238.81,348.04c.33,0,.65-.11.89-.32.24-.2.37-.48.37-.77s-.13-.57-.37-.77c-.24-.2-.55-.32-.89-.32s-.65.11-.89.32c-.24.2-.37.48-.37.77s.13.57.37.77c.24.2.55.32.89.32Z"/>
      <path class="cls-7" d="m238.81,348.04c.33,0,.65-.11.89-.32.24-.2.37-.48.37-.77s-.13-.57-.37-.77c-.24-.2-.55-.32-.89-.32s-.65.11-.89.32c-.24.2-.37.48-.37.77s.13.57.37.77c.24.2.55.32.89.32Z"/>
    </g>
    <g class="cls-14">
      <path class="cls-23" d="m247.65,348.46c.33,0,.65-.11.89-.32.24-.2.37-.48.37-.77s-.13-.57-.37-.77c-.24-.2-.55-.32-.89-.32s-.65.11-.89.32c-.24.2-.37.48-.37.77s.13.57.37.77c.24.2.55.32.89.32Z"/>
      <path class="cls-7" d="m247.65,348.46c.33,0,.65-.11.89-.32.24-.2.37-.48.37-.77s-.13-.57-.37-.77c-.24-.2-.55-.32-.89-.32s-.65.11-.89.32c-.24.2-.37.48-.37.77s.13.57.37.77c.24.2.55.32.89.32Z"/>
    </g>
    <g class="cls-57">
      <path class="cls-23" d="m256.5,348.23c.33,0,.65-.11.89-.32.24-.2.37-.48.37-.77s-.13-.57-.37-.77c-.24-.2-.55-.32-.89-.32s-.65.11-.89.32c-.24.2-.37.48-.37.77s.13.57.37.77c.24.2.55.32.89.32Z"/>
      <path class="cls-7" d="m256.5,348.23c.33,0,.65-.11.89-.32.24-.2.37-.48.37-.77s-.13-.57-.37-.77c-.24-.2-.55-.32-.89-.32s-.65.11-.89.32c-.24.2-.37.48-.37.77s.13.57.37.77c.24.2.55.32.89.32Z"/>
    </g>
    <g class="cls-35">
      <path class="cls-23" d="m265.34,347.28c.33,0,.65-.11.89-.32.24-.2.37-.48.37-.77s-.13-.57-.37-.77c-.24-.2-.55-.32-.89-.32s-.65.11-.89.32c-.24.2-.37.48-.37.77s.13.57.37.77c.24.2.55.32.89.32Z"/>
      <path class="cls-7" d="m265.34,347.28c.33,0,.65-.11.89-.32.24-.2.37-.48.37-.77s-.13-.57-.37-.77c-.24-.2-.55-.32-.89-.32s-.65.11-.89.32c-.24.2-.37.48-.37.77s.13.57.37.77c.24.2.55.32.89.32Z"/>
    </g>
    <g class="cls-81">
      <path class="cls-23" d="m274.18,347.99c.33,0,.65-.11.89-.32.24-.2.37-.48.37-.77s-.13-.57-.37-.77c-.24-.2-.55-.32-.89-.32s-.65.11-.89.32c-.24.2-.37.48-.37.77s.13.57.37.77c.24.2.55.32.89.32Z"/>
      <path class="cls-7" d="m274.18,347.99c.33,0,.65-.11.89-.32.24-.2.37-.48.37-.77s-.13-.57-.37-.77c-.24-.2-.55-.32-.89-.32s-.65.11-.89.32c-.24.2-.37.48-.37.77s.13.57.37.77c.24.2.55.32.89.32Z"/>
    </g>
    <rect class="cls-9" x="144.2" y="313.59" width="136.17" height="41.5"/>
    <rect class="cls-9" x="144.2" y="313.59" width="136.17" height="41.5"/>
    <line class="cls-8" x1="144.2" y1="355.09" x2="144.2" y2="313.59"/>
    <line class="cls-8" x1="280.37" y1="355.09" x2="280.37" y2="313.59"/>
    <line class="cls-8" x1="144.2" y1="355.09" x2="280.37" y2="355.09"/>
    <line class="cls-8" x1="144.2" y1="313.59" x2="280.37" y2="313.59"/>
    <text class="cls-26" transform="translate(151.65 388.3) rotate(-90)"><tspan x="0" y="0">Baseline</tspan></text>
    <text class="cls-26" transform="translate(160.52 417.47) rotate(-90)"><tspan x="0" y="0">Local Democracy</tspan></text>
    <text class="cls-30" transform="translate(169.39 423.88) rotate(-90)"><tspan class="cls-44" x="0" y="0"> </tspan><tspan class="cls-17" x="2.08" y="0">Languages </tspan><tspan class="cls-44" x="35.17" y="0">Distance</tspan></text>
    <text class="cls-26" transform="translate(178.26 420.39) rotate(-90)"><tspan x="0" y="0">Structural Equality</tspan></text>
    <text class="cls-26" transform="translate(187.13 434.17) rotate(-90)"><tspan x="0" y="0">Institutional languages</tspan></text>
    <text class="cls-26" transform="translate(196 426.64) rotate(-90)"><tspan x="0" y="0">Free political parties</tspan></text>
    <text class="cls-26" transform="translate(214.2 424.57) rotate(-90)"><tspan x="0" y="0">Bachelor Education</tspan></text>
    <text class="cls-26" transform="translate(204.57 413.31) rotate(-90)"><tspan x="0" y="0">Gender Equality</tspan></text>
    <text class="cls-26" transform="translate(223.07 419.98) rotate(-90)"><tspan x="0" y="0">Credible Elections</tspan></text>
    <text class="cls-26" transform="translate(231.94 422.9) rotate(-90)"><tspan x="0" y="0">Doctoral Education</tspan></text>
    <text class="cls-26" transform="translate(240.82 392.46) rotate(-90)"><tspan x="0" y="0">Air quality</tspan></text>
    <text class="cls-26" transform="translate(249.69 410.67) rotate(-90)"><tspan x="0" y="0">GD</tspan><tspan class="cls-73" x="11.25" y="0">P</tspan><tspan class="cls-61" x="16.12" y="0" xml:space="preserve"> per capita</tspan></text>
    <text class="cls-26" transform="translate(258.56 417.49) rotate(-90)"><tspan x="0" y="0">Stable languages</tspan></text>
    <text class="cls-26" transform="translate(267.43 390.38) rotate(-90)"><tspan x="0" y="0">Migration</tspan></text>
    <text class="cls-26" transform="translate(276.3 417.76) rotate(-90)"><tspan x="0" y="0">Inclusive su</tspan><tspan class="cls-73" x="39.18" y="0">f</tspan><tspan class="cls-31" x="41.13" y="0">frage</tspan></text>
    <g>
      <text class="cls-18" transform="translate(130.96 340.64)"><tspan x="0" y="0">1.0</tspan></text>
      <text class="cls-26" transform="translate(127.92 337.96) rotate(-90)"><tspan x="0" y="0">OR</tspan></text>
      <text class="cls-18" transform="translate(130.96 315.59)"><tspan x="0" y="0">2.5</tspan></text>
      <text class="cls-18" transform="translate(136.8 357.78)"><tspan x="0" y="0">0</tspan></text>
      <text class="cls-18" transform="translate(130.96 332.33)"><tspan x="0" y="0">1.5</tspan></text>
      <text class="cls-18" transform="translate(130.96 323.76)"><tspan x="0" y="0">2.0</tspan></text>
      <text class="cls-18" transform="translate(130.96 349.6)"><tspan x="0" y="0">0.5</tspan></text>
    </g>
    <text class="cls-24" transform="translate(185.86 310.55)"><tspan class="cls-22" x="0" y="0">T</tspan><tspan class="cls-39" x="3.6" y="0">otal (≥1 language)</tspan></text>
  </g>
  <g>
    <g>
      <line class="cls-5" x1="180.53" y1="197.57" x2="179.53" y2="197.57"/>
      <line class="cls-10" x1="178.52" y1="197.57" x2="45.87" y2="197.57"/>
      <line class="cls-5" x1="45.36" y1="197.57" x2="44.36" y2="197.57"/>
    </g>
    <g>
      <line class="cls-5" x1="379.25" y1="197.8" x2="378.25" y2="197.8"/>
      <line class="cls-10" x1="377.24" y1="197.8" x2="244.58" y2="197.8"/>
      <line class="cls-5" x1="244.08" y1="197.8" x2="243.08" y2="197.8"/>
    </g>
    <line class="cls-4" x1="50.55" y1="214.12" x2="50.55" y2="215.39"/>
    <line class="cls-4" x1="59.39" y1="214.12" x2="59.39" y2="215.39"/>
    <line class="cls-4" x1="68.24" y1="214.12" x2="68.24" y2="215.39"/>
    <line class="cls-4" x1="77.08" y1="214.12" x2="77.08" y2="215.39"/>
    <line class="cls-4" x1="85.92" y1="214.12" x2="85.92" y2="215.39"/>
    <line class="cls-4" x1="94.76" y1="214.12" x2="94.76" y2="215.39"/>
    <line class="cls-4" x1="103.6" y1="214.12" x2="103.6" y2="215.39"/>
    <line class="cls-4" x1="112.45" y1="214.12" x2="112.45" y2="215.39"/>
    <line class="cls-4" x1="121.29" y1="214.12" x2="121.29" y2="215.39"/>
    <line class="cls-4" x1="130.13" y1="214.12" x2="130.13" y2="215.39"/>
    <line class="cls-4" x1="138.97" y1="214.12" x2="138.97" y2="215.39"/>
    <line class="cls-4" x1="147.82" y1="214.12" x2="147.82" y2="215.39"/>
    <line class="cls-4" x1="156.66" y1="214.12" x2="156.66" y2="215.39"/>
    <line class="cls-4" x1="165.5" y1="214.12" x2="165.5" y2="215.39"/>
    <line class="cls-4" x1="174.34" y1="214.12" x2="174.34" y2="215.39"/>
    <line class="cls-4" x1="44.36" y1="214.12" x2="42.9" y2="214.12"/>
    <line class="cls-4" x1="44.36" y1="205.82" x2="42.9" y2="205.82"/>
    <line class="cls-4" x1="44.36" y1="197.52" x2="42.9" y2="197.52"/>
    <line class="cls-4" x1="44.36" y1="189.22" x2="42.9" y2="189.22"/>
    <line class="cls-4" x1="44.36" y1="180.92" x2="42.9" y2="180.92"/>
    <line class="cls-4" x1="44.36" y1="172.62" x2="42.9" y2="172.62"/>
    <g class="cls-40">
      <polyline class="cls-6" points="50.55 205.38 59.39 205.31 68.24 205.33 77.08 205.09 85.92 205.29 94.76 205.97 103.6 205.94 112.45 205.29 121.29 205.55 130.13 205.98 138.97 204.67 147.82 203.64 156.66 204.19 165.5 204.38 174.34 205.43"/>
      <g class="cls-15">
        <path class="cls-23" d="m50.55,206.47c.33,0,.65-.11.89-.32.24-.2.37-.48.37-.77s-.13-.57-.37-.77c-.24-.2-.55-.32-.89-.32s-.65.11-.89.32c-.24.2-.37.48-.37.77s.13.57.37.77c.24.2.55.32.89.32Z"/>
        <path class="cls-7" d="m50.55,206.47c.33,0,.65-.11.89-.32.24-.2.37-.48.37-.77s-.13-.57-.37-.77c-.24-.2-.55-.32-.89-.32s-.65.11-.89.32c-.24.2-.37.48-.37.77s.13.57.37.77c.24.2.55.32.89.32Z"/>
      </g>
      <g class="cls-82">
        <path class="cls-23" d="m59.39,206.4c.33,0,.65-.11.89-.32.24-.2.37-.48.37-.77s-.13-.57-.37-.77c-.24-.2-.55-.32-.89-.32s-.65.11-.89.32c-.24.2-.37.48-.37.77s.13.57.37.77c.24.2.55.32.89.32Z"/>
        <path class="cls-7" d="m59.39,206.4c.33,0,.65-.11.89-.32.24-.2.37-.48.37-.77s-.13-.57-.37-.77c-.24-.2-.55-.32-.89-.32s-.65.11-.89.32c-.24.2-.37.48-.37.77s.13.57.37.77c.24.2.55.32.89.32Z"/>
      </g>
      <g class="cls-80">
        <path class="cls-23" d="m68.24,206.42c.33,0,.65-.11.89-.32.24-.2.37-.48.37-.77s-.13-.57-.37-.77c-.24-.2-.55-.32-.89-.32s-.65.11-.89.32c-.24.2-.37.48-.37.77s.13.57.37.77c.24.2.55.32.89.32Z"/>
        <path class="cls-7" d="m68.24,206.42c.33,0,.65-.11.89-.32.24-.2.37-.48.37-.77s-.13-.57-.37-.77c-.24-.2-.55-.32-.89-.32s-.65.11-.89.32c-.24.2-.37.48-.37.77s.13.57.37.77c.24.2.55.32.89.32Z"/>
      </g>
      <g class="cls-69">
        <path class="cls-23" d="m77.08,206.18c.33,0,.65-.11.89-.32.24-.2.37-.48.37-.77s-.13-.57-.37-.77c-.24-.2-.55-.32-.89-.32s-.65.11-.89.32c-.24.2-.37.48-.37.77s.13.57.37.77c.24.2.55.32.89.32Z"/>
        <path class="cls-7" d="m77.08,206.18c.33,0,.65-.11.89-.32.24-.2.37-.48.37-.77s-.13-.57-.37-.77c-.24-.2-.55-.32-.89-.32s-.65.11-.89.32c-.24.2-.37.48-.37.77s.13.57.37.77c.24.2.55.32.89.32Z"/>
      </g>
      <g class="cls-13">
        <path class="cls-23" d="m85.92,206.38c.33,0,.65-.11.89-.32.24-.2.37-.48.37-.77s-.13-.57-.37-.77c-.24-.2-.55-.32-.89-.32s-.65.11-.89.32c-.24.2-.37.48-.37.77s.13.57.37.77c.24.2.55.32.89.32Z"/>
        <path class="cls-7" d="m85.92,206.38c.33,0,.65-.11.89-.32.24-.2.37-.48.37-.77s-.13-.57-.37-.77c-.24-.2-.55-.32-.89-.32s-.65.11-.89.32c-.24.2-.37.48-.37.77s.13.57.37.77c.24.2.55.32.89.32Z"/>
      </g>
      <g class="cls-47">
        <path class="cls-23" d="m94.76,207.06c.33,0,.65-.11.89-.32.24-.2.37-.48.37-.77s-.13-.57-.37-.77c-.24-.2-.55-.32-.89-.32s-.65.11-.89.32c-.24.2-.37.48-.37.77s.13.57.37.77c.24.2.55.32.89.32Z"/>
        <path class="cls-7" d="m94.76,207.06c.33,0,.65-.11.89-.32.24-.2.37-.48.37-.77s-.13-.57-.37-.77c-.24-.2-.55-.32-.89-.32s-.65.11-.89.32c-.24.2-.37.48-.37.77s.13.57.37.77c.24.2.55.32.89.32Z"/>
      </g>
      <g class="cls-60">
        <path class="cls-23" d="m103.6,207.03c.33,0,.65-.11.89-.32.24-.2.37-.48.37-.77s-.13-.57-.37-.77c-.24-.2-.55-.32-.89-.32s-.65.11-.89.32c-.24.2-.37.48-.37.77s.13.57.37.77c.24.2.55.32.89.32Z"/>
        <path class="cls-7" d="m103.6,207.03c.33,0,.65-.11.89-.32.24-.2.37-.48.37-.77s-.13-.57-.37-.77c-.24-.2-.55-.32-.89-.32s-.65.11-.89.32c-.24.2-.37.48-.37.77s.13.57.37.77c.24.2.55.32.89.32Z"/>
      </g>
      <g class="cls-88">
        <path class="cls-23" d="m112.45,206.38c.33,0,.65-.11.89-.32.24-.2.37-.48.37-.77s-.13-.57-.37-.77c-.24-.2-.55-.32-.89-.32s-.65.11-.89.32c-.24.2-.37.48-.37.77s.13.57.37.77c.24.2.55.32.89.32Z"/>
        <path class="cls-7" d="m112.45,206.38c.33,0,.65-.11.89-.32.24-.2.37-.48.37-.77s-.13-.57-.37-.77c-.24-.2-.55-.32-.89-.32s-.65.11-.89.32c-.24.2-.37.48-.37.77s.13.57.37.77c.24.2.55.32.89.32Z"/>
      </g>
      <g class="cls-58">
        <path class="cls-23" d="m121.29,206.64c.33,0,.65-.11.89-.32.24-.2.37-.48.37-.77s-.13-.57-.37-.77c-.24-.2-.55-.32-.89-.32s-.65.11-.89.32c-.24.2-.37.48-.37.77s.13.57.37.77c.24.2.55.32.89.32Z"/>
        <path class="cls-7" d="m121.29,206.64c.33,0,.65-.11.89-.32.24-.2.37-.48.37-.77s-.13-.57-.37-.77c-.24-.2-.55-.32-.89-.32s-.65.11-.89.32c-.24.2-.37.48-.37.77s.13.57.37.77c.24.2.55.32.89.32Z"/>
      </g>
      <g class="cls-38">
        <path class="cls-23" d="m130.13,207.07c.33,0,.65-.11.89-.32.24-.2.37-.48.37-.77s-.13-.57-.37-.77c-.24-.2-.55-.32-.89-.32s-.65.11-.89.32c-.24.2-.37.48-.37.77s.13.57.37.77c.24.2.55.32.89.32Z"/>
        <path class="cls-7" d="m130.13,207.07c.33,0,.65-.11.89-.32.24-.2.37-.48.37-.77s-.13-.57-.37-.77c-.24-.2-.55-.32-.89-.32s-.65.11-.89.32c-.24.2-.37.48-.37.77s.13.57.37.77c.24.2.55.32.89.32Z"/>
      </g>
      <g class="cls-43">
        <path class="cls-23" d="m138.97,205.76c.33,0,.65-.11.89-.32.24-.2.37-.48.37-.77s-.13-.57-.37-.77c-.24-.2-.55-.32-.89-.32s-.65.11-.89.32c-.24.2-.37.48-.37.77s.13.57.37.77c.24.2.55.32.89.32Z"/>
        <path class="cls-7" d="m138.97,205.76c.33,0,.65-.11.89-.32.24-.2.37-.48.37-.77s-.13-.57-.37-.77c-.24-.2-.55-.32-.89-.32s-.65.11-.89.32c-.24.2-.37.48-.37.77s.13.57.37.77c.24.2.55.32.89.32Z"/>
      </g>
      <g class="cls-54">
        <path class="cls-23" d="m147.82,204.73c.33,0,.65-.11.89-.32.24-.2.37-.48.37-.77s-.13-.57-.37-.77c-.24-.2-.55-.32-.89-.32s-.65.11-.89.32c-.24.2-.37.48-.37.77s.13.57.37.77c.24.2.55.32.89.32Z"/>
        <path class="cls-7" d="m147.82,204.73c.33,0,.65-.11.89-.32.24-.2.37-.48.37-.77s-.13-.57-.37-.77c-.24-.2-.55-.32-.89-.32s-.65.11-.89.32c-.24.2-.37.48-.37.77s.13.57.37.77c.24.2.55.32.89.32Z"/>
      </g>
      <g class="cls-95">
        <path class="cls-23" d="m156.66,205.28c.33,0,.65-.11.89-.32.24-.2.37-.48.37-.77s-.13-.57-.37-.77c-.24-.2-.55-.32-.89-.32s-.65.11-.89.32c-.24.2-.37.48-.37.77s.13.57.37.77c.24.2.55.32.89.32Z"/>
        <path class="cls-7" d="m156.66,205.28c.33,0,.65-.11.89-.32.24-.2.37-.48.37-.77s-.13-.57-.37-.77c-.24-.2-.55-.32-.89-.32s-.65.11-.89.32c-.24.2-.37.48-.37.77s.13.57.37.77c.24.2.55.32.89.32Z"/>
      </g>
      <g class="cls-79">
        <path class="cls-23" d="m165.5,205.47c.33,0,.65-.11.89-.32.24-.2.37-.48.37-.77s-.13-.57-.37-.77c-.24-.2-.55-.32-.89-.32s-.65.11-.89.32c-.24.2-.37.48-.37.77s.13.57.37.77c.24.2.55.32.89.32Z"/>
        <path class="cls-7" d="m165.5,205.47c.33,0,.65-.11.89-.32.24-.2.37-.48.37-.77s-.13-.57-.37-.77c-.24-.2-.55-.32-.89-.32s-.65.11-.89.32c-.24.2-.37.48-.37.77s.13.57.37.77c.24.2.55.32.89.32Z"/>
      </g>
      <g class="cls-59">
        <path class="cls-23" d="m174.34,206.52c.33,0,.65-.11.89-.32.24-.2.37-.48.37-.77s-.13-.57-.37-.77c-.24-.2-.55-.32-.89-.32s-.65.11-.89.32c-.24.2-.37.48-.37.77s.13.57.37.77c.24.2.55.32.89.32Z"/>
        <path class="cls-7" d="m174.34,206.52c.33,0,.65-.11.89-.32.24-.2.37-.48.37-.77s-.13-.57-.37-.77c-.24-.2-.55-.32-.89-.32s-.65.11-.89.32c-.24.2-.37.48-.37.77s.13.57.37.77c.24.2.55.32.89.32Z"/>
      </g>
    </g>
    <line class="cls-8" x1="44.36" y1="214.12" x2="44.36" y2="172.62"/>
    <line class="cls-8" x1="180.53" y1="214.12" x2="180.53" y2="172.62"/>
    <line class="cls-8" x1="44.36" y1="214.12" x2="180.53" y2="214.12"/>
    <line class="cls-8" x1="44.36" y1="172.62" x2="180.53" y2="172.62"/>
    <line class="cls-4" x1="249.27" y1="214.4" x2="249.27" y2="215.67"/>
    <line class="cls-4" x1="258.11" y1="214.4" x2="258.11" y2="215.67"/>
    <line class="cls-4" x1="266.95" y1="214.4" x2="266.95" y2="215.67"/>
    <line class="cls-4" x1="275.8" y1="214.4" x2="275.8" y2="215.67"/>
    <line class="cls-4" x1="284.64" y1="214.4" x2="284.64" y2="215.67"/>
    <line class="cls-4" x1="293.48" y1="214.4" x2="293.48" y2="215.67"/>
    <line class="cls-4" x1="302.32" y1="214.4" x2="302.32" y2="215.67"/>
    <line class="cls-4" x1="311.17" y1="214.4" x2="311.17" y2="215.67"/>
    <line class="cls-4" x1="320.01" y1="214.4" x2="320.01" y2="215.67"/>
    <line class="cls-4" x1="328.85" y1="214.4" x2="328.85" y2="215.67"/>
    <line class="cls-4" x1="337.69" y1="214.4" x2="337.69" y2="215.67"/>
    <line class="cls-4" x1="346.53" y1="214.4" x2="346.53" y2="215.67"/>
    <line class="cls-4" x1="355.38" y1="214.4" x2="355.38" y2="215.67"/>
    <line class="cls-4" x1="364.22" y1="214.4" x2="364.22" y2="215.67"/>
    <line class="cls-4" x1="373.06" y1="214.4" x2="373.06" y2="215.67"/>
    <line class="cls-4" x1="243.08" y1="214.4" x2="241.62" y2="214.4"/>
    <line class="cls-4" x1="243.08" y1="206.1" x2="241.62" y2="206.1"/>
    <line class="cls-4" x1="243.08" y1="197.8" x2="241.62" y2="197.8"/>
    <line class="cls-4" x1="243.08" y1="189.5" x2="241.62" y2="189.5"/>
    <line class="cls-4" x1="243.08" y1="181.2" x2="241.62" y2="181.2"/>
    <line class="cls-4" x1="243.08" y1="172.9" x2="241.62" y2="172.9"/>
    <polyline class="cls-6" points="249.27 203.26 258.11 203.24 266.95 203.27 275.8 203.03 284.64 203.3 293.48 203.6 302.32 204.15 311.17 203.21 320.01 204.71 328.85 205.95 337.69 203.39 346.53 198.26 355.38 194.89 364.22 179.39 373.06 172.66"/>
    <g class="cls-70">
      <path class="cls-23" d="m249.27,204.35c.33,0,.65-.11.89-.32.24-.2.37-.48.37-.77s-.13-.57-.37-.77c-.24-.2-.55-.32-.89-.32s-.65.11-.89.32c-.24.2-.37.48-.37.77s.13.57.37.77c.24.2.55.32.89.32Z"/>
      <path class="cls-7" d="m249.27,204.35c.33,0,.65-.11.89-.32.24-.2.37-.48.37-.77s-.13-.57-.37-.77c-.24-.2-.55-.32-.89-.32s-.65.11-.89.32c-.24.2-.37.48-.37.77s.13.57.37.77c.24.2.55.32.89.32Z"/>
    </g>
    <g class="cls-33">
      <path class="cls-23" d="m258.11,204.33c.33,0,.65-.11.89-.32.24-.2.37-.48.37-.77s-.13-.57-.37-.77c-.24-.2-.55-.32-.89-.32s-.65.11-.89.32c-.24.2-.37.48-.37.77s.13.57.37.77c.24.2.55.32.89.32Z"/>
      <path class="cls-7" d="m258.11,204.33c.33,0,.65-.11.89-.32.24-.2.37-.48.37-.77s-.13-.57-.37-.77c-.24-.2-.55-.32-.89-.32s-.65.11-.89.32c-.24.2-.37.48-.37.77s.13.57.37.77c.24.2.55.32.89.32Z"/>
    </g>
    <g class="cls-19">
      <path class="cls-23" d="m266.95,204.36c.33,0,.65-.11.89-.32.24-.2.37-.48.37-.77s-.13-.57-.37-.77c-.24-.2-.55-.32-.89-.32s-.65.11-.89.32c-.24.2-.37.48-.37.77s.13.57.37.77c.24.2.55.32.89.32Z"/>
      <path class="cls-7" d="m266.95,204.36c.33,0,.65-.11.89-.32.24-.2.37-.48.37-.77s-.13-.57-.37-.77c-.24-.2-.55-.32-.89-.32s-.65.11-.89.32c-.24.2-.37.48-.37.77s.13.57.37.77c.24.2.55.32.89.32Z"/>
    </g>
    <g class="cls-48">
      <path class="cls-23" d="m275.8,204.12c.33,0,.65-.11.89-.32.24-.2.37-.48.37-.77s-.13-.57-.37-.77c-.24-.2-.55-.32-.89-.32s-.65.11-.89.32c-.24.2-.37.48-.37.77s.13.57.37.77c.24.2.55.32.89.32Z"/>
      <path class="cls-7" d="m275.8,204.12c.33,0,.65-.11.89-.32.24-.2.37-.48.37-.77s-.13-.57-.37-.77c-.24-.2-.55-.32-.89-.32s-.65.11-.89.32c-.24.2-.37.48-.37.77s.13.57.37.77c.24.2.55.32.89.32Z"/>
    </g>
    <g class="cls-98">
      <path class="cls-23" d="m284.64,204.39c.33,0,.65-.11.89-.32.24-.2.37-.48.37-.77s-.13-.57-.37-.77c-.24-.2-.55-.32-.89-.32s-.65.11-.89.32c-.24.2-.37.48-.37.77s.13.57.37.77c.24.2.55.32.89.32Z"/>
      <path class="cls-7" d="m284.64,204.39c.33,0,.65-.11.89-.32.24-.2.37-.48.37-.77s-.13-.57-.37-.77c-.24-.2-.55-.32-.89-.32s-.65.11-.89.32c-.24.2-.37.48-.37.77s.13.57.37.77c.24.2.55.32.89.32Z"/>
    </g>
    <g class="cls-53">
      <path class="cls-23" d="m293.48,204.69c.33,0,.65-.11.89-.32.24-.2.37-.48.37-.77s-.13-.57-.37-.77c-.24-.2-.55-.32-.89-.32s-.65.11-.89.32c-.24.2-.37.48-.37.77s.13.57.37.77c.24.2.55.32.89.32Z"/>
      <path class="cls-7" d="m293.48,204.69c.33,0,.65-.11.89-.32.24-.2.37-.48.37-.77s-.13-.57-.37-.77c-.24-.2-.55-.32-.89-.32s-.65.11-.89.32c-.24.2-.37.48-.37.77s.13.57.37.77c.24.2.55.32.89.32Z"/>
    </g>
    <g class="cls-36">
      <path class="cls-23" d="m302.32,205.24c.33,0,.65-.11.89-.32.24-.2.37-.48.37-.77s-.13-.57-.37-.77c-.24-.2-.55-.32-.89-.32s-.65.11-.89.32c-.24.2-.37.48-.37.77s.13.57.37.77c.24.2.55.32.89.32Z"/>
      <path class="cls-7" d="m302.32,205.24c.33,0,.65-.11.89-.32.24-.2.37-.48.37-.77s-.13-.57-.37-.77c-.24-.2-.55-.32-.89-.32s-.65.11-.89.32c-.24.2-.37.48-.37.77s.13.57.37.77c.24.2.55.32.89.32Z"/>
    </g>
    <g class="cls-52">
      <path class="cls-23" d="m311.17,204.3c.33,0,.65-.11.89-.32.24-.2.37-.48.37-.77s-.13-.57-.37-.77c-.24-.2-.55-.32-.89-.32s-.65.11-.89.32c-.24.2-.37.48-.37.77s.13.57.37.77c.24.2.55.32.89.32Z"/>
      <path class="cls-7" d="m311.17,204.3c.33,0,.65-.11.89-.32.24-.2.37-.48.37-.77s-.13-.57-.37-.77c-.24-.2-.55-.32-.89-.32s-.65.11-.89.32c-.24.2-.37.48-.37.77s.13.57.37.77c.24.2.55.32.89.32Z"/>
    </g>
    <g class="cls-68">
      <path class="cls-23" d="m320.01,205.8c.33,0,.65-.11.89-.32.24-.2.37-.48.37-.77s-.13-.57-.37-.77c-.24-.2-.55-.32-.89-.32s-.65.11-.89.32c-.24.2-.37.48-.37.77s.13.57.37.77c.24.2.55.32.89.32Z"/>
      <path class="cls-7" d="m320.01,205.8c.33,0,.65-.11.89-.32.24-.2.37-.48.37-.77s-.13-.57-.37-.77c-.24-.2-.55-.32-.89-.32s-.65.11-.89.32c-.24.2-.37.48-.37.77s.13.57.37.77c.24.2.55.32.89.32Z"/>
    </g>
    <g class="cls-42">
      <path class="cls-23" d="m328.85,207.04c.33,0,.65-.11.89-.32.24-.2.37-.48.37-.77s-.13-.57-.37-.77c-.24-.2-.55-.32-.89-.32s-.65.11-.89.32c-.24.2-.37.48-.37.77s.13.57.37.77c.24.2.55.32.89.32Z"/>
      <path class="cls-7" d="m328.85,207.04c.33,0,.65-.11.89-.32.24-.2.37-.48.37-.77s-.13-.57-.37-.77c-.24-.2-.55-.32-.89-.32s-.65.11-.89.32c-.24.2-.37.48-.37.77s.13.57.37.77c.24.2.55.32.89.32Z"/>
    </g>
    <g class="cls-32">
      <path class="cls-23" d="m337.69,204.48c.33,0,.65-.11.89-.32.24-.2.37-.48.37-.77s-.13-.57-.37-.77c-.24-.2-.55-.32-.89-.32s-.65.11-.89.32c-.24.2-.37.48-.37.77s.13.57.37.77c.24.2.55.32.89.32Z"/>
      <path class="cls-7" d="m337.69,204.48c.33,0,.65-.11.89-.32.24-.2.37-.48.37-.77s-.13-.57-.37-.77c-.24-.2-.55-.32-.89-.32s-.65.11-.89.32c-.24.2-.37.48-.37.77s.13.57.37.77c.24.2.55.32.89.32Z"/>
    </g>
    <g class="cls-85">
      <path class="cls-23" d="m346.53,199.35c.33,0,.65-.11.89-.32.24-.2.37-.48.37-.77s-.13-.57-.37-.77c-.24-.2-.55-.32-.89-.32s-.65.11-.89.32c-.24.2-.37.48-.37.77s.13.57.37.77c.24.2.55.32.89.32Z"/>
      <path class="cls-7" d="m346.53,199.35c.33,0,.65-.11.89-.32.24-.2.37-.48.37-.77s-.13-.57-.37-.77c-.24-.2-.55-.32-.89-.32s-.65.11-.89.32c-.24.2-.37.48-.37.77s.13.57.37.77c.24.2.55.32.89.32Z"/>
    </g>
    <g class="cls-74">
      <path class="cls-23" d="m355.38,195.98c.33,0,.65-.11.89-.32.24-.2.37-.48.37-.77s-.13-.57-.37-.77c-.24-.2-.55-.32-.89-.32s-.65.11-.89.32c-.24.2-.37.48-.37.77s.13.57.37.77c.24.2.55.32.89.32Z"/>
      <path class="cls-7" d="m355.38,195.98c.33,0,.65-.11.89-.32.24-.2.37-.48.37-.77s-.13-.57-.37-.77c-.24-.2-.55-.32-.89-.32s-.65.11-.89.32c-.24.2-.37.48-.37.77s.13.57.37.77c.24.2.55.32.89.32Z"/>
    </g>
    <g class="cls-56">
      <path class="cls-23" d="m364.22,180.48c.33,0,.65-.11.89-.32.24-.2.37-.48.37-.77s-.13-.57-.37-.77c-.24-.2-.55-.32-.89-.32s-.65.11-.89.32c-.24.2-.37.48-.37.77s.13.57.37.77c.24.2.55.32.89.32Z"/>
      <path class="cls-7" d="m364.22,180.48c.33,0,.65-.11.89-.32.24-.2.37-.48.37-.77s-.13-.57-.37-.77c-.24-.2-.55-.32-.89-.32s-.65.11-.89.32c-.24.2-.37.48-.37.77s.13.57.37.77c.24.2.55.32.89.32Z"/>
    </g>
    <g class="cls-11">
      <path class="cls-23" d="m373.06,173.75c.33,0,.65-.11.89-.32.24-.2.37-.48.37-.77s-.13-.57-.37-.77c-.24-.2-.55-.32-.89-.32s-.65.11-.89.32c-.24.2-.37.48-.37.77s.13.57.37.77c.24.2.55.32.89.32Z"/>
      <path class="cls-7" d="m373.06,173.75c.33,0,.65-.11.89-.32.24-.2.37-.48.37-.77s-.13-.57-.37-.77c-.24-.2-.55-.32-.89-.32s-.65.11-.89.32c-.24.2-.37.48-.37.77s.13.57.37.77c.24.2.55.32.89.32Z"/>
    </g>
    <rect class="cls-9" x="243.08" y="172.9" width="136.17" height="41.5"/>
    <rect class="cls-9" x="243.08" y="172.9" width="136.17" height="41.5"/>
    <line class="cls-8" x1="243.08" y1="214.4" x2="243.08" y2="172.9"/>
    <line class="cls-8" x1="379.25" y1="214.4" x2="379.25" y2="172.9"/>
    <line class="cls-8" x1="243.08" y1="214.4" x2="379.25" y2="214.4"/>
    <line class="cls-8" x1="243.08" y1="172.9" x2="379.25" y2="172.9"/>
    <text class="cls-26" transform="translate(70.21 292.35) rotate(-90)"><tspan x="0" y="0">Institutional languages</tspan></text>
    <text class="cls-26" transform="translate(52.47 246.48) rotate(-90)"><tspan x="0" y="0">Baseline</tspan></text>
    <text class="cls-26" transform="translate(61.34 275.65) rotate(-90)"><tspan x="0" y="0">Local Democracy</tspan></text>
    <text class="cls-30" transform="translate(87.96 282.06) rotate(-90)"><tspan class="cls-44" x="0" y="0"> </tspan><tspan class="cls-17" x="2.08" y="0">Languages </tspan><tspan class="cls-44" x="35.17" y="0">Distance</tspan></text>
    <text class="cls-26" transform="translate(79.08 278.57) rotate(-90)"><tspan x="0" y="0">Structural Equality</tspan></text>
    <text class="cls-26" transform="translate(96.83 275.68) rotate(-90)"><tspan x="0" y="0">Stable languages</tspan></text>
    <text class="cls-26" transform="translate(141.19 284.82) rotate(-90)"><tspan x="0" y="0">Free political parties</tspan></text>
    <text class="cls-26" transform="translate(176.67 282.75) rotate(-90)"><tspan x="0" y="0">Bachelor Education</tspan></text>
    <text class="cls-26" transform="translate(167.8 271.49) rotate(-90)"><tspan x="0" y="0">Gender Equality</tspan></text>
    <text class="cls-26" transform="translate(132.31 278.16) rotate(-90)"><tspan x="0" y="0">Credible Elections</tspan></text>
    <text class="cls-26" transform="translate(158.93 281.08) rotate(-90)"><tspan x="0" y="0">Doctoral Education</tspan></text>
    <text class="cls-26" transform="translate(105.7 250.64) rotate(-90)"><tspan x="0" y="0">Air quality</tspan></text>
    <text class="cls-26" transform="translate(114.57 268.85) rotate(-90)"><tspan x="0" y="0">GD</tspan><tspan class="cls-73" x="11.25" y="0">P</tspan><tspan class="cls-61" x="16.12" y="0" xml:space="preserve"> per capita</tspan></text>
    <text class="cls-26" transform="translate(123.44 248.56) rotate(-90)"><tspan x="0" y="0">Migration</tspan></text>
    <text class="cls-26" transform="translate(150.06 275.94) rotate(-90)"><tspan x="0" y="0">Inclusive su</tspan><tspan class="cls-73" x="39.18" y="0">f</tspan><tspan class="cls-31" x="41.13" y="0">frage</tspan></text>
    <text class="cls-26" transform="translate(286.54 292.35) rotate(-90)"><tspan x="0" y="0">Institutional languages</tspan></text>
    <text class="cls-26" transform="translate(251.05 246.48) rotate(-90)"><tspan x="0" y="0">Baseline</tspan></text>
    <text class="cls-26" transform="translate(259.92 275.65) rotate(-90)"><tspan x="0" y="0">Local Democracy</tspan></text>
    <text class="cls-30" transform="translate(295.41 282.06) rotate(-90)"><tspan class="cls-44" x="0" y="0"> </tspan><tspan class="cls-17" x="2.08" y="0">Languages </tspan><tspan class="cls-44" x="35.17" y="0">Distance</tspan></text>
    <text class="cls-26" transform="translate(339.77 278.57) rotate(-90)"><tspan x="0" y="0">Structural Equality</tspan></text>
    <text class="cls-26" transform="translate(322.02 275.68) rotate(-90)"><tspan x="0" y="0">Stable languages</tspan></text>
    <text class="cls-26" transform="translate(330.89 284.82) rotate(-90)"><tspan x="0" y="0">Free political parties</tspan></text>
    <text class="cls-26" transform="translate(357.51 282.75) rotate(-90)"><tspan x="0" y="0">Bachelor Education</tspan></text>
    <text class="cls-26" transform="translate(313.15 271.49) rotate(-90)"><tspan x="0" y="0">Gender Equality</tspan></text>
    <text class="cls-26" transform="translate(304.28 278.16) rotate(-90)"><tspan x="0" y="0">Credible Elections</tspan></text>
    <text class="cls-26" transform="translate(348.64 281.08) rotate(-90)"><tspan x="0" y="0">Doctoral Education</tspan></text>
    <text class="cls-26" transform="translate(277.66 250.64) rotate(-90)"><tspan x="0" y="0">Air quality</tspan></text>
    <text class="cls-26" transform="translate(375.25 268.85) rotate(-90)"><tspan x="0" y="0">GD</tspan><tspan class="cls-73" x="11.25" y="0">P</tspan><tspan class="cls-61" x="16.12" y="0" xml:space="preserve"> per capita</tspan></text>
    <text class="cls-26" transform="translate(366.38 248.56) rotate(-90)"><tspan x="0" y="0">Migration</tspan></text>
    <text class="cls-26" transform="translate(268.79 275.94) rotate(-90)"><tspan x="0" y="0">Inclusive su</tspan><tspan class="cls-73" x="39.18" y="0">f</tspan><tspan class="cls-31" x="41.13" y="0">frage</tspan></text>
    <g>
      <text class="cls-18" transform="translate(32.08 199.31)"><tspan x="0" y="0">1.0</tspan></text>
      <text class="cls-26" transform="translate(29.04 196.63) rotate(-90)"><tspan x="0" y="0">OR</tspan></text>
      <text class="cls-18" transform="translate(32.08 174.26)"><tspan x="0" y="0">2.5</tspan></text>
      <text class="cls-18" transform="translate(37.92 216.45)"><tspan x="0" y="0">0</tspan></text>
      <text class="cls-18" transform="translate(32.08 191)"><tspan x="0" y="0">1.5</tspan></text>
      <text class="cls-18" transform="translate(32.08 182.43)"><tspan x="0" y="0">2.0</tspan></text>
      <text class="cls-18" transform="translate(32.08 208.27)"><tspan x="0" y="0">0.5</tspan></text>
    </g>
    <g>
      <text class="cls-18" transform="translate(230.1 199.31)"><tspan x="0" y="0">1.0</tspan></text>
      <text class="cls-26" transform="translate(227.06 196.63) rotate(-90)"><tspan x="0" y="0">OR</tspan></text>
      <text class="cls-18" transform="translate(230.1 174.26)"><tspan x="0" y="0">2.5</tspan></text>
      <text class="cls-18" transform="translate(235.93 216.45)"><tspan x="0" y="0">0</tspan></text>
      <text class="cls-18" transform="translate(230.1 191)"><tspan x="0" y="0">1.5</tspan></text>
      <text class="cls-18" transform="translate(230.1 182.43)"><tspan x="0" y="0">2.0</tspan></text>
      <text class="cls-18" transform="translate(230.1 208.27)"><tspan x="0" y="0">0.5</tspan></text>
    </g>
    <text class="cls-27" transform="translate(279.21 169.75)"><tspan x="0" y="0">3 additional languages</tspan></text>
    <text class="cls-27" transform="translate(73.72 169.75)"><tspan x="0" y="0">2 additional languages</tspan></text>
  </g>
  <g>
    <g>
      <line class="cls-5" x1="180.56" y1="57.46" x2="179.56" y2="57.46"/>
      <line class="cls-10" x1="178.55" y1="57.46" x2="45.89" y2="57.46"/>
      <line class="cls-5" x1="45.39" y1="57.46" x2="44.39" y2="57.46"/>
    </g>
    <g>
      <line class="cls-5" x1="379.22" y1="57.39" x2="378.22" y2="57.39"/>
      <line class="cls-10" x1="377.22" y1="57.39" x2="244.56" y2="57.39"/>
      <line class="cls-5" x1="244.05" y1="57.39" x2="243.05" y2="57.39"/>
    </g>
    <line class="cls-4" x1="50.58" y1="74.06" x2="50.58" y2="75.33"/>
    <line class="cls-4" x1="59.42" y1="74.06" x2="59.42" y2="75.33"/>
    <line class="cls-4" x1="68.26" y1="74.06" x2="68.26" y2="75.33"/>
    <line class="cls-4" x1="77.1" y1="74.06" x2="77.1" y2="75.33"/>
    <line class="cls-4" x1="85.95" y1="74.06" x2="85.95" y2="75.33"/>
    <line class="cls-4" x1="94.79" y1="74.06" x2="94.79" y2="75.33"/>
    <line class="cls-4" x1="103.63" y1="74.06" x2="103.63" y2="75.33"/>
    <line class="cls-4" x1="112.47" y1="74.06" x2="112.47" y2="75.33"/>
    <line class="cls-4" x1="121.32" y1="74.06" x2="121.32" y2="75.33"/>
    <line class="cls-4" x1="130.16" y1="74.06" x2="130.16" y2="75.33"/>
    <line class="cls-4" x1="139" y1="74.06" x2="139" y2="75.33"/>
    <line class="cls-4" x1="147.84" y1="74.06" x2="147.84" y2="75.33"/>
    <line class="cls-4" x1="156.68" y1="74.06" x2="156.68" y2="75.33"/>
    <line class="cls-4" x1="165.53" y1="74.06" x2="165.53" y2="75.33"/>
    <line class="cls-4" x1="174.37" y1="74.06" x2="174.37" y2="75.33"/>
    <line class="cls-4" x1="44.39" y1="74.06" x2="42.92" y2="74.06"/>
    <line class="cls-4" x1="44.39" y1="65.76" x2="42.92" y2="65.76"/>
    <line class="cls-4" x1="44.39" y1="57.46" x2="42.92" y2="57.46"/>
    <line class="cls-4" x1="44.39" y1="49.16" x2="42.92" y2="49.16"/>
    <line class="cls-4" x1="44.39" y1="40.86" x2="42.92" y2="40.86"/>
    <line class="cls-4" x1="44.39" y1="32.56" x2="42.92" y2="32.56"/>
    <polyline class="cls-6" points="50.58 38.82 59.42 39.05 68.26 38.45 77.1 38.1 85.95 36.91 94.79 37.13 103.63 38.62 112.47 38.2 121.32 37.52 130.16 41.43 139 40.21 147.84 38.31 156.68 39.34 165.53 43.05 174.37 40.3"/>
    <g class="cls-37">
      <path class="cls-23" d="m50.58,39.91c.33,0,.65-.11.89-.32.24-.2.37-.48.37-.77s-.13-.57-.37-.77c-.24-.2-.55-.32-.89-.32s-.65.11-.89.32c-.24.2-.37.48-.37.77s.13.57.37.77c.24.2.55.32.89.32Z"/>
      <path class="cls-7" d="m50.58,39.91c.33,0,.65-.11.89-.32.24-.2.37-.48.37-.77s-.13-.57-.37-.77c-.24-.2-.55-.32-.89-.32s-.65.11-.89.32c-.24.2-.37.48-.37.77s.13.57.37.77c.24.2.55.32.89.32Z"/>
    </g>
    <g class="cls-21">
      <path class="cls-23" d="m59.42,40.14c.33,0,.65-.11.89-.32.24-.2.37-.48.37-.77s-.13-.57-.37-.77c-.24-.2-.55-.32-.89-.32s-.65.11-.89.32c-.24.2-.37.48-.37.77s.13.57.37.77c.24.2.55.32.89.32Z"/>
      <path class="cls-7" d="m59.42,40.14c.33,0,.65-.11.89-.32.24-.2.37-.48.37-.77s-.13-.57-.37-.77c-.24-.2-.55-.32-.89-.32s-.65.11-.89.32c-.24.2-.37.48-.37.77s.13.57.37.77c.24.2.55.32.89.32Z"/>
    </g>
    <g class="cls-66">
      <path class="cls-23" d="m68.26,39.54c.33,0,.65-.11.89-.32.24-.2.37-.48.37-.77s-.13-.57-.37-.77c-.24-.2-.55-.32-.89-.32s-.65.11-.89.32c-.24.2-.37.48-.37.77s.13.57.37.77c.24.2.55.32.89.32Z"/>
      <path class="cls-7" d="m68.26,39.54c.33,0,.65-.11.89-.32.24-.2.37-.48.37-.77s-.13-.57-.37-.77c-.24-.2-.55-.32-.89-.32s-.65.11-.89.32c-.24.2-.37.48-.37.77s.13.57.37.77c.24.2.55.32.89.32Z"/>
    </g>
    <g class="cls-92">
      <path class="cls-23" d="m77.1,39.19c.33,0,.65-.11.89-.32.24-.2.37-.48.37-.77s-.13-.57-.37-.77c-.24-.2-.55-.32-.89-.32s-.65.11-.89.32c-.24.2-.37.48-.37.77s.13.57.37.77c.24.2.55.32.89.32Z"/>
      <path class="cls-7" d="m77.1,39.19c.33,0,.65-.11.89-.32.24-.2.37-.48.37-.77s-.13-.57-.37-.77c-.24-.2-.55-.32-.89-.32s-.65.11-.89.32c-.24.2-.37.48-.37.77s.13.57.37.77c.24.2.55.32.89.32Z"/>
    </g>
    <g class="cls-65">
      <path class="cls-23" d="m85.95,38c.33,0,.65-.11.89-.32s.37-.48.37-.77-.13-.57-.37-.77-.55-.32-.89-.32-.65.11-.89.32-.37.48-.37.77.13.57.37.77.55.32.89.32Z"/>
      <path class="cls-7" d="m85.95,38c.33,0,.65-.11.89-.32s.37-.48.37-.77-.13-.57-.37-.77-.55-.32-.89-.32-.65.11-.89.32-.37.48-.37.77.13.57.37.77.55.32.89.32Z"/>
    </g>
    <g class="cls-94">
      <path class="cls-23" d="m94.79,38.22c.33,0,.65-.11.89-.32s.37-.48.37-.77-.13-.57-.37-.77-.55-.32-.89-.32-.65.11-.89.32-.37.48-.37.77.13.57.37.77.55.32.89.32Z"/>
      <path class="cls-7" d="m94.79,38.22c.33,0,.65-.11.89-.32s.37-.48.37-.77-.13-.57-.37-.77-.55-.32-.89-.32-.65.11-.89.32-.37.48-.37.77.13.57.37.77.55.32.89.32Z"/>
    </g>
    <g class="cls-63">
      <path class="cls-23" d="m103.63,39.71c.33,0,.65-.11.89-.32s.37-.48.37-.77-.13-.57-.37-.77-.55-.32-.89-.32-.65.11-.89.32-.37.48-.37.77.13.57.37.77.55.32.89.32Z"/>
      <path class="cls-7" d="m103.63,39.71c.33,0,.65-.11.89-.32s.37-.48.37-.77-.13-.57-.37-.77-.55-.32-.89-.32-.65.11-.89.32-.37.48-.37.77.13.57.37.77.55.32.89.32Z"/>
    </g>
    <g class="cls-91">
      <path class="cls-23" d="m112.47,39.29c.33,0,.65-.11.89-.32s.37-.48.37-.77-.13-.57-.37-.77-.55-.32-.89-.32-.65.11-.89.32-.37.48-.37.77.13.57.37.77.55.32.89.32Z"/>
      <path class="cls-7" d="m112.47,39.29c.33,0,.65-.11.89-.32s.37-.48.37-.77-.13-.57-.37-.77-.55-.32-.89-.32-.65.11-.89.32-.37.48-.37.77.13.57.37.77.55.32.89.32Z"/>
    </g>
    <g class="cls-71">
      <path class="cls-23" d="m121.32,38.61c.33,0,.65-.11.89-.32s.37-.48.37-.77-.13-.57-.37-.77-.55-.32-.89-.32-.65.11-.89.32-.37.48-.37.77.13.57.37.77.55.32.89.32Z"/>
      <path class="cls-7" d="m121.32,38.61c.33,0,.65-.11.89-.32s.37-.48.37-.77-.13-.57-.37-.77-.55-.32-.89-.32-.65.11-.89.32-.37.48-.37.77.13.57.37.77.55.32.89.32Z"/>
    </g>
    <g class="cls-77">
      <path class="cls-23" d="m130.16,42.52c.33,0,.65-.11.89-.32s.37-.48.37-.77-.13-.57-.37-.77-.55-.32-.89-.32-.65.11-.89.32-.37.48-.37.77.13.57.37.77.55.32.89.32Z"/>
      <path class="cls-7" d="m130.16,42.52c.33,0,.65-.11.89-.32s.37-.48.37-.77-.13-.57-.37-.77-.55-.32-.89-.32-.65.11-.89.32-.37.48-.37.77.13.57.37.77.55.32.89.32Z"/>
    </g>
    <g class="cls-90">
      <path class="cls-23" d="m139,41.3c.33,0,.65-.11.89-.32.24-.2.37-.48.37-.77s-.13-.57-.37-.77c-.24-.2-.55-.32-.89-.32s-.65.11-.89.32c-.24.2-.37.48-.37.77s.13.57.37.77c.24.2.55.32.89.32Z"/>
      <path class="cls-7" d="m139,41.3c.33,0,.65-.11.89-.32.24-.2.37-.48.37-.77s-.13-.57-.37-.77c-.24-.2-.55-.32-.89-.32s-.65.11-.89.32c-.24.2-.37.48-.37.77s.13.57.37.77c.24.2.55.32.89.32Z"/>
    </g>
    <g class="cls-49">
      <path class="cls-23" d="m147.84,39.4c.33,0,.65-.11.89-.32.24-.2.37-.48.37-.77s-.13-.57-.37-.77c-.24-.2-.55-.32-.89-.32s-.65.11-.89.32c-.24.2-.37.48-.37.77s.13.57.37.77c.24.2.55.32.89.32Z"/>
      <path class="cls-7" d="m147.84,39.4c.33,0,.65-.11.89-.32.24-.2.37-.48.37-.77s-.13-.57-.37-.77c-.24-.2-.55-.32-.89-.32s-.65.11-.89.32c-.24.2-.37.48-.37.77s.13.57.37.77c.24.2.55.32.89.32Z"/>
    </g>
    <g class="cls-84">
      <path class="cls-23" d="m156.68,40.43c.33,0,.65-.11.89-.32.24-.2.37-.48.37-.77s-.13-.57-.37-.77c-.24-.2-.55-.32-.89-.32s-.65.11-.89.32c-.24.2-.37.48-.37.77s.13.57.37.77c.24.2.55.32.89.32Z"/>
      <path class="cls-7" d="m156.68,40.43c.33,0,.65-.11.89-.32.24-.2.37-.48.37-.77s-.13-.57-.37-.77c-.24-.2-.55-.32-.89-.32s-.65.11-.89.32c-.24.2-.37.48-.37.77s.13.57.37.77c.24.2.55.32.89.32Z"/>
    </g>
    <g class="cls-16">
      <path class="cls-23" d="m165.53,44.14c.33,0,.65-.11.89-.32.24-.2.37-.48.37-.77s-.13-.57-.37-.77c-.24-.2-.55-.32-.89-.32s-.65.11-.89.32c-.24.2-.37.48-.37.77s.13.57.37.77c.24.2.55.32.89.32Z"/>
      <path class="cls-7" d="m165.53,44.14c.33,0,.65-.11.89-.32.24-.2.37-.48.37-.77s-.13-.57-.37-.77c-.24-.2-.55-.32-.89-.32s-.65.11-.89.32c-.24.2-.37.48-.37.77s.13.57.37.77c.24.2.55.32.89.32Z"/>
    </g>
    <g class="cls-55">
      <path class="cls-23" d="m174.37,41.39c.33,0,.65-.11.89-.32.24-.2.37-.48.37-.77s-.13-.57-.37-.77c-.24-.2-.55-.32-.89-.32s-.65.11-.89.32c-.24.2-.37.48-.37.77s.13.57.37.77c.24.2.55.32.89.32Z"/>
      <path class="cls-7" d="m174.37,41.39c.33,0,.65-.11.89-.32.24-.2.37-.48.37-.77s-.13-.57-.37-.77c-.24-.2-.55-.32-.89-.32s-.65.11-.89.32c-.24.2-.37.48-.37.77s.13.57.37.77c.24.2.55.32.89.32Z"/>
    </g>
    <rect class="cls-9" x="44.39" y="32.56" width="136.17" height="41.5"/>
    <rect class="cls-9" x="44.39" y="32.56" width="136.17" height="41.5"/>
    <line class="cls-8" x1="44.39" y1="74.06" x2="44.39" y2="32.56"/>
    <line class="cls-8" x1="180.56" y1="74.06" x2="180.56" y2="32.56"/>
    <line class="cls-8" x1="44.39" y1="74.06" x2="180.56" y2="74.06"/>
    <line class="cls-8" x1="44.39" y1="32.56" x2="180.56" y2="32.56"/>
    <line class="cls-4" x1="249.24" y1="73.99" x2="249.24" y2="75.26"/>
    <line class="cls-4" x1="258.09" y1="73.99" x2="258.09" y2="75.26"/>
    <line class="cls-4" x1="266.93" y1="73.99" x2="266.93" y2="75.26"/>
    <line class="cls-4" x1="275.77" y1="73.99" x2="275.77" y2="75.26"/>
    <line class="cls-4" x1="284.61" y1="73.99" x2="284.61" y2="75.26"/>
    <line class="cls-4" x1="293.45" y1="73.99" x2="293.45" y2="75.26"/>
    <line class="cls-4" x1="302.3" y1="73.99" x2="302.3" y2="75.26"/>
    <line class="cls-4" x1="311.14" y1="73.99" x2="311.14" y2="75.26"/>
    <line class="cls-4" x1="319.98" y1="73.99" x2="319.98" y2="75.26"/>
    <line class="cls-4" x1="328.82" y1="73.99" x2="328.82" y2="75.26"/>
    <line class="cls-4" x1="337.67" y1="73.99" x2="337.67" y2="75.26"/>
    <line class="cls-4" x1="346.51" y1="73.99" x2="346.51" y2="75.26"/>
    <line class="cls-4" x1="355.35" y1="73.99" x2="355.35" y2="75.26"/>
    <line class="cls-4" x1="364.19" y1="73.99" x2="364.19" y2="75.26"/>
    <line class="cls-4" x1="373.03" y1="73.99" x2="373.03" y2="75.26"/>
    <line class="cls-4" x1="243.05" y1="73.99" x2="241.59" y2="73.99"/>
    <line class="cls-4" x1="243.05" y1="65.69" x2="241.59" y2="65.69"/>
    <line class="cls-4" x1="243.05" y1="57.39" x2="241.59" y2="57.39"/>
    <line class="cls-4" x1="243.05" y1="49.09" x2="241.59" y2="49.09"/>
    <line class="cls-4" x1="243.05" y1="40.79" x2="241.59" y2="40.79"/>
    <line class="cls-4" x1="243.05" y1="32.49" x2="241.59" y2="32.49"/>
    <polyline class="cls-6" points="249.24 61.41 258.09 61.46 266.93 61.37 275.77 61.23 284.61 61.12 293.45 60.38 302.3 59.67 311.14 60.73 319.98 61.65 328.82 62.48 337.67 62.56 346.51 61.96 355.35 63.72 364.19 66.34 373.03 68.72"/>
    <g class="cls-67">
      <path class="cls-23" d="m249.24,62.49c.33,0,.65-.11.89-.32.24-.2.37-.48.37-.77s-.13-.57-.37-.77c-.24-.2-.55-.32-.89-.32s-.65.11-.89.32c-.24.2-.37.48-.37.77s.13.57.37.77c.24.2.55.32.89.32Z"/>
      <path class="cls-7" d="m249.24,62.49c.33,0,.65-.11.89-.32.24-.2.37-.48.37-.77s-.13-.57-.37-.77c-.24-.2-.55-.32-.89-.32s-.65.11-.89.32c-.24.2-.37.48-.37.77s.13.57.37.77c.24.2.55.32.89.32Z"/>
    </g>
    <g class="cls-3">
      <path class="cls-23" d="m258.09,62.55c.33,0,.65-.11.89-.32.24-.2.37-.48.37-.77s-.13-.57-.37-.77c-.24-.2-.55-.32-.89-.32s-.65.11-.89.32c-.24.2-.37.48-.37.77s.13.57.37.77c.24.2.55.32.89.32Z"/>
      <path class="cls-7" d="m258.09,62.55c.33,0,.65-.11.89-.32.24-.2.37-.48.37-.77s-.13-.57-.37-.77c-.24-.2-.55-.32-.89-.32s-.65.11-.89.32c-.24.2-.37.48-.37.77s.13.57.37.77c.24.2.55.32.89.32Z"/>
    </g>
    <g class="cls-12">
      <path class="cls-23" d="m266.93,62.46c.33,0,.65-.11.89-.32.24-.2.37-.48.37-.77s-.13-.57-.37-.77c-.24-.2-.55-.32-.89-.32s-.65.11-.89.32c-.24.2-.37.48-.37.77s.13.57.37.77c.24.2.55.32.89.32Z"/>
      <path class="cls-7" d="m266.93,62.46c.33,0,.65-.11.89-.32.24-.2.37-.48.37-.77s-.13-.57-.37-.77c-.24-.2-.55-.32-.89-.32s-.65.11-.89.32c-.24.2-.37.48-.37.77s.13.57.37.77c.24.2.55.32.89.32Z"/>
    </g>
    <g class="cls-20">
      <path class="cls-23" d="m275.77,62.32c.33,0,.65-.11.89-.32.24-.2.37-.48.37-.77s-.13-.57-.37-.77c-.24-.2-.55-.32-.89-.32s-.65.11-.89.32c-.24.2-.37.48-.37.77s.13.57.37.77c.24.2.55.32.89.32Z"/>
      <path class="cls-7" d="m275.77,62.32c.33,0,.65-.11.89-.32.24-.2.37-.48.37-.77s-.13-.57-.37-.77c-.24-.2-.55-.32-.89-.32s-.65.11-.89.32c-.24.2-.37.48-.37.77s.13.57.37.77c.24.2.55.32.89.32Z"/>
    </g>
    <g class="cls-86">
      <path class="cls-23" d="m284.61,62.21c.33,0,.65-.11.89-.32.24-.2.37-.48.37-.77s-.13-.57-.37-.77c-.24-.2-.55-.32-.89-.32s-.65.11-.89.32c-.24.2-.37.48-.37.77s.13.57.37.77c.24.2.55.32.89.32Z"/>
      <path class="cls-7" d="m284.61,62.21c.33,0,.65-.11.89-.32.24-.2.37-.48.37-.77s-.13-.57-.37-.77c-.24-.2-.55-.32-.89-.32s-.65.11-.89.32c-.24.2-.37.48-.37.77s.13.57.37.77c.24.2.55.32.89.32Z"/>
    </g>
    <g class="cls-99">
      <path class="cls-23" d="m293.45,61.47c.33,0,.65-.11.89-.32.24-.2.37-.48.37-.77s-.13-.57-.37-.77c-.24-.2-.55-.32-.89-.32s-.65.11-.89.32c-.24.2-.37.48-.37.77s.13.57.37.77c.24.2.55.32.89.32Z"/>
      <path class="cls-7" d="m293.45,61.47c.33,0,.65-.11.89-.32.24-.2.37-.48.37-.77s-.13-.57-.37-.77c-.24-.2-.55-.32-.89-.32s-.65.11-.89.32c-.24.2-.37.48-.37.77s.13.57.37.77c.24.2.55.32.89.32Z"/>
    </g>
    <g class="cls-93">
      <path class="cls-23" d="m302.3,60.76c.33,0,.65-.11.89-.32.24-.2.37-.48.37-.77s-.13-.57-.37-.77c-.24-.2-.55-.32-.89-.32s-.65.11-.89.32c-.24.2-.37.48-.37.77s.13.57.37.77c.24.2.55.32.89.32Z"/>
      <path class="cls-7" d="m302.3,60.76c.33,0,.65-.11.89-.32.24-.2.37-.48.37-.77s-.13-.57-.37-.77c-.24-.2-.55-.32-.89-.32s-.65.11-.89.32c-.24.2-.37.48-.37.77s.13.57.37.77c.24.2.55.32.89.32Z"/>
    </g>
    <g class="cls-97">
      <path class="cls-23" d="m311.14,61.82c.33,0,.65-.11.89-.32.24-.2.37-.48.37-.77s-.13-.57-.37-.77c-.24-.2-.55-.32-.89-.32s-.65.11-.89.32c-.24.2-.37.48-.37.77s.13.57.37.77c.24.2.55.32.89.32Z"/>
      <path class="cls-7" d="m311.14,61.82c.33,0,.65-.11.89-.32.24-.2.37-.48.37-.77s-.13-.57-.37-.77c-.24-.2-.55-.32-.89-.32s-.65.11-.89.32c-.24.2-.37.48-.37.77s.13.57.37.77c.24.2.55.32.89.32Z"/>
    </g>
    <g class="cls-78">
      <path class="cls-23" d="m319.98,62.74c.33,0,.65-.11.89-.32.24-.2.37-.48.37-.77s-.13-.57-.37-.77c-.24-.2-.55-.32-.89-.32s-.65.11-.89.32c-.24.2-.37.48-.37.77s.13.57.37.77c.24.2.55.32.89.32Z"/>
      <path class="cls-7" d="m319.98,62.74c.33,0,.65-.11.89-.32.24-.2.37-.48.37-.77s-.13-.57-.37-.77c-.24-.2-.55-.32-.89-.32s-.65.11-.89.32c-.24.2-.37.48-.37.77s.13.57.37.77c.24.2.55.32.89.32Z"/>
    </g>
    <g class="cls-75">
      <path class="cls-23" d="m328.82,63.57c.33,0,.65-.11.89-.32.24-.2.37-.48.37-.77s-.13-.57-.37-.77c-.24-.2-.55-.32-.89-.32s-.65.11-.89.32c-.24.2-.37.48-.37.77s.13.57.37.77c.24.2.55.32.89.32Z"/>
      <path class="cls-7" d="m328.82,63.57c.33,0,.65-.11.89-.32.24-.2.37-.48.37-.77s-.13-.57-.37-.77c-.24-.2-.55-.32-.89-.32s-.65.11-.89.32c-.24.2-.37.48-.37.77s.13.57.37.77c.24.2.55.32.89.32Z"/>
    </g>
    <g class="cls-96">
      <path class="cls-23" d="m337.67,63.65c.33,0,.65-.11.89-.32.24-.2.37-.48.37-.77s-.13-.57-.37-.77c-.24-.2-.55-.32-.89-.32s-.65.11-.89.32c-.24.2-.37.48-.37.77s.13.57.37.77c.24.2.55.32.89.32Z"/>
      <path class="cls-7" d="m337.67,63.65c.33,0,.65-.11.89-.32.24-.2.37-.48.37-.77s-.13-.57-.37-.77c-.24-.2-.55-.32-.89-.32s-.65.11-.89.32c-.24.2-.37.48-.37.77s.13.57.37.77c.24.2.55.32.89.32Z"/>
    </g>
    <g class="cls-2">
      <path class="cls-23" d="m346.51,63.05c.33,0,.65-.11.89-.32.24-.2.37-.48.37-.77s-.13-.57-.37-.77c-.24-.2-.55-.32-.89-.32s-.65.11-.89.32c-.24.2-.37.48-.37.77s.13.57.37.77c.24.2.55.32.89.32Z"/>
      <path class="cls-7" d="m346.51,63.05c.33,0,.65-.11.89-.32.24-.2.37-.48.37-.77s-.13-.57-.37-.77c-.24-.2-.55-.32-.89-.32s-.65.11-.89.32c-.24.2-.37.48-.37.77s.13.57.37.77c.24.2.55.32.89.32Z"/>
    </g>
    <g class="cls-1">
      <path class="cls-23" d="m355.35,64.81c.33,0,.65-.11.89-.32.24-.2.37-.48.37-.77s-.13-.57-.37-.77c-.24-.2-.55-.32-.89-.32s-.65.11-.89.32c-.24.2-.37.48-.37.77s.13.57.37.77c.24.2.55.32.89.32Z"/>
      <path class="cls-7" d="m355.35,64.81c.33,0,.65-.11.89-.32.24-.2.37-.48.37-.77s-.13-.57-.37-.77c-.24-.2-.55-.32-.89-.32s-.65.11-.89.32c-.24.2-.37.48-.37.77s.13.57.37.77c.24.2.55.32.89.32Z"/>
    </g>
    <g class="cls-89">
      <path class="cls-23" d="m364.19,67.43c.33,0,.65-.11.89-.32.24-.2.37-.48.37-.77s-.13-.57-.37-.77c-.24-.2-.55-.32-.89-.32s-.65.11-.89.32c-.24.2-.37.48-.37.77s.13.57.37.77c.24.2.55.32.89.32Z"/>
      <path class="cls-7" d="m364.19,67.43c.33,0,.65-.11.89-.32.24-.2.37-.48.37-.77s-.13-.57-.37-.77c-.24-.2-.55-.32-.89-.32s-.65.11-.89.32c-.24.2-.37.48-.37.77s.13.57.37.77c.24.2.55.32.89.32Z"/>
    </g>
    <g class="cls-45">
      <path class="cls-23" d="m373.03,69.81c.33,0,.65-.11.89-.32.24-.2.37-.48.37-.77s-.13-.57-.37-.77c-.24-.2-.55-.32-.89-.32s-.65.11-.89.32c-.24.2-.37.48-.37.77s.13.57.37.77c.24.2.55.32.89.32Z"/>
      <path class="cls-7" d="m373.03,69.81c.33,0,.65-.11.89-.32.24-.2.37-.48.37-.77s-.13-.57-.37-.77c-.24-.2-.55-.32-.89-.32s-.65.11-.89.32c-.24.2-.37.48-.37.77s.13.57.37.77c.24.2.55.32.89.32Z"/>
    </g>
    <rect class="cls-9" x="243.05" y="32.49" width="136.17" height="41.5"/>
    <rect class="cls-9" x="243.05" y="32.49" width="136.17" height="41.5"/>
    <line class="cls-8" x1="243.05" y1="73.99" x2="243.05" y2="32.49"/>
    <line class="cls-8" x1="379.22" y1="73.99" x2="379.22" y2="32.49"/>
    <line class="cls-8" x1="243.05" y1="73.99" x2="379.22" y2="73.99"/>
    <line class="cls-8" x1="243.05" y1="32.49" x2="379.22" y2="32.49"/>
    <text class="cls-26" transform="translate(52.42 105.68) rotate(-90)"><tspan x="0" y="0">Baseline</tspan></text>
    <text class="cls-26" transform="translate(61.29 134.85) rotate(-90)"><tspan x="0" y="0">Local Democracy</tspan></text>
    <text class="cls-30" transform="translate(70.17 141.26) rotate(-90)"><tspan class="cls-44" x="0" y="0"> </tspan><tspan class="cls-17" x="2.08" y="0">Languages </tspan><tspan class="cls-44" x="35.17" y="0">Distance</tspan></text>
    <text class="cls-26" transform="translate(79.04 137.77) rotate(-90)"><tspan x="0" y="0">Structural Equality</tspan></text>
    <text class="cls-26" transform="translate(87.91 151.55) rotate(-90)"><tspan x="0" y="0">Institutional languages</tspan></text>
    <text class="cls-26" transform="translate(294.29 151.55) rotate(-90)"><tspan x="0" y="0">Institutional languages</tspan></text>
    <text class="cls-26" transform="translate(96.78 144.02) rotate(-90)"><tspan x="0" y="0">Free political parties</tspan></text>
    <text class="cls-26" transform="translate(114.98 141.95) rotate(-90)"><tspan x="0" y="0">Bachelor Education</tspan></text>
    <text class="cls-26" transform="translate(105.34 130.69) rotate(-90)"><tspan x="0" y="0">Gender Equality</tspan></text>
    <text class="cls-26" transform="translate(123.85 137.36) rotate(-90)"><tspan x="0" y="0">Credible Elections</tspan></text>
    <text class="cls-26" transform="translate(132.72 140.28) rotate(-90)"><tspan x="0" y="0">Doctoral Education</tspan></text>
    <text class="cls-26" transform="translate(141.59 109.84) rotate(-90)"><tspan x="0" y="0">Air quality</tspan></text>
    <text class="cls-26" transform="translate(150.46 128.05) rotate(-90)"><tspan x="0" y="0">GD</tspan><tspan class="cls-73" x="11.25" y="0">P</tspan><tspan class="cls-61" x="16.12" y="0" xml:space="preserve"> per capita</tspan></text>
    <text class="cls-26" transform="translate(159.34 134.88) rotate(-90)"><tspan x="0" y="0">Stable languages</tspan></text>
    <text class="cls-26" transform="translate(168.21 107.76) rotate(-90)"><tspan x="0" y="0">Migration</tspan></text>
    <text class="cls-26" transform="translate(177.08 135.14) rotate(-90)"><tspan x="0" y="0">Inclusive su</tspan><tspan class="cls-73" x="39.18" y="0">f</tspan><tspan class="cls-31" x="41.13" y="0">frage</tspan></text>
    <text class="cls-26" transform="translate(249.94 105.68) rotate(-90)"><tspan x="0" y="0">Baseline</tspan></text>
    <text class="cls-26" transform="translate(347.52 134.85) rotate(-90)"><tspan x="0" y="0">Local Democracy</tspan></text>
    <text class="cls-30" transform="translate(258.81 141.26) rotate(-90)"><tspan class="cls-44" x="0" y="0"> </tspan><tspan class="cls-17" x="2.08" y="0">Languages </tspan><tspan class="cls-44" x="35.17" y="0">Distance</tspan></text>
    <text class="cls-26" transform="translate(338.65 137.77) rotate(-90)"><tspan x="0" y="0">Structural Equality</tspan></text>
    <text class="cls-26" transform="translate(303.17 134.88) rotate(-90)"><tspan x="0" y="0">Stable languages</tspan></text>
    <text class="cls-26" transform="translate(276.55 144.02) rotate(-90)"><tspan x="0" y="0">Free political parties</tspan></text>
    <text class="cls-26" transform="translate(356.39 141.95) rotate(-90)"><tspan x="0" y="0">Bachelor Education</tspan></text>
    <text class="cls-26" transform="translate(365.27 130.69) rotate(-90)"><tspan x="0" y="0">Gender Equality</tspan></text>
    <text class="cls-26" transform="translate(267.68 137.36) rotate(-90)"><tspan x="0" y="0">Credible Elections</tspan></text>
    <text class="cls-26" transform="translate(329.78 140.28) rotate(-90)"><tspan x="0" y="0">Doctoral Education</tspan></text>
    <text class="cls-26" transform="translate(312.04 109.84) rotate(-90)"><tspan x="0" y="0">Air quality</tspan></text>
    <text class="cls-26" transform="translate(374.14 128.05) rotate(-90)"><tspan x="0" y="0">GD</tspan><tspan class="cls-73" x="11.25" y="0">P</tspan><tspan class="cls-61" x="16.12" y="0" xml:space="preserve"> per capita</tspan></text>
    <text class="cls-26" transform="translate(320.91 107.76) rotate(-90)"><tspan x="0" y="0">Migration</tspan></text>
    <text class="cls-26" transform="translate(285.42 135.14) rotate(-90)"><tspan x="0" y="0">Inclusive su</tspan><tspan class="cls-73" x="39.18" y="0">f</tspan><tspan class="cls-31" x="41.13" y="0">frage</tspan></text>
    <g>
      <text class="cls-18" transform="translate(32.1 59.67)"><tspan x="0" y="0">1.0</tspan></text>
      <text class="cls-26" transform="translate(29.06 56.98) rotate(-90)"><tspan x="0" y="0">OR</tspan></text>
      <text class="cls-18" transform="translate(32.1 34.61)"><tspan x="0" y="0">2.5</tspan></text>
      <text class="cls-18" transform="translate(37.94 76.8)"><tspan x="0" y="0">0</tspan></text>
      <text class="cls-18" transform="translate(32.1 51.36)"><tspan x="0" y="0">1.5</tspan></text>
      <text class="cls-18" transform="translate(32.1 42.78)"><tspan x="0" y="0">2.0</tspan></text>
      <text class="cls-18" transform="translate(32.1 68.62)"><tspan x="0" y="0">0.5</tspan></text>
    </g>
    <g>
      <text class="cls-18" transform="translate(230.12 59.67)"><tspan x="0" y="0">1.0</tspan></text>
      <text class="cls-26" transform="translate(227.08 56.98) rotate(-90)"><tspan x="0" y="0">OR</tspan></text>
      <text class="cls-18" transform="translate(230.12 34.61)"><tspan x="0" y="0">2.5</tspan></text>
      <text class="cls-18" transform="translate(235.96 76.8)"><tspan x="0" y="0">0</tspan></text>
      <text class="cls-18" transform="translate(230.12 51.36)"><tspan x="0" y="0">1.5</tspan></text>
      <text class="cls-18" transform="translate(230.12 42.78)"><tspan x="0" y="0">2.0</tspan></text>
      <text class="cls-18" transform="translate(230.12 68.62)"><tspan x="0" y="0">0.5</tspan></text>
    </g>
    <text class="cls-27" transform="translate(281.05 29.58)"><tspan x="0" y="0">1 additional language</tspan></text>
    <text class="cls-25" transform="translate(84.09 29.58) scale(1.01 1)"><tspan x="0" y="0">Monolingualism</tspan></text>
  </g>
  <text class="cls-29" transform="translate(22.3 455.08)"><tspan x="0" y="0">Covariate added at each step (models are cumulative: previously added covariates are retained)</tspan></text>
</svg>