<?xml version="1.0" encoding="UTF-8"?>
<svg xmlns="http://www.w3.org/2000/svg" xmlns:xlink="http://www.w3.org/1999/xlink" viewBox="0 0 528.94 235.46">
  <defs>
    <style>
      .cls-1, .cls-2, .cls-3, .cls-4, .cls-5, .cls-6 {
        stroke-linejoin: round;
      }

      .cls-1, .cls-2, .cls-3, .cls-4, .cls-5, .cls-6, .cls-7, .cls-8 {
        fill: none;
      }

      .cls-1, .cls-2, .cls-3, .cls-7 {
        stroke: #000;
      }

      .cls-1, .cls-7 {
        stroke-width: .8px;
      }

      .cls-9 {
        clip-path: url(#clippath-20);
      }

      .cls-10 {
        clip-path: url(#clippath-11);
      }

      .cls-11 {
        clip-path: url(#clippath-16);
      }

      .cls-3 {
        stroke-width: .5px;
      }

      .cls-3, .cls-12 {
        opacity: .9;
      }

      .cls-12, .cls-13 {
        fill: #d72829;
      }

      .cls-14 {
        clip-path: url(#clippath-41);
      }

      .cls-15 {
        clip-path: url(#clippath-2);
      }

      .cls-16 {
        clip-path: url(#clippath-13);
      }

      .cls-17 {
        clip-path: url(#clippath-25);
      }

      .cls-18 {
        clip-path: url(#clippath-15);
      }

      .cls-19 {
        clip-path: url(#clippath-6);
      }

      .cls-20 {
        clip-path: url(#clippath-40);
      }

      .cls-21 {
        font-size: 7.5px;
      }

      .cls-21, .cls-22, .cls-23 {
        fill: #1d1d1b;
        font-family: ArialMT, Arial;
      }

      .cls-24 {
        clip-path: url(#clippath-7);
      }

      .cls-25 {
        clip-path: url(#clippath-21);
      }

      .cls-22 {
        font-size: 10px;
      }

      .cls-26 {
        clip-path: url(#clippath-1);
      }

      .cls-27 {
        clip-path: url(#clippath-4);
      }

      .cls-28 {
        clip-path: url(#clippath-12);
      }

      .cls-4, .cls-5 {
        stroke-linecap: round;
        stroke-width: 2px;
      }

      .cls-4, .cls-6 {
        stroke: #d72829;
      }

      .cls-29 {
        clip-path: url(#clippath-24);
      }

      .cls-30 {
        clip-path: url(#clippath-22);
      }

      .cls-5 {
        stroke: #111;
      }

      .cls-31 {
        clip-path: url(#clippath-9);
      }

      .cls-32 {
        clip-path: url(#clippath);
      }

      .cls-7 {
        stroke-linecap: square;
        stroke-miterlimit: 10;
      }

      .cls-33 {
        clip-path: url(#clippath-39);
      }

      .cls-34 {
        clip-path: url(#clippath-19);
      }

      .cls-23 {
        font-size: 11px;
      }

      .cls-35 {
        clip-path: url(#clippath-3);
      }

      .cls-36 {
        clip-path: url(#clippath-8);
      }

      .cls-37 {
        clip-path: url(#clippath-18);
      }

      .cls-38 {
        clip-path: url(#clippath-14);
      }

      .cls-39 {
        clip-path: url(#clippath-17);
      }

      .cls-40 {
        clip-path: url(#clippath-5);
      }

      .cls-41 {
        clip-path: url(#clippath-42);
      }

      .cls-42 {
        clip-path: url(#clippath-10);
      }

      .cls-43 {
        clip-path: url(#clippath-23);
      }
    </style>
    <clipPath id="clippath">
      <rect class="cls-8" x="94.21" y="133.39" width="7.25" height="7.26"/>
    </clipPath>
    <clipPath id="clippath-1">
      <rect class="cls-8" x="143.27" y="147.9" width="7.25" height="7.26"/>
    </clipPath>
    <clipPath id="clippath-2">
      <rect class="cls-8" x="206.5" y="126.96" width="7.25" height="7.26"/>
    </clipPath>
    <clipPath id="clippath-3">
      <rect class="cls-8" x="123.42" y="134.05" width="7.25" height="7.26"/>
    </clipPath>
    <clipPath id="clippath-4">
      <rect class="cls-8" x="61.45" y="125.68" width="7.25" height="7.26"/>
    </clipPath>
    <clipPath id="clippath-5">
      <rect class="cls-8" x="121.82" y="99.84" width="7.25" height="7.26"/>
    </clipPath>
    <clipPath id="clippath-6">
      <rect class="cls-8" x="47.9" y="154.05" width="7.25" height="7.26"/>
    </clipPath>
    <clipPath id="clippath-7">
      <rect class="cls-8" x="66.99" y="83.51" width="7.25" height="7.26"/>
    </clipPath>
    <clipPath id="clippath-8">
      <rect class="cls-8" x="55.02" y="89.63" width="7.25" height="7.26"/>
    </clipPath>
    <clipPath id="clippath-9">
      <rect class="cls-8" x="160.77" y="100.27" width="7.25" height="7.26"/>
    </clipPath>
    <clipPath id="clippath-10">
      <rect class="cls-8" x="95.36" y="122.67" width="7.25" height="7.26"/>
    </clipPath>
    <clipPath id="clippath-11">
      <rect class="cls-8" x="150.56" y="130.87" width="7.25" height="7.26"/>
    </clipPath>
    <clipPath id="clippath-12">
      <rect class="cls-8" x="242.02" y="56.73" width="7.25" height="7.26"/>
    </clipPath>
    <clipPath id="clippath-13">
      <rect class="cls-8" x="156.05" y="117.28" width="7.25" height="7.26"/>
    </clipPath>
    <clipPath id="clippath-14">
      <rect class="cls-8" x="42.79" y="128.47" width="7.25" height="7.26"/>
    </clipPath>
    <clipPath id="clippath-15">
      <rect class="cls-8" x="43.08" y="146.35" width="7.25" height="7.26"/>
    </clipPath>
    <clipPath id="clippath-16">
      <rect class="cls-8" x="41.61" y="160.91" width="7.25" height="7.26"/>
    </clipPath>
    <clipPath id="clippath-17">
      <rect class="cls-8" x="72.07" y="137.76" width="7.25" height="7.26"/>
    </clipPath>
    <clipPath id="clippath-18">
      <rect class="cls-8" x="71.14" y="147.1" width="7.25" height="7.26"/>
    </clipPath>
    <clipPath id="clippath-19">
      <rect class="cls-8" x="138.1" y="107.02" width="7.25" height="7.26"/>
    </clipPath>
    <clipPath id="clippath-20">
      <rect class="cls-8" x="170.14" y="6.62" width="7.25" height="7.26"/>
    </clipPath>
    <clipPath id="clippath-21">
      <rect class="cls-8" x="236.54" y="91.88" width="7.25" height="7.26"/>
    </clipPath>
    <clipPath id="clippath-22">
      <rect class="cls-8" x="64.61" y="106.96" width="7.25" height="7.26"/>
    </clipPath>
    <clipPath id="clippath-23">
      <rect class="cls-8" x="193.29" y="58.4" width="7.25" height="7.26"/>
    </clipPath>
    <clipPath id="clippath-24">
      <rect class="cls-8" x="45" y="196.34" width="7.25" height="7.26"/>
    </clipPath>
    <clipPath id="clippath-25">
      <rect class="cls-8" x="63.19" y="156.59" width="7.25" height="7.26"/>
    </clipPath>
    <clipPath id="clippath-39">
      <rect class="cls-8" x="313.88" y="155.39" width="9.42" height="9.37"/>
    </clipPath>
    <clipPath id="clippath-40">
      <rect class="cls-8" x="380.53" y="130.86" width="9.42" height="9.37"/>
    </clipPath>
    <clipPath id="clippath-41">
      <rect class="cls-8" x="447.18" y="124.81" width="9.42" height="9.37"/>
    </clipPath>
    <clipPath id="clippath-42">
      <rect class="cls-8" x="513.83" y="55.22" width="9.42" height="9.37"/>
    </clipPath>
  </defs>
  <g id="Capa_1" data-name="Capa 1">
    <line class="cls-5" x1="45.24" y1="146.99" x2="245.65" y2="74.49"/>
    <g class="cls-32">
      <g>
        <path class="cls-12" d="m97.84,139.26c.59,0,1.16-.24,1.58-.66.42-.42.66-.99.66-1.58s-.24-1.16-.66-1.58c-.42-.42-.99-.66-1.58-.66s-1.16.24-1.58.66c-.42.42-.66.99-.66,1.58s.24,1.16.66,1.58c.42.42.99.66,1.58.66Z"/>
        <path class="cls-3" d="m97.84,139.26c.59,0,1.16-.24,1.58-.66.42-.42.66-.99.66-1.58s-.24-1.16-.66-1.58c-.42-.42-.99-.66-1.58-.66s-1.16.24-1.58.66c-.42.42-.66.99-.66,1.58s.24,1.16.66,1.58c.42.42.99.66,1.58.66Z"/>
      </g>
    </g>
    <g class="cls-26">
      <g>
        <path class="cls-12" d="m146.89,153.77c.59,0,1.16-.24,1.58-.66.42-.42.66-.99.66-1.58s-.24-1.16-.66-1.58c-.42-.42-.99-.66-1.58-.66s-1.16.24-1.58.66c-.42.42-.66.99-.66,1.58s.24,1.16.66,1.58c.42.42.99.66,1.58.66Z"/>
        <path class="cls-3" d="m146.89,153.77c.59,0,1.16-.24,1.58-.66.42-.42.66-.99.66-1.58s-.24-1.16-.66-1.58c-.42-.42-.99-.66-1.58-.66s-1.16.24-1.58.66c-.42.42-.66.99-.66,1.58s.24,1.16.66,1.58c.42.42.99.66,1.58.66Z"/>
      </g>
    </g>
    <g class="cls-15">
      <g>
        <path class="cls-12" d="m210.13,132.82c.59,0,1.16-.24,1.58-.66.42-.42.66-.99.66-1.58s-.24-1.16-.66-1.58c-.42-.42-.99-.66-1.58-.66s-1.16.24-1.58.66c-.42.42-.66.99-.66,1.58s.24,1.16.66,1.58c.42.42.99.66,1.58.66Z"/>
        <path class="cls-3" d="m210.13,132.82c.59,0,1.16-.24,1.58-.66.42-.42.66-.99.66-1.58s-.24-1.16-.66-1.58c-.42-.42-.99-.66-1.58-.66s-1.16.24-1.58.66c-.42.42-.66.99-.66,1.58s.24,1.16.66,1.58c.42.42.99.66,1.58.66Z"/>
      </g>
    </g>
    <g class="cls-35">
      <g>
        <path class="cls-12" d="m127.05,139.92c.59,0,1.16-.24,1.58-.66.42-.42.66-.99.66-1.58s-.24-1.16-.66-1.58c-.42-.42-.99-.66-1.58-.66s-1.16.24-1.58.66c-.42.42-.66.99-.66,1.58s.24,1.16.66,1.58c.42.42.99.66,1.58.66Z"/>
        <path class="cls-3" d="m127.05,139.92c.59,0,1.16-.24,1.58-.66.42-.42.66-.99.66-1.58s-.24-1.16-.66-1.58c-.42-.42-.99-.66-1.58-.66s-1.16.24-1.58.66c-.42.42-.66.99-.66,1.58s.24,1.16.66,1.58c.42.42.99.66,1.58.66Z"/>
      </g>
    </g>
    <g class="cls-27">
      <g>
        <path class="cls-12" d="m65.08,131.55c.59,0,1.16-.24,1.58-.66.42-.42.66-.99.66-1.58s-.24-1.16-.66-1.58c-.42-.42-.99-.66-1.58-.66s-1.16.24-1.58.66c-.42.42-.66.99-.66,1.58s.24,1.16.66,1.58c.42.42.99.66,1.58.66Z"/>
        <path class="cls-3" d="m65.08,131.55c.59,0,1.16-.24,1.58-.66.42-.42.66-.99.66-1.58s-.24-1.16-.66-1.58c-.42-.42-.99-.66-1.58-.66s-1.16.24-1.58.66c-.42.42-.66.99-.66,1.58s.24,1.16.66,1.58c.42.42.99.66,1.58.66Z"/>
      </g>
    </g>
    <g class="cls-40">
      <g>
        <path class="cls-12" d="m125.45,105.71c.59,0,1.16-.24,1.58-.66.42-.42.66-.99.66-1.58s-.24-1.16-.66-1.58c-.42-.42-.99-.66-1.58-.66s-1.16.24-1.58.66c-.42.42-.66.99-.66,1.58s.24,1.16.66,1.58c.42.42.99.66,1.58.66Z"/>
        <path class="cls-3" d="m125.45,105.71c.59,0,1.16-.24,1.58-.66.42-.42.66-.99.66-1.58s-.24-1.16-.66-1.58c-.42-.42-.99-.66-1.58-.66s-1.16.24-1.58.66c-.42.42-.66.99-.66,1.58s.24,1.16.66,1.58c.42.42.99.66,1.58.66Z"/>
      </g>
    </g>
    <g class="cls-19">
      <g>
        <path class="cls-12" d="m51.52,159.92c.59,0,1.16-.24,1.58-.66.42-.42.66-.99.66-1.58s-.24-1.16-.66-1.58c-.42-.42-.99-.66-1.58-.66s-1.16.24-1.58.66c-.42.42-.66.99-.66,1.58s.24,1.16.66,1.58c.42.42.99.66,1.58.66Z"/>
        <path class="cls-3" d="m51.52,159.92c.59,0,1.16-.24,1.58-.66.42-.42.66-.99.66-1.58s-.24-1.16-.66-1.58c-.42-.42-.99-.66-1.58-.66s-1.16.24-1.58.66c-.42.42-.66.99-.66,1.58s.24,1.16.66,1.58c.42.42.99.66,1.58.66Z"/>
      </g>
    </g>
    <g class="cls-24">
      <g>
        <path class="cls-12" d="m70.62,89.38c.59,0,1.16-.24,1.58-.66.42-.42.66-.99.66-1.58s-.24-1.16-.66-1.58c-.42-.42-.99-.66-1.58-.66s-1.16.24-1.58.66c-.42.42-.66.99-.66,1.58s.24,1.16.66,1.58c.42.42.99.66,1.58.66Z"/>
        <path class="cls-3" d="m70.62,89.38c.59,0,1.16-.24,1.58-.66.42-.42.66-.99.66-1.58s-.24-1.16-.66-1.58c-.42-.42-.99-.66-1.58-.66s-1.16.24-1.58.66c-.42.42-.66.99-.66,1.58s.24,1.16.66,1.58c.42.42.99.66,1.58.66Z"/>
      </g>
    </g>
    <g class="cls-36">
      <g>
        <path class="cls-12" d="m58.65,95.5c.59,0,1.16-.24,1.58-.66.42-.42.66-.99.66-1.58s-.24-1.16-.66-1.58c-.42-.42-.99-.66-1.58-.66s-1.16.24-1.58.66c-.42.42-.66.99-.66,1.58s.24,1.16.66,1.58c.42.42.99.66,1.58.66Z"/>
        <path class="cls-3" d="m58.65,95.5c.59,0,1.16-.24,1.58-.66.42-.42.66-.99.66-1.58s-.24-1.16-.66-1.58c-.42-.42-.99-.66-1.58-.66s-1.16.24-1.58.66c-.42.42-.66.99-.66,1.58s.24,1.16.66,1.58c.42.42.99.66,1.58.66Z"/>
      </g>
    </g>
    <g class="cls-31">
      <g>
        <path class="cls-12" d="m164.4,106.14c.59,0,1.16-.24,1.58-.66.42-.42.66-.99.66-1.58s-.24-1.16-.66-1.58c-.42-.42-.99-.66-1.58-.66s-1.16.24-1.58.66c-.42.42-.66.99-.66,1.58s.24,1.16.66,1.58c.42.42.99.66,1.58.66Z"/>
        <path class="cls-3" d="m164.4,106.14c.59,0,1.16-.24,1.58-.66.42-.42.66-.99.66-1.58s-.24-1.16-.66-1.58c-.42-.42-.99-.66-1.58-.66s-1.16.24-1.58.66c-.42.42-.66.99-.66,1.58s.24,1.16.66,1.58c.42.42.99.66,1.58.66Z"/>
      </g>
    </g>
    <g class="cls-42">
      <g>
        <path class="cls-12" d="m98.99,128.54c.59,0,1.16-.24,1.58-.66.42-.42.66-.99.66-1.58s-.24-1.16-.66-1.58c-.42-.42-.99-.66-1.58-.66s-1.16.24-1.58.66c-.42.42-.66.99-.66,1.58s.24,1.16.66,1.58c.42.42.99.66,1.58.66Z"/>
        <path class="cls-3" d="m98.99,128.54c.59,0,1.16-.24,1.58-.66.42-.42.66-.99.66-1.58s-.24-1.16-.66-1.58c-.42-.42-.99-.66-1.58-.66s-1.16.24-1.58.66c-.42.42-.66.99-.66,1.58s.24,1.16.66,1.58c.42.42.99.66,1.58.66Z"/>
      </g>
    </g>
    <g class="cls-10">
      <g>
        <path class="cls-12" d="m154.19,136.73c.59,0,1.16-.24,1.58-.66.42-.42.66-.99.66-1.58s-.24-1.16-.66-1.58c-.42-.42-.99-.66-1.58-.66s-1.16.24-1.58.66c-.42.42-.66.99-.66,1.58s.24,1.16.66,1.58c.42.42.99.66,1.58.66Z"/>
        <path class="cls-3" d="m154.19,136.73c.59,0,1.16-.24,1.58-.66.42-.42.66-.99.66-1.58s-.24-1.16-.66-1.58c-.42-.42-.99-.66-1.58-.66s-1.16.24-1.58.66c-.42.42-.66.99-.66,1.58s.24,1.16.66,1.58c.42.42.99.66,1.58.66Z"/>
      </g>
    </g>
    <g class="cls-28">
      <g>
        <path class="cls-12" d="m245.65,62.59c.59,0,1.16-.24,1.58-.66s.66-.99.66-1.58-.24-1.16-.66-1.58-.99-.66-1.58-.66-1.16.24-1.58.66-.66.99-.66,1.58.24,1.16.66,1.58.99.66,1.58.66Z"/>
        <path class="cls-3" d="m245.65,62.59c.59,0,1.16-.24,1.58-.66s.66-.99.66-1.58-.24-1.16-.66-1.58-.99-.66-1.58-.66-1.16.24-1.58.66-.66.99-.66,1.58.24,1.16.66,1.58.99.66,1.58.66Z"/>
      </g>
    </g>
    <g class="cls-16">
      <g>
        <path class="cls-12" d="m159.68,123.14c.59,0,1.16-.24,1.58-.66.42-.42.66-.99.66-1.58s-.24-1.16-.66-1.58c-.42-.42-.99-.66-1.58-.66s-1.16.24-1.58.66c-.42.42-.66.99-.66,1.58s.24,1.16.66,1.58c.42.42.99.66,1.58.66Z"/>
        <path class="cls-3" d="m159.68,123.14c.59,0,1.16-.24,1.58-.66.42-.42.66-.99.66-1.58s-.24-1.16-.66-1.58c-.42-.42-.99-.66-1.58-.66s-1.16.24-1.58.66c-.42.42-.66.99-.66,1.58s.24,1.16.66,1.58c.42.42.99.66,1.58.66Z"/>
      </g>
    </g>
    <g class="cls-38">
      <g>
        <path class="cls-12" d="m46.41,134.34c.59,0,1.16-.24,1.58-.66.42-.42.66-.99.66-1.58s-.24-1.16-.66-1.58c-.42-.42-.99-.66-1.58-.66s-1.16.24-1.58.66c-.42.42-.66.99-.66,1.58s.24,1.16.66,1.58c.42.42.99.66,1.58.66Z"/>
        <path class="cls-3" d="m46.41,134.34c.59,0,1.16-.24,1.58-.66.42-.42.66-.99.66-1.58s-.24-1.16-.66-1.58c-.42-.42-.99-.66-1.58-.66s-1.16.24-1.58.66c-.42.42-.66.99-.66,1.58s.24,1.16.66,1.58c.42.42.99.66,1.58.66Z"/>
      </g>
    </g>
    <g class="cls-18">
      <g>
        <path class="cls-12" d="m46.71,152.22c.59,0,1.16-.24,1.58-.66.42-.42.66-.99.66-1.58s-.24-1.16-.66-1.58c-.42-.42-.99-.66-1.58-.66s-1.16.24-1.58.66c-.42.42-.66.99-.66,1.58s.24,1.16.66,1.58c.42.42.99.66,1.58.66Z"/>
        <path class="cls-3" d="m46.71,152.22c.59,0,1.16-.24,1.58-.66.42-.42.66-.99.66-1.58s-.24-1.16-.66-1.58c-.42-.42-.99-.66-1.58-.66s-1.16.24-1.58.66c-.42.42-.66.99-.66,1.58s.24,1.16.66,1.58c.42.42.99.66,1.58.66Z"/>
      </g>
    </g>
    <g class="cls-11">
      <g>
        <path class="cls-12" d="m45.24,166.78c.59,0,1.16-.24,1.58-.66.42-.42.66-.99.66-1.58s-.24-1.16-.66-1.58c-.42-.42-.99-.66-1.58-.66s-1.16.24-1.58.66c-.42.42-.66.99-.66,1.58s.24,1.16.66,1.58c.42.42.99.66,1.58.66Z"/>
        <path class="cls-3" d="m45.24,166.78c.59,0,1.16-.24,1.58-.66.42-.42.66-.99.66-1.58s-.24-1.16-.66-1.58c-.42-.42-.99-.66-1.58-.66s-1.16.24-1.58.66c-.42.42-.66.99-.66,1.58s.24,1.16.66,1.58c.42.42.99.66,1.58.66Z"/>
      </g>
    </g>
    <g class="cls-39">
      <g>
        <path class="cls-12" d="m75.7,143.63c.59,0,1.16-.24,1.58-.66.42-.42.66-.99.66-1.58s-.24-1.16-.66-1.58c-.42-.42-.99-.66-1.58-.66s-1.16.24-1.58.66c-.42.42-.66.99-.66,1.58s.24,1.16.66,1.58c.42.42.99.66,1.58.66Z"/>
        <path class="cls-3" d="m75.7,143.63c.59,0,1.16-.24,1.58-.66.42-.42.66-.99.66-1.58s-.24-1.16-.66-1.58c-.42-.42-.99-.66-1.58-.66s-1.16.24-1.58.66c-.42.42-.66.99-.66,1.58s.24,1.16.66,1.58c.42.42.99.66,1.58.66Z"/>
      </g>
    </g>
    <g class="cls-37">
      <g>
        <path class="cls-12" d="m74.77,152.97c.59,0,1.16-.24,1.58-.66.42-.42.66-.99.66-1.58s-.24-1.16-.66-1.58c-.42-.42-.99-.66-1.58-.66s-1.16.24-1.58.66c-.42.42-.66.99-.66,1.58s.24,1.16.66,1.58c.42.42.99.66,1.58.66Z"/>
        <path class="cls-3" d="m74.77,152.97c.59,0,1.16-.24,1.58-.66.42-.42.66-.99.66-1.58s-.24-1.16-.66-1.58c-.42-.42-.99-.66-1.58-.66s-1.16.24-1.58.66c-.42.42-.66.99-.66,1.58s.24,1.16.66,1.58c.42.42.99.66,1.58.66Z"/>
      </g>
    </g>
    <g class="cls-34">
      <g>
        <path class="cls-12" d="m141.73,112.89c.59,0,1.16-.24,1.58-.66.42-.42.66-.99.66-1.58s-.24-1.16-.66-1.58c-.42-.42-.99-.66-1.58-.66s-1.16.24-1.58.66c-.42.42-.66.99-.66,1.58s.24,1.16.66,1.58c.42.42.99.66,1.58.66Z"/>
        <path class="cls-3" d="m141.73,112.89c.59,0,1.16-.24,1.58-.66.42-.42.66-.99.66-1.58s-.24-1.16-.66-1.58c-.42-.42-.99-.66-1.58-.66s-1.16.24-1.58.66c-.42.42-.66.99-.66,1.58s.24,1.16.66,1.58c.42.42.99.66,1.58.66Z"/>
      </g>
    </g>
    <g class="cls-9">
      <g>
        <path class="cls-12" d="m173.76,12.48c.59,0,1.16-.24,1.58-.66s.66-.99.66-1.58-.24-1.16-.66-1.58-.99-.66-1.58-.66-1.16.24-1.58.66-.66.99-.66,1.58.24,1.16.66,1.58.99.66,1.58.66Z"/>
        <path class="cls-3" d="m173.76,12.48c.59,0,1.16-.24,1.58-.66s.66-.99.66-1.58-.24-1.16-.66-1.58-.99-.66-1.58-.66-1.16.24-1.58.66-.66.99-.66,1.58.24,1.16.66,1.58.99.66,1.58.66Z"/>
      </g>
    </g>
    <g class="cls-25">
      <g>
        <path class="cls-12" d="m240.16,97.75c.59,0,1.16-.24,1.58-.66.42-.42.66-.99.66-1.58s-.24-1.16-.66-1.58c-.42-.42-.99-.66-1.58-.66s-1.16.24-1.58.66c-.42.42-.66.99-.66,1.58s.24,1.16.66,1.58c.42.42.99.66,1.58.66Z"/>
        <path class="cls-3" d="m240.16,97.75c.59,0,1.16-.24,1.58-.66.42-.42.66-.99.66-1.58s-.24-1.16-.66-1.58c-.42-.42-.99-.66-1.58-.66s-1.16.24-1.58.66c-.42.42-.66.99-.66,1.58s.24,1.16.66,1.58c.42.42.99.66,1.58.66Z"/>
      </g>
    </g>
    <g class="cls-30">
      <g>
        <path class="cls-12" d="m68.23,112.83c.59,0,1.16-.24,1.58-.66.42-.42.66-.99.66-1.58s-.24-1.16-.66-1.58c-.42-.42-.99-.66-1.58-.66s-1.16.24-1.58.66c-.42.42-.66.99-.66,1.58s.24,1.16.66,1.58c.42.42.99.66,1.58.66Z"/>
        <path class="cls-3" d="m68.23,112.83c.59,0,1.16-.24,1.58-.66.42-.42.66-.99.66-1.58s-.24-1.16-.66-1.58c-.42-.42-.99-.66-1.58-.66s-1.16.24-1.58.66c-.42.42-.66.99-.66,1.58s.24,1.16.66,1.58c.42.42.99.66,1.58.66Z"/>
      </g>
    </g>
    <g class="cls-43">
      <g>
        <path class="cls-12" d="m196.92,64.27c.59,0,1.16-.24,1.58-.66s.66-.99.66-1.58-.24-1.16-.66-1.58-.99-.66-1.58-.66-1.16.24-1.58.66-.66.99-.66,1.58.24,1.16.66,1.58.99.66,1.58.66Z"/>
        <path class="cls-3" d="m196.92,64.27c.59,0,1.16-.24,1.58-.66s.66-.99.66-1.58-.24-1.16-.66-1.58-.99-.66-1.58-.66-1.16.24-1.58.66-.66.99-.66,1.58.24,1.16.66,1.58.99.66,1.58.66Z"/>
      </g>
    </g>
    <g class="cls-29">
      <g>
        <path class="cls-12" d="m48.62,202.21c.59,0,1.16-.24,1.58-.66.42-.42.66-.99.66-1.58s-.24-1.16-.66-1.58c-.42-.42-.99-.66-1.58-.66s-1.16.24-1.58.66c-.42.42-.66.99-.66,1.58s.24,1.16.66,1.58c.42.42.99.66,1.58.66Z"/>
        <path class="cls-3" d="m48.62,202.21c.59,0,1.16-.24,1.58-.66.42-.42.66-.99.66-1.58s-.24-1.16-.66-1.58c-.42-.42-.99-.66-1.58-.66s-1.16.24-1.58.66c-.42.42-.66.99-.66,1.58s.24,1.16.66,1.58c.42.42.99.66,1.58.66Z"/>
      </g>
    </g>
    <g class="cls-17">
      <g>
        <path class="cls-12" d="m66.82,162.46c.59,0,1.16-.24,1.58-.66.42-.42.66-.99.66-1.58s-.24-1.16-.66-1.58c-.42-.42-.99-.66-1.58-.66s-1.16.24-1.58.66c-.42.42-.66.99-.66,1.58s.24,1.16.66,1.58c.42.42.99.66,1.58.66Z"/>
        <path class="cls-3" d="m66.82,162.46c.59,0,1.16-.24,1.58-.66.42-.42.66-.99.66-1.58s-.24-1.16-.66-1.58c-.42-.42-.99-.66-1.58-.66s-1.16.24-1.58.66c-.42.42-.66.99-.66,1.58s.24,1.16.66,1.58c.42.42.99.66,1.58.66Z"/>
      </g>
    </g>
    <rect class="cls-8" x="35.22" y=".76" width="220.46" height="208.7"/>
    <rect class="cls-8" x="35.22" y=".76" width="220.46" height="208.7"/>
    <line class="cls-7" x1="35.72" y1="208.53" x2="35.72" y2=".4"/>
    <line class="cls-7" x1="255.67" y1="208.53" x2="255.67" y2=".4"/>
    <line class="cls-7" x1="35.72" y1="208.53" x2="255.67" y2="208.53"/>
    <line class="cls-7" x1="35.72" y1=".4" x2="255.67" y2=".4"/>
    <rect class="cls-8" x="308.59" y=".4" width="219.95" height="208.13"/>
    <rect class="cls-8" x="308.59" y=".4" width="219.95" height="208.13"/>
    <rect class="cls-8" x="308.59" y=".4" width="219.95" height="208.13"/>
    <rect class="cls-8" x="308.59" y=".4" width="219.95" height="208.13"/>
    <line class="cls-7" x1="308.59" y1="208.53" x2="308.59" y2=".4"/>
    <line class="cls-7" x1="528.54" y1="208.53" x2="528.54" y2=".4"/>
    <line class="cls-7" x1="308.59" y1="208.53" x2="528.54" y2="208.53"/>
    <line class="cls-7" x1="308.59" y1=".4" x2="528.54" y2=".4"/>
    <line class="cls-2" x1="318.59" y1="199.11" x2="318.59" y2="121.04"/>
    <line class="cls-2" x1="385.24" y1="170.1" x2="385.24" y2="100.99"/>
    <line class="cls-2" x1="451.89" y1="152.08" x2="451.89" y2="106.9"/>
    <line class="cls-2" x1="518.54" y1="109.02" x2="518.54" y2="10.8"/>
    <line class="cls-2" x1="320.8" y1="199.11" x2="316.37" y2="199.11"/>
    <line class="cls-2" x1="387.45" y1="170.1" x2="383.02" y2="170.1"/>
    <line class="cls-2" x1="454.11" y1="152.08" x2="449.67" y2="152.08"/>
    <line class="cls-2" x1="520.76" y1="109.02" x2="516.33" y2="109.02"/>
    <line class="cls-2" x1="320.8" y1="121.04" x2="316.37" y2="121.04"/>
    <line class="cls-2" x1="387.45" y1="100.99" x2="383.02" y2="100.99"/>
    <line class="cls-2" x1="454.11" y1="106.9" x2="449.67" y2="106.9"/>
    <line class="cls-2" x1="520.76" y1="10.8" x2="516.33" y2="10.8"/>
    <polyline class="cls-4" points="318.59 160.08 385.24 135.55 451.89 129.49 518.54 59.91"/>
    <g class="cls-33">
      <path class="cls-13" d="m318.59,162.01c.51,0,1.01-.2,1.37-.57.36-.36.57-.85.57-1.36s-.2-1-.57-1.36c-.36-.36-.86-.57-1.37-.57s-1.01.2-1.37.57c-.36.36-.57.85-.57,1.36s.2,1,.57,1.36c.36.36.86.57,1.37.57Z"/>
      <path class="cls-6" d="m318.59,162.01c.51,0,1.01-.2,1.37-.57.36-.36.57-.85.57-1.36s-.2-1-.57-1.36c-.36-.36-.86-.57-1.37-.57s-1.01.2-1.37.57c-.36.36-.57.85-.57,1.36s.2,1,.57,1.36c.36.36.86.57,1.37.57Z"/>
    </g>
    <g class="cls-20">
      <path class="cls-13" d="m385.24,137.47c.51,0,1.01-.2,1.37-.57.36-.36.57-.85.57-1.36s-.2-1-.57-1.36c-.36-.36-.86-.57-1.37-.57s-1.01.2-1.37.57c-.36.36-.57.85-.57,1.36s.2,1,.57,1.36c.36.36.86.57,1.37.57Z"/>
      <path class="cls-6" d="m385.24,137.47c.51,0,1.01-.2,1.37-.57.36-.36.57-.85.57-1.36s-.2-1-.57-1.36c-.36-.36-.86-.57-1.37-.57s-1.01.2-1.37.57c-.36.36-.57.85-.57,1.36s.2,1,.57,1.36c.36.36.86.57,1.37.57Z"/>
    </g>
    <g class="cls-14">
      <path class="cls-13" d="m451.89,131.42c.51,0,1.01-.2,1.37-.57.36-.36.57-.85.57-1.36s-.2-1-.57-1.36c-.36-.36-.86-.57-1.37-.57s-1.01.2-1.37.57c-.36.36-.57.85-.57,1.36s.2,1,.57,1.36c.36.36.86.57,1.37.57Z"/>
      <path class="cls-6" d="m451.89,131.42c.51,0,1.01-.2,1.37-.57.36-.36.57-.85.57-1.36s-.2-1-.57-1.36c-.36-.36-.86-.57-1.37-.57s-1.01.2-1.37.57c-.36.36-.57.85-.57,1.36s.2,1,.57,1.36c.36.36.86.57,1.37.57Z"/>
    </g>
    <g class="cls-41">
      <path class="cls-13" d="m518.54,61.84c.51,0,1.01-.2,1.37-.57.36-.36.57-.85.57-1.36s-.2-1-.57-1.36c-.36-.36-.86-.57-1.37-.57s-1.01.2-1.37.57c-.36.36-.57.85-.57,1.36s.2,1,.57,1.36c.36.36.86.57,1.37.57Z"/>
      <path class="cls-6" d="m518.54,61.84c.51,0,1.01-.2,1.37-.57.36-.36.57-.85.57-1.36s-.2-1-.57-1.36c-.36-.36-.86-.57-1.37-.57s-1.01.2-1.37.57c-.36.36-.57.85-.57,1.36s.2,1,.57,1.36c.36.36.86.57,1.37.57Z"/>
    </g>
    <text class="cls-23" transform="translate(94.8 231.88)"><tspan x="0" y="0">Monolingualism [%]</tspan></text>
    <text class="cls-21" transform="translate(39.83 12.09)"><tspan x="0" y="0" xml:space="preserve">Pearson:     r = 0.58; p = 0.0018 </tspan></text>
    <text class="cls-21" transform="translate(39.83 21.89)"><tspan x="0" y="0" xml:space="preserve">Spearman:  r = 0.58; p = 0.0021</tspan></text>
    <text class="cls-23" transform="translate(9.44 162.5) rotate(-90)"><tspan x="0" y="0">BBAGs [mean, by country]</tspan></text>
    <text class="cls-22" transform="translate(61.55 219.48)"><tspan x="0" y="0">10</tspan></text>
    <line class="cls-1" x1="67.11" y1="208.53" x2="67.11" y2="210.73"/>
    <text class="cls-22" transform="translate(22.23 199.68)"><tspan x="0" y="0">-2</tspan></text>
    <line class="cls-1" x1="33.52" y1="197.4" x2="35.72" y2="197.4"/>
    <text class="cls-22" transform="translate(22.23 160.42)"><tspan x="0" y="0">-1</tspan></text>
    <line class="cls-1" x1="33.52" y1="158.15" x2="35.72" y2="158.15"/>
    <text class="cls-22" transform="translate(25.56 121.25)"><tspan x="0" y="0">0</tspan></text>
    <line class="cls-1" x1="33.52" y1="118.97" x2="35.72" y2="118.97"/>
    <text class="cls-22" transform="translate(25.56 82.02)"><tspan x="0" y="0">1</tspan></text>
    <line class="cls-1" x1="33.52" y1="79.74" x2="35.72" y2="79.74"/>
    <text class="cls-22" transform="translate(25.56 42.82)"><tspan x="0" y="0">2</tspan></text>
    <line class="cls-1" x1="33.52" y1="40.55" x2="35.72" y2="40.55"/>
    <text class="cls-23" transform="translate(281.95 162.5) rotate(-90)"><tspan x="0" y="0">BBAGs [mean, by country]</tspan></text>
    <text class="cls-22" transform="translate(294.74 176.84)"><tspan x="0" y="0">-1</tspan></text>
    <line class="cls-1" x1="306.04" y1="174.57" x2="308.23" y2="174.57"/>
    <text class="cls-22" transform="translate(298.07 124.56)"><tspan x="0" y="0">0</tspan></text>
    <line class="cls-1" x1="306.04" y1="122.29" x2="308.23" y2="122.29"/>
    <text class="cls-22" transform="translate(298.07 74.93)"><tspan x="0" y="0">1</tspan></text>
    <line class="cls-1" x1="306.04" y1="72.65" x2="308.23" y2="72.65"/>
    <text class="cls-22" transform="translate(298.07 24.17)"><tspan x="0" y="0">2</tspan></text>
    <line class="cls-1" x1="306.04" y1="21.89" x2="308.23" y2="21.89"/>
    <text class="cls-22" transform="translate(95.9 219.48)"><tspan x="0" y="0">20</tspan></text>
    <line class="cls-1" x1="101.46" y1="208.53" x2="101.46" y2="210.73"/>
    <text class="cls-22" transform="translate(131.14 219.48)"><tspan x="0" y="0">30</tspan></text>
    <line class="cls-1" x1="136.7" y1="208.53" x2="136.7" y2="210.73"/>
    <text class="cls-22" transform="translate(166.53 219.48)"><tspan x="0" y="0">40</tspan></text>
    <line class="cls-1" x1="172.09" y1="208.53" x2="172.09" y2="210.73"/>
    <text class="cls-22" transform="translate(201.69 219.48)"><tspan x="0" y="0">50</tspan></text>
    <line class="cls-1" x1="207.25" y1="208.53" x2="207.25" y2="210.73"/>
    <text class="cls-22" transform="translate(236.85 219.48)"><tspan x="0" y="0">60</tspan></text>
    <line class="cls-1" x1="242.41" y1="208.53" x2="242.41" y2="210.73"/>
    <text class="cls-23" transform="translate(319.9 231.88)"><tspan x="0" y="0">Monolingualism [Quartiles, by Country]</tspan></text>
    <text class="cls-22" transform="translate(311.92 219.48)"><tspan x="0" y="0">Q1</tspan></text>
    <line class="cls-1" x1="318.59" y1="208.53" x2="318.59" y2="210.73"/>
    <text class="cls-22" transform="translate(378.57 219.48)"><tspan x="0" y="0">Q2</tspan></text>
    <line class="cls-1" x1="385.24" y1="208.53" x2="385.24" y2="210.73"/>
    <text class="cls-22" transform="translate(445.22 219.48)"><tspan x="0" y="0">Q3</tspan></text>
    <line class="cls-1" x1="451.89" y1="208.53" x2="451.89" y2="210.73"/>
    <text class="cls-22" transform="translate(511.87 219.48)"><tspan x="0" y="0">Q4</tspan></text>
    <line class="cls-1" x1="518.54" y1="208.53" x2="518.54" y2="210.73"/>
  </g>
  <g id="Capa_2" data-name="Capa 2">
    <text class="cls-21" transform="translate(59.56 84.01)"><tspan x="0" y="0">Estonia</tspan></text>
    <text class="cls-21" transform="translate(56.76 106.96)"><tspan x="0" y="0">Slovenia</tspan></text>
    <text class="cls-21" transform="translate(63.64 128.88)"><tspan x="0" y="0">Cyprus</tspan></text>
    <text class="cls-21" transform="translate(42.49 131.69)"><tspan x="0" y="0">Latvia</tspan></text>
    <text class="cls-21" transform="translate(76.38 143.1)"><tspan x="0" y="0">Malta</tspan></text>
    <text class="cls-21" transform="translate(89.79 134.5)"><tspan x="0" y="0">Austria</tspan></text>
    <text class="cls-21" transform="translate(90 123.42)"><tspan x="0" y="0">Germany</tspan></text>
    <text class="cls-21" transform="translate(37.03 146.99)"><tspan x="0" y="0">Lithuania</tspan></text>
    <text class="cls-21" transform="translate(79.26 152.5)"><tspan x="0" y="0">Netherlands</tspan></text>
    <text class="cls-21" transform="translate(72.5 161.93)"><tspan x="0" y="0">Switzerland</tspan></text>
    <text class="cls-21" transform="translate(42.67 156.88)"><tspan x="0" y="0">Denmark</tspan></text>
    <text class="cls-21" transform="translate(47.8 166.89)"><tspan x="0" y="0">Luxembourg</tspan></text>
    <text class="cls-21" transform="translate(38.7 197.31)"><tspan x="0" y="0">Sweden</tspan></text>
    <text class="cls-21" transform="translate(117.5 134.7)"><tspan x="0" y="0">Croatia</tspan></text>
    <text class="cls-21" transform="translate(136.16 147.76)"><tspan x="0" y="0">Belgium</tspan></text>
    <text class="cls-21" transform="translate(142.52 131.4)"><tspan x="0" y="0">Greece</tspan></text>
    <text class="cls-21" transform="translate(197.84 125.68)"><tspan x="0" y="0">Bulgaria</tspan></text>
    <text class="cls-21" transform="translate(187.32 57.48)"><tspan x="0" y="0">Spain</tspan></text>
    <text class="cls-21" transform="translate(222.7 91.33)"><tspan x="0" y="0">Romania</tspan></text>
    <text class="cls-21" transform="translate(225.13 56.15)"><tspan x="0" y="0">Hungary</tspan></text>
    <text class="cls-21" transform="translate(153.63 117.98)"><tspan x="0" y="0">Italy</tspan></text>
    <text class="cls-21" transform="translate(112.63 99.97)"><tspan x="0" y="0">Czechia</tspan></text>
    <text class="cls-21" transform="translate(131.35 107.5)"><tspan x="0" y="0">Poland</tspan></text>
    <text class="cls-21" transform="translate(151.63 97.69)"><tspan x="0" y="0">France</tspan></text>
    <text class="cls-21" transform="translate(176.25 12.09)"><tspan x="0" y="0">Portugal</tspan></text>
    <text class="cls-21" transform="translate(60.76 95.63)"><tspan x="0" y="0">Finland</tspan></text>
  </g>
</svg>