<?xml version="1.0" encoding="UTF-8"?>
<svg id="Capa_1" data-name="Capa 1" xmlns="http://www.w3.org/2000/svg" viewBox="0 0 342.9 263.84">
  <defs>
    <style>
      .cls-1 {
        stroke: #000;
        stroke-linejoin: round;
        stroke-width: .8px;
      }

      .cls-1, .cls-2, .cls-3, .cls-4, .cls-5, .cls-6, .cls-7, .cls-8 {
        fill: none;
      }

      .cls-9 {
        letter-spacing: -.16em;
      }

      .cls-10, .cls-11, .cls-12 {
        fill: #fff;
      }

      .cls-13 {
        fill: #e30613;
      }

      .cls-13, .cls-2, .cls-11, .cls-3, .cls-4, .cls-5, .cls-6, .cls-7, .cls-12, .cls-8 {
        stroke-miterlimit: 10;
      }

      .cls-13, .cls-11, .cls-7 {
        stroke: #2c7546;
      }

      .cls-14 {
        letter-spacing: -.02em;
      }

      .cls-2, .cls-4, .cls-8 {
        stroke: #e30613;
      }

      .cls-15, .cls-16, .cls-17, .cls-18, .cls-19 {
        fill: #1d1d1b;
      }

      .cls-15, .cls-16, .cls-17, .cls-19 {
        font-size: 5.73px;
      }

      .cls-15, .cls-17, .cls-18, .cls-19 {
        font-family: ArialMT, Arial;
      }

      .cls-15, .cls-20 {
        letter-spacing: -.05em;
      }

      .cls-21 {
        letter-spacing: -.02em;
      }

      .cls-3 {
        stroke: #1d1d1b;
      }

      .cls-16 {
        font-family: MyriadPro-Regular, 'Myriad Pro';
      }

      .cls-4 {
        stroke-dasharray: 0 0 2.04 1.02;
      }

      .cls-17 {
        letter-spacing: -.05em;
      }

      .cls-18 {
        font-size: 6.88px;
      }

      .cls-22 {
        letter-spacing: 0em;
      }

      .cls-5, .cls-12 {
        stroke: #ee7116;
      }

      .cls-6 {
        stroke: #dadada;
        stroke-width: 4px;
      }

      .cls-8 {
        stroke-dasharray: 0 0 2.04 1.02;
      }
    </style>
  </defs>
  <g>
    <line class="cls-2" x1="271.08" y1="64.76" x2="271.08" y2="63.76"/>
    <line class="cls-4" x1="271.08" y1="62.74" x2="271.08" y2="20.43"/>
    <line class="cls-2" x1="271.08" y1="19.92" x2="271.08" y2="18.92"/>
  </g>
  <text class="cls-18" transform="translate(.01 5.9)"><tspan x="0" y="0" xml:space="preserve">A.   Cross-sectional epidemeological analysis</tspan></text>
  <text class="cls-19" transform="translate(15.19 80.21)"><tspan class="cls-9" x="0" y="0">T</tspan><tspan class="cls-20" x="2.58" y="0">otal (≥1 language)</tspan></text>
  <text class="cls-15" transform="translate(7.71 88.22)"><tspan x="0" y="0">3 additional languages</tspan></text>
  <text class="cls-15" transform="translate(7.71 96.24)"><tspan x="0" y="0">2 additional languages</tspan></text>
  <text class="cls-15" transform="translate(10.29 104.25)"><tspan x="0" y="0">1 additional language</tspan></text>
  <text class="cls-17" transform="translate(22.46 112.27) scale(1.01 1)"><tspan x="0" y="0">Monolingualism</tspan></text>
  <g>
    <line class="cls-1" x1="60.63" y1="79.07" x2="59.26" y2="79.07"/>
    <line class="cls-1" x1="60.63" y1="86.94" x2="59.26" y2="86.94"/>
    <line class="cls-1" x1="60.63" y1="94.96" x2="59.26" y2="94.96"/>
    <line class="cls-1" x1="60.63" y1="102.97" x2="59.26" y2="102.97"/>
    <line class="cls-1" x1="60.63" y1="110.98" x2="59.26" y2="110.98"/>
  </g>
  <text class="cls-19" transform="translate(98.68 119.78)"><tspan x="0" y="0">1.0</tspan></text>
  <text class="cls-19" transform="translate(106.39 128.55)"><tspan x="0" y="0">OR</tspan></text>
  <text class="cls-19" transform="translate(274.3 128.55)"><tspan x="0" y="0">OR</tspan></text>
  <text class="cls-19" transform="translate(161.65 119.78)"><tspan x="0" y="0">2.5</tspan></text>
  <text class="cls-19" transform="translate(59.03 119.84)"><tspan x="0" y="0">0</tspan></text>
  <line class="cls-1" x1="60.63" y1="114.05" x2="60.63" y2="115.63"/>
  <line class="cls-1" x1="102.62" y1="114.05" x2="102.62" y2="115.63"/>
  <text class="cls-19" transform="translate(119.22 119.78)"><tspan x="0" y="0">1.5</tspan></text>
  <line class="cls-1" x1="123.17" y1="114.05" x2="123.17" y2="115.63"/>
  <text class="cls-19" transform="translate(140.35 119.78)"><tspan x="0" y="0">2.0</tspan></text>
  <line class="cls-1" x1="144.29" y1="114.05" x2="144.29" y2="115.63"/>
  <text class="cls-19" transform="translate(77.81 119.78)"><tspan x="0" y="0">0.5</tspan></text>
  <line class="cls-1" x1="81.75" y1="114.05" x2="81.75" y2="115.63"/>
  <line class="cls-1" x1="165.63" y1="114.05" x2="165.63" y2="115.63"/>
  <g>
    <line class="cls-2" x1="102.66" y1="114.05" x2="102.66" y2="113.05"/>
    <line class="cls-8" x1="102.66" y1="112.03" x2="102.66" y2="75.88"/>
    <line class="cls-2" x1="102.66" y1="75.37" x2="102.66" y2="74.37"/>
  </g>
  <line class="cls-7" x1="75.49" y1="79.07" x2="80.95" y2="79.07"/>
  <rect class="cls-11" x="76.17" y="77.02" width="4.09" height="4.09" rx="1.42" ry="1.42"/>
  <line class="cls-7" x1="82.52" y1="86.94" x2="87.98" y2="86.94"/>
  <rect class="cls-11" x="83.21" y="84.9" width="4.09" height="4.09" rx="1.42" ry="1.42"/>
  <line class="cls-7" x1="77.26" y1="94.96" x2="82.72" y2="94.96"/>
  <rect class="cls-11" x="77.95" y="92.91" width="4.09" height="4.09" rx="1.42" ry="1.42"/>
  <line class="cls-7" x1="90.9" y1="102.97" x2="96.79" y2="102.97"/>
  <rect class="cls-11" x="91.8" y="100.93" width="4.09" height="4.09" rx="1.42" ry="1.42"/>
  <line class="cls-5" x1="151" y1="110.93" x2="164.28" y2="111.03"/>
  <rect class="cls-12" x="155.6" y="108.94" width="4.09" height="4.09" rx="1.42" ry="1.42"/>
  <text class="cls-19" transform="translate(15.19 25.82)"><tspan class="cls-9" x="0" y="0">T</tspan><tspan class="cls-20" x="2.58" y="0">otal (≥1 language)</tspan></text>
  <text class="cls-15" transform="translate(7.71 33.83)"><tspan x="0" y="0">3 additional languages</tspan></text>
  <text class="cls-15" transform="translate(7.71 41.85)"><tspan x="0" y="0">2 additional languages</tspan></text>
  <text class="cls-15" transform="translate(10.29 49.86)"><tspan x="0" y="0">1 additional language</tspan></text>
  <text class="cls-17" transform="translate(22.46 57.88) scale(1.01 1)"><tspan x="0" y="0">Monolingualism</tspan></text>
  <g>
    <line class="cls-1" x1="60.63" y1="24.68" x2="59.26" y2="24.68"/>
    <line class="cls-1" x1="60.63" y1="32.55" x2="59.26" y2="32.55"/>
    <line class="cls-1" x1="60.63" y1="40.57" x2="59.26" y2="40.57"/>
    <line class="cls-1" x1="60.63" y1="48.58" x2="59.26" y2="48.58"/>
    <line class="cls-1" x1="60.63" y1="56.59" x2="59.26" y2="56.59"/>
  </g>
  <g>
    <line class="cls-2" x1="102.64" y1="64.76" x2="102.64" y2="63.76"/>
    <line class="cls-4" x1="102.64" y1="62.74" x2="102.64" y2="20.43"/>
    <line class="cls-2" x1="102.64" y1="19.92" x2="102.64" y2="18.92"/>
  </g>
  <line class="cls-7" x1="77.77" y1="24.68" x2="83.24" y2="24.68"/>
  <rect class="cls-11" x="78.46" y="22.63" width="4.09" height="4.09" rx="1.42" ry="1.42"/>
  <line class="cls-7" x1="85.54" y1="32.55" x2="91" y2="32.55"/>
  <rect class="cls-11" x="86.23" y="30.51" width="4.09" height="4.09" rx="1.42" ry="1.42"/>
  <line class="cls-7" x1="80.77" y1="40.57" x2="86.23" y2="40.57"/>
  <rect class="cls-11" x="81.45" y="38.52" width="4.09" height="4.09" rx="1.42" ry="1.42"/>
  <line class="cls-7" x1="88.71" y1="48.58" x2="94.59" y2="48.58"/>
  <rect class="cls-11" x="89.61" y="46.54" width="4.09" height="4.09" rx="1.42" ry="1.42"/>
  <line class="cls-5" x1="145.32" y1="56.59" x2="157.38" y2="56.59"/>
  <rect class="cls-12" x="149.31" y="54.55" width="4.09" height="4.09" rx="1.42" ry="1.42"/>
  <text class="cls-19" transform="translate(150.47 17.78)"><tspan x="0" y="0">GD</tspan><tspan class="cls-14" x="8.6" y="0">P</tspan></text>
  <text class="cls-19" transform="translate(61.79 17.78)"><tspan x="0" y="0">Removing Slovakia</tspan></text>
  <text class="cls-19" transform="translate(62.21 73.23)"><tspan x="0" y="0">Including Slovakia</tspan></text>
  <line class="cls-7" x1="86.72" y1="158.04" x2="92.18" y2="158.04"/>
  <rect class="cls-11" x="87.41" y="156" width="4.09" height="4.09" rx="1.42" ry="1.42"/>
  <line class="cls-7" x1="85.54" y1="165.92" x2="91" y2="165.92"/>
  <rect class="cls-11" x="86.23" y="163.88" width="4.09" height="4.09" rx="1.42" ry="1.42"/>
  <line class="cls-7" x1="89.99" y1="173.93" x2="95.45" y2="173.93"/>
  <rect class="cls-11" x="90.68" y="171.89" width="4.09" height="4.09" rx="1.42" ry="1.42"/>
  <line class="cls-7" x1="96.13" y1="181.95" x2="102.01" y2="181.95"/>
  <rect class="cls-11" x="97.03" y="179.9" width="4.09" height="4.09" rx="1.42" ry="1.42"/>
  <line class="cls-5" x1="118.9" y1="189.96" x2="124.99" y2="189.96"/>
  <rect class="cls-12" x="119.9" y="187.92" width="4.09" height="4.09" rx="1.42" ry="1.42"/>
  <line class="cls-6" x1="165.63" y1="64.76" x2="60.63" y2="64.76"/>
  <rect class="cls-3" x="60.63" y="12.73" width="104.88" height="101.31"/>
  <text class="cls-19" transform="translate(183.62 80.21)"><tspan class="cls-9" x="0" y="0">T</tspan><tspan class="cls-20" x="2.58" y="0">otal (≥1 language)</tspan></text>
  <text class="cls-15" transform="translate(176.15 88.22)"><tspan x="0" y="0">3 additional languages</tspan></text>
  <text class="cls-15" transform="translate(176.15 96.24)"><tspan x="0" y="0">2 additional languages</tspan></text>
  <text class="cls-15" transform="translate(178.73 104.25)"><tspan x="0" y="0">1 additional language</tspan></text>
  <text class="cls-17" transform="translate(190.9 112.27) scale(1.01 1)"><tspan x="0" y="0">Monolingualism</tspan></text>
  <g>
    <line class="cls-1" x1="229.07" y1="79.07" x2="227.7" y2="79.07"/>
    <line class="cls-1" x1="229.07" y1="86.94" x2="227.7" y2="86.94"/>
    <line class="cls-1" x1="229.07" y1="94.96" x2="227.7" y2="94.96"/>
    <line class="cls-1" x1="229.07" y1="102.97" x2="227.7" y2="102.97"/>
    <line class="cls-1" x1="229.07" y1="110.98" x2="227.7" y2="110.98"/>
  </g>
  <text class="cls-19" transform="translate(267.12 119.78)"><tspan x="0" y="0">1.0</tspan></text>
  <text class="cls-19" transform="translate(330.09 119.78)"><tspan x="0" y="0">2.5</tspan></text>
  <text class="cls-19" transform="translate(227.47 119.84)"><tspan x="0" y="0">0</tspan></text>
  <line class="cls-1" x1="229.07" y1="114.05" x2="229.07" y2="115.63"/>
  <line class="cls-1" x1="271.06" y1="114.05" x2="271.06" y2="115.63"/>
  <text class="cls-19" transform="translate(287.66 119.78)"><tspan x="0" y="0">1.5</tspan></text>
  <line class="cls-1" x1="291.61" y1="114.05" x2="291.61" y2="115.63"/>
  <text class="cls-19" transform="translate(308.79 119.78)"><tspan x="0" y="0">2.0</tspan></text>
  <line class="cls-1" x1="312.73" y1="114.05" x2="312.73" y2="115.63"/>
  <text class="cls-19" transform="translate(246.25 119.78)"><tspan x="0" y="0">0.5</tspan></text>
  <line class="cls-1" x1="250.19" y1="114.05" x2="250.19" y2="115.63"/>
  <line class="cls-1" x1="334.07" y1="114.05" x2="334.07" y2="115.63"/>
  <g>
    <line class="cls-2" x1="271.1" y1="114.05" x2="271.1" y2="113.05"/>
    <line class="cls-8" x1="271.1" y1="112.03" x2="271.1" y2="75.88"/>
    <line class="cls-2" x1="271.1" y1="75.37" x2="271.1" y2="74.37"/>
  </g>
  <line class="cls-7" x1="248.39" y1="79.07" x2="253.85" y2="79.07"/>
  <rect class="cls-11" x="249.08" y="77.02" width="4.09" height="4.09" rx="1.42" ry="1.42"/>
  <line class="cls-7" x1="264.13" y1="86.94" x2="271.59" y2="86.94"/>
  <rect class="cls-13" x="265.82" y="84.9" width="4.09" height="4.09" rx="1.42" ry="1.42"/>
  <line class="cls-7" x1="249.6" y1="94.96" x2="255.06" y2="94.96"/>
  <rect class="cls-11" x="250.29" y="92.91" width="4.09" height="4.09" rx="1.42" ry="1.42"/>
  <line class="cls-7" x1="253.45" y1="102.97" x2="259.33" y2="102.97"/>
  <rect class="cls-11" x="254.35" y="100.93" width="4.09" height="4.09" rx="1.42" ry="1.42"/>
  <line class="cls-5" x1="304.13" y1="110.98" x2="316.19" y2="110.98"/>
  <rect class="cls-12" x="308.11" y="108.94" width="4.09" height="4.09" rx="1.42" ry="1.42"/>
  <text class="cls-19" transform="translate(183.62 25.82)"><tspan class="cls-9" x="0" y="0">T</tspan><tspan class="cls-20" x="2.58" y="0">otal (≥1 language)</tspan></text>
  <text class="cls-15" transform="translate(176.15 33.83)"><tspan x="0" y="0">3 additional languages</tspan></text>
  <text class="cls-15" transform="translate(176.15 41.85)"><tspan x="0" y="0">2 additional languages</tspan></text>
  <text class="cls-15" transform="translate(178.73 49.86)"><tspan x="0" y="0">1 additional language</tspan></text>
  <text class="cls-17" transform="translate(190.9 57.88) scale(1.01 1)"><tspan x="0" y="0">Monolingualism</tspan></text>
  <g>
    <line class="cls-1" x1="229.07" y1="24.68" x2="227.7" y2="24.68"/>
    <line class="cls-1" x1="229.07" y1="32.55" x2="227.7" y2="32.55"/>
    <line class="cls-1" x1="229.07" y1="40.57" x2="227.7" y2="40.57"/>
    <line class="cls-1" x1="229.07" y1="48.58" x2="227.7" y2="48.58"/>
    <line class="cls-1" x1="229.07" y1="56.59" x2="227.7" y2="56.59"/>
  </g>
  <line class="cls-7" x1="251.04" y1="24.68" x2="256.5" y2="24.68"/>
  <rect class="cls-11" x="251.73" y="22.63" width="4.09" height="4.09" rx="1.42" ry="1.42"/>
  <line class="cls-12" x1="272.25" y1="32.55" x2="280.16" y2="32.55"/>
  <rect class="cls-12" x="274.16" y="30.51" width="4.09" height="4.09" rx="1.42" ry="1.42"/>
  <line class="cls-7" x1="252.72" y1="40.57" x2="258.19" y2="40.57"/>
  <rect class="cls-11" x="253.41" y="38.52" width="4.09" height="4.09" rx="1.42" ry="1.42"/>
  <line class="cls-7" x1="249.57" y1="48.58" x2="255.46" y2="48.58"/>
  <rect class="cls-11" x="250.47" y="46.54" width="4.09" height="4.09" rx="1.42" ry="1.42"/>
  <line class="cls-5" x1="295.3" y1="56.59" x2="306.07" y2="56.59"/>
  <rect class="cls-12" x="298.64" y="54.55" width="4.09" height="4.09" rx="1.42" ry="1.42"/>
  <text class="cls-19" transform="translate(292.15 17.78)"><tspan x="0" y="0">GD</tspan><tspan class="cls-21" x="8.6" y="0">P</tspan><tspan class="cls-22" x="12.32" y="0" xml:space="preserve"> per capita</tspan></text>
  <text class="cls-19" transform="translate(230.23 17.78)"><tspan x="0" y="0">Removing Slovakia</tspan></text>
  <text class="cls-19" transform="translate(230.65 73.23)"><tspan x="0" y="0">Including Slovakia</tspan></text>
  <line class="cls-6" x1="334.07" y1="64.76" x2="229.07" y2="64.76"/>
  <rect class="cls-3" x="229.07" y="12.73" width="104.88" height="101.31"/>
  <text class="cls-16" transform="translate(306.65 57.88)"><tspan x="0" y="0">1.71 [1.59-1.83]</tspan></text>
  <text class="cls-16" transform="translate(107.92 57.88)"><tspan x="0" y="0">2.16 [2.03-2.30]</tspan></text>
  <text class="cls-16" transform="translate(114.06 111.71)"><tspan x="0" y="0">2.32 [2.18-2.48]</tspan></text>
  <g>
    <rect class="cls-10" x="256.22" y="46.54" width="22.99" height="4.09"/>
    <text class="cls-16" transform="translate(256.09 49.66)"><tspan x="0" y="0">0.56 [0.52-0.61]</tspan></text>
  </g>
  <g>
    <rect class="cls-10" x="96.43" y="46.54" width="22.99" height="4.09"/>
    <text class="cls-16" transform="translate(96.3 49.66)"><tspan x="0" y="0">0.74 [0.68-0.80]</tspan></text>
  </g>
  <g>
    <rect class="cls-10" x="98.13" y="100.93" width="22.99" height="4.09"/>
    <text class="cls-16" transform="translate(98 104.05)"><tspan x="0" y="0">0.80 [0.74-0.87]</tspan></text>
  </g>
  <g>
    <rect class="cls-10" x="83.34" y="92.91" width="22.99" height="4.09"/>
    <text class="cls-16" transform="translate(83.21 96.04)"><tspan x="0" y="0">0.47 [0.43-0.50]</tspan></text>
  </g>
  <g>
    <rect class="cls-10" x="88.63" y="84.9" width="22.99" height="4.09"/>
    <text class="cls-16" transform="translate(88.5 88.03)"><tspan x="0" y="0">0.60 [0.55-0.64]</tspan></text>
  </g>
  <g>
    <rect class="cls-10" x="81.43" y="77.02" width="22.99" height="4.09"/>
    <text class="cls-16" transform="translate(81.3 80.15)"><tspan x="0" y="0">0.43 [0.40-0.46]</tspan></text>
  </g>
  <g>
    <rect class="cls-10" x="258.85" y="38.52" width="22.99" height="4.09"/>
    <text class="cls-16" transform="translate(258.72 42.05)"><tspan x="0" y="0">0.63 [0.59-0.68]</tspan></text>
  </g>
  <text class="cls-16" transform="translate(280.72 33.5)"><tspan x="0" y="0">1.12 [1.03-1.22]</tspan></text>
  <g>
    <rect class="cls-10" x="256.71" y="22.17" width="22.99" height="4.09"/>
    <text class="cls-16" transform="translate(256.7 25.82)"><tspan x="0" y="0">0.59 [0.55-0.63]</tspan></text>
  </g>
  <text class="cls-16" transform="translate(267.3 112.51)"><tspan x="0" y="0">1.92 [1.79-2.05]</tspan></text>
  <g>
    <rect class="cls-10" x="261.31" y="101.17" width="22.99" height="4.09"/>
    <text class="cls-16" transform="translate(261.18 104.3)"><tspan x="0" y="0">0.64 [0.59-0.69]</tspan></text>
  </g>
  <g>
    <rect class="cls-10" x="255.97" y="92.64" width="22.99" height="4.09"/>
    <text class="cls-16" transform="translate(255.84 96.17)"><tspan x="0" y="0">0.55 [0.51-0.59]</tspan></text>
  </g>
  <text class="cls-16" transform="translate(274.07 88.13)"><tspan x="0" y="0">0.92 [0.84-1.00]</tspan></text>
  <g>
    <rect class="cls-10" x="254.89" y="76.67" width="22.99" height="4.09"/>
    <text class="cls-16" transform="translate(254.88 80.31)"><tspan x="0" y="0">0.52 [0.49-0.63]</tspan></text>
  </g>
  <g>
    <rect class="cls-10" x="87.69" y="38.52" width="22.99" height="4.09"/>
    <text class="cls-16" transform="translate(87.56 42.05)"><tspan x="0" y="0">0.53[0.50-0.58]</tspan></text>
  </g>
  <g>
    <rect class="cls-10" x="92.67" y="30.58" width="22.99" height="4.09"/>
    <text class="cls-16" transform="translate(92.54 34.1)"><tspan x="0" y="0">0.65 [0.60-0.70]</tspan></text>
  </g>
  <g>
    <rect class="cls-10" x="85.55" y="22.17" width="22.99" height="4.09"/>
    <text class="cls-16" transform="translate(85.54 25.82)"><tspan x="0" y="0">0.46 [0.43-0.49]</tspan></text>
  </g>
  <g>
    <line class="cls-2" x1="271.08" y1="198.19" x2="271.08" y2="197.19"/>
    <line class="cls-4" x1="271.08" y1="196.17" x2="271.08" y2="153.86"/>
    <line class="cls-2" x1="271.08" y1="153.35" x2="271.08" y2="152.35"/>
  </g>
  <text class="cls-18" transform="translate(.01 139.33)"><tspan x="0" y="0" xml:space="preserve">B.   Longitudinal epidemeological analysis</tspan></text>
  <text class="cls-19" transform="translate(15.19 213.64)"><tspan class="cls-9" x="0" y="0">T</tspan><tspan class="cls-20" x="2.58" y="0">otal (≥1 language)</tspan></text>
  <text class="cls-15" transform="translate(7.71 221.65)"><tspan x="0" y="0">3 additional languages</tspan></text>
  <text class="cls-15" transform="translate(7.71 229.67)"><tspan x="0" y="0">2 additional languages</tspan></text>
  <text class="cls-15" transform="translate(10.29 237.69)"><tspan x="0" y="0">1 additional language</tspan></text>
  <text class="cls-17" transform="translate(22.46 245.7) scale(1.01 1)"><tspan x="0" y="0">Monolingualism</tspan></text>
  <g>
    <line class="cls-1" x1="60.63" y1="212.5" x2="59.26" y2="212.5"/>
    <line class="cls-1" x1="60.63" y1="220.38" x2="59.26" y2="220.38"/>
    <line class="cls-1" x1="60.63" y1="228.39" x2="59.26" y2="228.39"/>
    <line class="cls-1" x1="60.63" y1="236.4" x2="59.26" y2="236.4"/>
    <line class="cls-1" x1="60.63" y1="244.42" x2="59.26" y2="244.42"/>
  </g>
  <text class="cls-19" transform="translate(98.68 253.21)"><tspan x="0" y="0">1.0</tspan></text>
  <text class="cls-19" transform="translate(106.55 261.98)"><tspan x="0" y="0">RR</tspan></text>
  <text class="cls-19" transform="translate(274.46 261.98)"><tspan x="0" y="0">RR</tspan></text>
  <text class="cls-19" transform="translate(161.65 253.21)"><tspan x="0" y="0">2.5</tspan></text>
  <text class="cls-19" transform="translate(59.03 253.27)"><tspan x="0" y="0">0</tspan></text>
  <line class="cls-1" x1="60.63" y1="247.48" x2="60.63" y2="249.06"/>
  <line class="cls-1" x1="102.62" y1="247.48" x2="102.62" y2="249.06"/>
  <text class="cls-19" transform="translate(119.22 253.21)"><tspan x="0" y="0">1.5</tspan></text>
  <line class="cls-1" x1="123.17" y1="247.48" x2="123.17" y2="249.06"/>
  <text class="cls-19" transform="translate(140.35 253.21)"><tspan x="0" y="0">2.0</tspan></text>
  <line class="cls-1" x1="144.29" y1="247.48" x2="144.29" y2="249.06"/>
  <text class="cls-19" transform="translate(77.81 253.21)"><tspan x="0" y="0">0.5</tspan></text>
  <line class="cls-1" x1="81.75" y1="247.48" x2="81.75" y2="249.06"/>
  <line class="cls-1" x1="165.63" y1="247.48" x2="165.63" y2="249.06"/>
  <g>
    <line class="cls-2" x1="102.66" y1="247.48" x2="102.66" y2="246.48"/>
    <line class="cls-8" x1="102.66" y1="245.46" x2="102.66" y2="209.31"/>
    <line class="cls-2" x1="102.66" y1="208.8" x2="102.66" y2="207.8"/>
  </g>
  <line class="cls-7" x1="85.93" y1="212.5" x2="91.39" y2="212.5"/>
  <rect class="cls-11" x="86.62" y="210.45" width="4.09" height="4.09" rx="1.42" ry="1.42"/>
  <line class="cls-7" x1="84.42" y1="220.38" x2="89.88" y2="220.38"/>
  <rect class="cls-11" x="85.11" y="218.33" width="4.09" height="4.09" rx="1.42" ry="1.42"/>
  <line class="cls-7" x1="89.44" y1="228.39" x2="94.91" y2="228.39"/>
  <rect class="cls-11" x="90.13" y="226.35" width="4.09" height="4.09" rx="1.42" ry="1.42"/>
  <line class="cls-7" x1="96.85" y1="236.4" x2="102.74" y2="236.4"/>
  <rect class="cls-11" x="97.75" y="234.36" width="4.09" height="4.09" rx="1.42" ry="1.42"/>
  <line class="cls-5" x1="126.19" y1="244.44" x2="120.22" y2="244.4"/>
  <rect class="cls-12" x="121.16" y="242.37" width="4.09" height="4.09" rx="1.42" ry="1.42"/>
  <text class="cls-19" transform="translate(15.19 159.25)"><tspan class="cls-9" x="0" y="0">T</tspan><tspan class="cls-20" x="2.58" y="0">otal (≥1 language)</tspan></text>
  <text class="cls-15" transform="translate(7.71 167.26)"><tspan x="0" y="0">3 additional languages</tspan></text>
  <text class="cls-15" transform="translate(7.71 175.28)"><tspan x="0" y="0">2 additional languages</tspan></text>
  <text class="cls-15" transform="translate(10.29 183.29)"><tspan x="0" y="0">1 additional language</tspan></text>
  <text class="cls-17" transform="translate(22.46 191.31) scale(1.01 1)"><tspan x="0" y="0">Monolingualism</tspan></text>
  <g>
    <line class="cls-1" x1="60.63" y1="158.11" x2="59.26" y2="158.11"/>
    <line class="cls-1" x1="60.63" y1="165.99" x2="59.26" y2="165.99"/>
    <line class="cls-1" x1="60.63" y1="174" x2="59.26" y2="174"/>
    <line class="cls-1" x1="60.63" y1="182.01" x2="59.26" y2="182.01"/>
    <line class="cls-1" x1="60.63" y1="190.03" x2="59.26" y2="190.03"/>
  </g>
  <g>
    <line class="cls-2" x1="102.64" y1="198.19" x2="102.64" y2="197.19"/>
    <line class="cls-4" x1="102.64" y1="196.17" x2="102.64" y2="153.86"/>
    <line class="cls-2" x1="102.64" y1="153.35" x2="102.64" y2="152.35"/>
  </g>
  <text class="cls-19" transform="translate(150.47 151.22)"><tspan x="0" y="0">GD</tspan><tspan class="cls-14" x="8.6" y="0">P</tspan></text>
  <text class="cls-19" transform="translate(61.79 151.22)"><tspan x="0" y="0">Removing Slovakia</tspan></text>
  <text class="cls-19" transform="translate(62.21 206.66)"><tspan x="0" y="0">Including Slovakia</tspan></text>
  <line class="cls-6" x1="165.63" y1="198.19" x2="60.63" y2="198.19"/>
  <rect class="cls-3" x="60.63" y="146.17" width="104.88" height="101.31"/>
  <text class="cls-19" transform="translate(183.62 213.64)"><tspan class="cls-9" x="0" y="0">T</tspan><tspan class="cls-20" x="2.58" y="0">otal (≥1 language)</tspan></text>
  <text class="cls-15" transform="translate(176.15 221.65)"><tspan x="0" y="0">3 additional languages</tspan></text>
  <text class="cls-15" transform="translate(176.15 229.67)"><tspan x="0" y="0">2 additional languages</tspan></text>
  <text class="cls-15" transform="translate(178.73 237.69)"><tspan x="0" y="0">1 additional language</tspan></text>
  <text class="cls-17" transform="translate(190.9 245.7) scale(1.01 1)"><tspan x="0" y="0">Monolingualism</tspan></text>
  <g>
    <line class="cls-1" x1="229.07" y1="212.5" x2="227.7" y2="212.5"/>
    <line class="cls-1" x1="229.07" y1="220.38" x2="227.7" y2="220.38"/>
    <line class="cls-1" x1="229.07" y1="228.39" x2="227.7" y2="228.39"/>
    <line class="cls-1" x1="229.07" y1="236.4" x2="227.7" y2="236.4"/>
    <line class="cls-1" x1="229.07" y1="244.42" x2="227.7" y2="244.42"/>
  </g>
  <text class="cls-19" transform="translate(267.12 253.21)"><tspan x="0" y="0">1.0</tspan></text>
  <text class="cls-19" transform="translate(330.09 253.21)"><tspan x="0" y="0">2.5</tspan></text>
  <text class="cls-19" transform="translate(227.47 253.27)"><tspan x="0" y="0">0</tspan></text>
  <line class="cls-1" x1="229.07" y1="247.48" x2="229.07" y2="249.06"/>
  <line class="cls-1" x1="271.06" y1="247.48" x2="271.06" y2="249.06"/>
  <text class="cls-19" transform="translate(287.66 253.21)"><tspan x="0" y="0">1.5</tspan></text>
  <line class="cls-1" x1="291.61" y1="247.48" x2="291.61" y2="249.06"/>
  <text class="cls-19" transform="translate(308.79 253.21)"><tspan x="0" y="0">2.0</tspan></text>
  <line class="cls-1" x1="312.73" y1="247.48" x2="312.73" y2="249.06"/>
  <text class="cls-19" transform="translate(246.25 253.21)"><tspan x="0" y="0">0.5</tspan></text>
  <line class="cls-1" x1="250.19" y1="247.48" x2="250.19" y2="249.06"/>
  <line class="cls-1" x1="334.07" y1="247.48" x2="334.07" y2="249.06"/>
  <g>
    <line class="cls-2" x1="271.1" y1="247.48" x2="271.1" y2="246.48"/>
    <line class="cls-8" x1="271.1" y1="245.46" x2="271.1" y2="209.31"/>
    <line class="cls-2" x1="271.1" y1="208.8" x2="271.1" y2="207.8"/>
  </g>
  <line class="cls-7" x1="259.73" y1="212.5" x2="265.2" y2="212.5"/>
  <rect class="cls-11" x="260.42" y="210.45" width="4.09" height="4.09" rx="1.42" ry="1.42"/>
  <line class="cls-7" x1="262.85" y1="220.38" x2="268.79" y2="220.38"/>
  <rect class="cls-11" x="263.77" y="218.33" width="4.09" height="4.09" rx="1.42" ry="1.42"/>
  <line class="cls-7" x1="260.58" y1="228.39" x2="266.04" y2="228.39"/>
  <rect class="cls-11" x="261.27" y="226.35" width="4.09" height="4.09" rx="1.42" ry="1.42"/>
  <line class="cls-7" x1="263.44" y1="236.4" x2="269.33" y2="236.4"/>
  <rect class="cls-11" x="264.34" y="234.36" width="4.09" height="4.09" rx="1.42" ry="1.42"/>
  <line class="cls-5" x1="279.82" y1="244.42" x2="285.13" y2="244.42"/>
  <rect class="cls-12" x="280.43" y="242.37" width="4.09" height="4.09" rx="1.42" ry="1.42"/>
  <text class="cls-19" transform="translate(183.62 159.25)"><tspan class="cls-9" x="0" y="0">T</tspan><tspan class="cls-20" x="2.58" y="0">otal (≥1 language)</tspan></text>
  <text class="cls-15" transform="translate(176.15 167.26)"><tspan x="0" y="0">3 additional languages</tspan></text>
  <text class="cls-15" transform="translate(176.15 175.28)"><tspan x="0" y="0">2 additional languages</tspan></text>
  <text class="cls-15" transform="translate(178.73 183.29)"><tspan x="0" y="0">1 additional language</tspan></text>
  <text class="cls-17" transform="translate(190.9 191.31) scale(1.01 1)"><tspan x="0" y="0">Monolingualism</tspan></text>
  <g>
    <line class="cls-1" x1="229.07" y1="158.11" x2="227.7" y2="158.11"/>
    <line class="cls-1" x1="229.07" y1="165.99" x2="227.7" y2="165.99"/>
    <line class="cls-1" x1="229.07" y1="174" x2="227.7" y2="174"/>
    <line class="cls-1" x1="229.07" y1="182.01" x2="227.7" y2="182.01"/>
    <line class="cls-1" x1="229.07" y1="190.03" x2="227.7" y2="190.03"/>
  </g>
  <line class="cls-7" x1="261.57" y1="158.11" x2="267.03" y2="158.11"/>
  <rect class="cls-11" x="262.25" y="156.06" width="4.09" height="4.09" rx="1.42" ry="1.42"/>
  <line class="cls-11" x1="268.49" y1="165.99" x2="274.29" y2="165.99"/>
  <rect class="cls-13" x="269.35" y="163.94" width="4.09" height="4.09" rx="1.42" ry="1.42"/>
  <line class="cls-7" x1="262" y1="174" x2="267.46" y2="174"/>
  <rect class="cls-11" x="262.68" y="171.96" width="4.09" height="4.09" rx="1.42" ry="1.42"/>
  <line class="cls-7" x1="260.89" y1="182.01" x2="266.28" y2="182.01"/>
  <rect class="cls-11" x="261.54" y="179.97" width="4.09" height="4.09" rx="1.42" ry="1.42"/>
  <line class="cls-5" x1="275.97" y1="190.03" x2="281.23" y2="190.03"/>
  <rect class="cls-12" x="276.56" y="187.98" width="4.09" height="4.09" rx="1.42" ry="1.42"/>
  <text class="cls-19" transform="translate(292.15 151.22)"><tspan x="0" y="0">GD</tspan><tspan class="cls-21" x="8.6" y="0">P</tspan><tspan class="cls-22" x="12.32" y="0" xml:space="preserve"> per capita</tspan></text>
  <text class="cls-19" transform="translate(230.23 151.22)"><tspan x="0" y="0">Removing Slovakia</tspan></text>
  <text class="cls-19" transform="translate(230.65 206.66)"><tspan x="0" y="0">Including Slovakia</tspan></text>
  <line class="cls-6" x1="334.07" y1="198.19" x2="229.07" y2="198.19"/>
  <rect class="cls-3" x="229.07" y="146.17" width="104.88" height="101.31"/>
  <text class="cls-16" transform="translate(283.04 191.31)"><tspan x="0" y="0">1.18 [1.14-1.23]</tspan></text>
  <text class="cls-16" transform="translate(126.61 191.31)"><tspan x="0" y="0">1.46 [1.41-1.51]</tspan></text>
  <text class="cls-16" transform="translate(128.06 245.15)"><tspan x="0" y="0">1.48 [1.43-1.53]</tspan></text>
  <g>
    <rect class="cls-10" x="267.3" y="179.97" width="22.99" height="4.09"/>
    <text class="cls-16" transform="translate(267.17 183.1)"><tspan x="0" y="0">0.83 [0.79-0.87]</tspan></text>
  </g>
  <g>
    <rect class="cls-10" x="104.23" y="179.97" width="22.99" height="4.09"/>
    <text class="cls-16" transform="translate(104.1 183.1)"><tspan x="0" y="0">0.91 [0.87-0.95]</tspan></text>
  </g>
  <g>
    <rect class="cls-10" x="103.68" y="234.36" width="22.99" height="4.09"/>
    <text class="cls-16" transform="translate(103.55 237.49)"><tspan x="0" y="0">0.93 [0.89-0.98]</tspan></text>
  </g>
  <g>
    <rect class="cls-10" x="95.52" y="226.35" width="22.99" height="4.09"/>
    <text class="cls-16" transform="translate(95.39 229.47)"><tspan x="0" y="0">0.75 [0.72-0.77]</tspan></text>
  </g>
  <g>
    <rect class="cls-10" x="90.53" y="218.33" width="22.99" height="4.09"/>
    <text class="cls-16" transform="translate(90.4 221.46)"><tspan x="0" y="0">0.63 [0.60-0.66]</tspan></text>
  </g>
  <g>
    <rect class="cls-10" x="91.87" y="210.45" width="22.99" height="4.09"/>
    <text class="cls-16" transform="translate(91.74 213.58)"><tspan x="0" y="0">0.67 [0.65-0.70]</tspan></text>
  </g>
  <g>
    <rect class="cls-10" x="268.13" y="171.96" width="22.99" height="4.09"/>
    <text class="cls-16" transform="translate(268 175.49)"><tspan x="0" y="0">0.85 [0.82-0.88]</tspan></text>
  </g>
  <text class="cls-16" transform="translate(275.91 166.93)"><tspan x="0" y="0">1.01 [0.95-1.07]</tspan></text>
  <g>
    <rect class="cls-10" x="268.13" y="155.61" width="22.99" height="4.09"/>
    <text class="cls-16" transform="translate(268.12 159.25)"><tspan x="0" y="0">0.84 [0.81-0.87]</tspan></text>
  </g>
  <text class="cls-16" transform="translate(285.31 245.7)"><tspan x="0" y="0">1.26 [1.22-1.31]</tspan></text>
  <g>
    <rect class="cls-10" x="271.05" y="234.6" width="22.99" height="4.09"/>
    <text class="cls-16" transform="translate(270.92 237.73)"><tspan x="0" y="0">0.88 [0.84-0.92]</tspan></text>
  </g>
  <g>
    <rect class="cls-10" x="267.89" y="226.07" width="22.99" height="4.09"/>
    <text class="cls-16" transform="translate(267.76 229.6)"><tspan x="0" y="0">0.81 [0.78-0.84]</tspan></text>
  </g>
  <text class="cls-16" transform="translate(274.07 221.57)"><tspan x="0" y="0">0.87 [0.82-0.92]</tspan></text>
  <g>
    <rect class="cls-10" x="269.56" y="210.11" width="22.99" height="4.09"/>
    <text class="cls-16" transform="translate(269.55 213.75)"><tspan x="0" y="0">0.79 [0.76-0.82]</tspan></text>
  </g>
  <g>
    <rect class="cls-10" x="96.43" y="171.86" width="22.99" height="4.09"/>
    <text class="cls-16" transform="translate(96.3 175.39)"><tspan x="0" y="0">0.76[0.73-0.79]</tspan></text>
  </g>
  <g>
    <rect class="cls-10" x="92.67" y="163.72" width="22.99" height="4.09"/>
    <text class="cls-16" transform="translate(92.54 167.24)"><tspan x="0" y="0">0.66 [0.62-0.69]</tspan></text>
  </g>
  <g>
    <rect class="cls-10" x="93.02" y="155.61" width="22.99" height="4.09"/>
    <text class="cls-16" transform="translate(93.01 159.25)"><tspan x="0" y="0">0.69 [0.66-0.71]</tspan></text>
  </g>
</svg>