<?xml version="1.0" encoding="UTF-8"?>
<svg id="Capa_1" data-name="Capa 1" xmlns="http://www.w3.org/2000/svg" viewBox="0 0 401.89 190.7">
  <defs>
    <style>
      .cls-1 {
        stroke: #000;
        stroke-linejoin: round;
        stroke-width: .8px;
      }

      .cls-1, .cls-2, .cls-3, .cls-4, .cls-5, .cls-6, .cls-7, .cls-8 {
        fill: none;
      }

      .cls-9, .cls-10 {
        fill: #fff;
      }

      .cls-2 {
        stroke: #fff;
      }

      .cls-2, .cls-3, .cls-4, .cls-10, .cls-5, .cls-6, .cls-7, .cls-8 {
        stroke-miterlimit: 10;
      }

      .cls-3 {
        stroke-dasharray: 0 0 2.06 1.03;
      }

      .cls-3, .cls-4, .cls-6 {
        stroke: #e30613;
      }

      .cls-11 {
        letter-spacing: -.05em;
      }

      .cls-11, .cls-12 {
        font-size: 12.74px;
      }

      .cls-11, .cls-12, .cls-13, .cls-14 {
        fill: #1d1d1b;
      }

      .cls-11, .cls-12, .cls-14 {
        font-family: ArialMT, Arial;
      }

      .cls-10, .cls-8 {
        stroke: #2c7546;
      }

      .cls-5 {
        stroke: #1d1d1b;
      }

      .cls-6 {
        stroke-dasharray: 0 0 2.02 1.01;
      }

      .cls-13 {
        font-family: MyriadPro-Regular, 'Myriad Pro';
        font-size: 9.1px;
      }

      .cls-7 {
        stroke: #dadada;
        stroke-width: 4px;
      }

      .cls-14 {
        font-size: 13.65px;
      }
    </style>
  </defs>
  <text class="cls-11" transform="translate(27.86 122.65)"><tspan x="0" y="0">Proficiency</tspan></text>
  <line class="cls-1" x1="87.77" y1="119.78" x2="84.31" y2="119.78"/>
  <text class="cls-12" transform="translate(185.01 157.18)"><tspan x="0" y="0">1.0</tspan></text>
  <text class="cls-12" transform="translate(193.6 179.32)"><tspan x="0" y="0">OR/RR</tspan></text>
  <text class="cls-12" transform="translate(343.97 157.18)"><tspan x="0" y="0">2.5</tspan></text>
  <text class="cls-12" transform="translate(84.22 157.34)"><tspan x="0" y="0">0</tspan></text>
  <line class="cls-1" x1="87.77" y1="142.71" x2="87.77" y2="146.71"/>
  <line class="cls-1" x1="193.78" y1="142.71" x2="193.78" y2="146.71"/>
  <text class="cls-12" transform="translate(236.88 157.18)"><tspan x="0" y="0">1.5</tspan></text>
  <line class="cls-1" x1="245.64" y1="142.71" x2="245.64" y2="146.71"/>
  <text class="cls-12" transform="translate(290.19 157.18)"><tspan x="0" y="0">2.0</tspan></text>
  <line class="cls-1" x1="298.96" y1="142.71" x2="298.96" y2="146.71"/>
  <text class="cls-12" transform="translate(132.34 157.18)"><tspan x="0" y="0">0.5</tspan></text>
  <line class="cls-1" x1="141.1" y1="142.71" x2="141.1" y2="146.71"/>
  <line class="cls-1" x1="352.83" y1="142.71" x2="352.83" y2="146.71"/>
  <g>
    <line class="cls-4" x1="193.87" y1="142.71" x2="193.87" y2="141.71"/>
    <line class="cls-6" x1="193.87" y1="140.7" x2="193.87" y2="101.74"/>
    <line class="cls-4" x1="193.87" y1="101.23" x2="193.87" y2="100.23"/>
  </g>
  <line class="cls-8" x1="160.96" y1="119.78" x2="174.75" y2="119.78"/>
  <rect class="cls-10" x="162.69" y="114.62" width="10.32" height="10.32" rx="1.42" ry="1.42"/>
  <text class="cls-11" transform="translate(27.86 56.92)"><tspan x="0" y="0">Proficiency</tspan></text>
  <line class="cls-1" x1="87.77" y1="54.04" x2="84.31" y2="54.04"/>
  <g>
    <line class="cls-4" x1="193.82" y1="79.61" x2="193.82" y2="78.61"/>
    <line class="cls-3" x1="193.82" y1="77.58" x2="193.82" y2="41.03"/>
    <line class="cls-4" x1="193.82" y1="40.51" x2="193.82" y2="39.51"/>
  </g>
  <line class="cls-8" x1="120.41" y1="54.04" x2="134.2" y2="54.04"/>
  <rect class="cls-10" x="122.15" y="48.88" width="10.32" height="10.32" rx="1.42" ry="1.42"/>
  <text class="cls-14" transform="translate(90.7 36.65)"><tspan x="0" y="0">Cross-Sectional</tspan></text>
  <text class="cls-14" transform="translate(91.77 97.37)"><tspan x="0" y="0">Longitudinal</tspan></text>
  <line class="cls-7" x1="352.83" y1="79.61" x2="87.77" y2="79.61"/>
  <rect class="cls-5" x="87.77" y="23.9" width="264.74" height="118.82"/>
  <g>
    <rect class="cls-9" x="179.31" y="114.62" width="58.04" height="10.32"/>
    <text class="cls-13" transform="translate(178.99 122.51)"><tspan x="0" y="0">0.76 [0.73-0.79]</tspan></text>
  </g>
  <g>
    <rect class="cls-9" x="138.11" y="47.73" width="58.04" height="10.32"/>
    <text class="cls-13" transform="translate(138.08 56.92)"><tspan x="0" y="0">0.37 [0.34-0.40]</tspan></text>
  </g>
  <rect class="cls-2" x=".5" y=".5" width="400.89" height="189.7"/>
</svg>