<?xml version="1.0" encoding="UTF-8"?>
<svg xmlns="http://www.w3.org/2000/svg" xmlns:xlink="http://www.w3.org/1999/xlink" viewBox="0 0 521.33 607">
  <defs>
    <style>
      .cls-1 {
        clip-path: url(#clippath-62);
      }

      .cls-2 {
        stroke-dasharray: 0 0 1.98 .99;
      }

      .cls-2, .cls-3, .cls-4, .cls-5, .cls-6, .cls-7, .cls-8, .cls-9 {
        fill: none;
      }

      .cls-2, .cls-4, .cls-5, .cls-8 {
        stroke-miterlimit: 10;
      }

      .cls-2, .cls-5 {
        stroke: #e30613;
      }

      .cls-3, .cls-6, .cls-7 {
        stroke-linejoin: round;
      }

      .cls-3, .cls-8 {
        stroke: #000;
        stroke-width: .8px;
      }

      .cls-10 {
        clip-path: url(#clippath-45);
      }

      .cls-11 {
        clip-path: url(#clippath-63);
      }

      .cls-12 {
        clip-path: url(#clippath-20);
      }

      .cls-13 {
        clip-path: url(#clippath-11);
      }

      .cls-14 {
        clip-path: url(#clippath-16);
      }

      .cls-15 {
        clip-path: url(#clippath-59);
      }

      .cls-16 {
        clip-path: url(#clippath-33);
      }

      .cls-17 {
        clip-path: url(#clippath-64);
      }

      .cls-18 {
        clip-path: url(#clippath-47);
      }

      .cls-19 {
        fill: #2078b5;
      }

      .cls-20 {
        clip-path: url(#clippath-41);
      }

      .cls-21 {
        clip-path: url(#clippath-32);
      }

      .cls-22 {
        font-size: 11.8px;
        letter-spacing: -.02em;
      }

      .cls-22, .cls-23, .cls-24, .cls-25, .cls-26, .cls-27, .cls-28, .cls-29, .cls-30, .cls-31, .cls-32 {
        fill: #1d1d1b;
        font-family: ArialMT, Arial;
      }

      .cls-23, .cls-33, .cls-34 {
        font-size: 9.18px;
      }

      .cls-35 {
        letter-spacing: -.16em;
      }

      .cls-4 {
        stroke: #fff;
      }

      .cls-24 {
        letter-spacing: -.05em;
      }

      .cls-24, .cls-25, .cls-27, .cls-28 {
        font-size: 10.49px;
      }

      .cls-36 {
        clip-path: url(#clippath-2);
      }

      .cls-37 {
        clip-path: url(#clippath-13);
      }

      .cls-38 {
        clip-path: url(#clippath-37);
      }

      .cls-39 {
        clip-path: url(#clippath-46);
      }

      .cls-40 {
        clip-path: url(#clippath-25);
      }

      .cls-41, .cls-27 {
        letter-spacing: -.05em;
      }

      .cls-42 {
        clip-path: url(#clippath-15);
      }

      .cls-43 {
        letter-spacing: -.02em;
      }

      .cls-44 {
        clip-path: url(#clippath-6);
      }

      .cls-6, .cls-7 {
        stroke: #2078b5;
        stroke-width: .75px;
      }

      .cls-6, .cls-8 {
        stroke-linecap: square;
      }

      .cls-45 {
        clip-path: url(#clippath-40);
      }

      .cls-46 {
        clip-path: url(#clippath-26);
      }

      .cls-33 {
        letter-spacing: -.05em;
      }

      .cls-47 {
        clip-path: url(#clippath-7);
      }

      .cls-34 {
        letter-spacing: -.05em;
      }

      .cls-48 {
        clip-path: url(#clippath-21);
      }

      .cls-25 {
        letter-spacing: -.05em;
      }

      .cls-49 {
        clip-path: url(#clippath-34);
      }

      .cls-50 {
        clip-path: url(#clippath-57);
      }

      .cls-51 {
        clip-path: url(#clippath-1);
      }

      .cls-52 {
        clip-path: url(#clippath-4);
      }

      .cls-53 {
        clip-path: url(#clippath-38);
      }

      .cls-54 {
        clip-path: url(#clippath-36);
      }

      .cls-55 {
        clip-path: url(#clippath-27);
      }

      .cls-56 {
        clip-path: url(#clippath-60);
      }

      .cls-57 {
        clip-path: url(#clippath-44);
      }

      .cls-58 {
        clip-path: url(#clippath-12);
      }

      .cls-26 {
        font-size: 9.06px;
      }

      .cls-59 {
        clip-path: url(#clippath-24);
      }

      .cls-60 {
        clip-path: url(#clippath-30);
      }

      .cls-61 {
        letter-spacing: 0em;
      }

      .cls-62 {
        clip-path: url(#clippath-22);
      }

      .cls-63 {
        clip-path: url(#clippath-9);
      }

      .cls-64 {
        clip-path: url(#clippath-52);
      }

      .cls-65 {
        clip-path: url(#clippath);
      }

      .cls-66 {
        clip-path: url(#clippath-50);
      }

      .cls-67 {
        clip-path: url(#clippath-48);
      }

      .cls-68 {
        clip-path: url(#clippath-61);
      }

      .cls-69 {
        clip-path: url(#clippath-39);
      }

      .cls-70 {
        letter-spacing: -.02em;
      }

      .cls-71 {
        clip-path: url(#clippath-19);
      }

      .cls-72 {
        clip-path: url(#clippath-31);
      }

      .cls-73 {
        clip-path: url(#clippath-54);
      }

      .cls-74 {
        clip-path: url(#clippath-3);
      }

      .cls-75 {
        clip-path: url(#clippath-43);
      }

      .cls-76, .cls-30 {
        font-size: 9.84px;
      }

      .cls-77 {
        clip-path: url(#clippath-8);
      }

      .cls-78 {
        clip-path: url(#clippath-55);
      }

      .cls-79 {
        clip-path: url(#clippath-29);
      }

      .cls-29 {
        font-size: 10.35px;
        letter-spacing: -.05em;
      }

      .cls-80 {
        clip-path: url(#clippath-18);
      }

      .cls-81 {
        clip-path: url(#clippath-14);
      }

      .cls-82 {
        clip-path: url(#clippath-17);
      }

      .cls-83 {
        clip-path: url(#clippath-5);
      }

      .cls-84 {
        clip-path: url(#clippath-58);
      }

      .cls-85 {
        clip-path: url(#clippath-42);
      }

      .cls-86 {
        clip-path: url(#clippath-65);
      }

      .cls-87 {
        clip-path: url(#clippath-10);
      }

      .cls-88 {
        clip-path: url(#clippath-23);
      }

      .cls-89 {
        clip-path: url(#clippath-56);
      }

      .cls-90 {
        clip-path: url(#clippath-53);
      }

      .cls-91 {
        clip-path: url(#clippath-49);
      }

      .cls-92 {
        clip-path: url(#clippath-51);
      }

      .cls-93 {
        clip-path: url(#clippath-28);
      }

      .cls-32 {
        font-size: 13.12px;
      }

      .cls-94 {
        clip-path: url(#clippath-35);
      }
    </style>
    <clipPath id="clippath">
      <rect class="cls-9" x="59.11" y="61.3" width="8.81" height="7.69"/>
    </clipPath>
    <clipPath id="clippath-1">
      <rect class="cls-9" x="72.68" y="61.34" width="8.81" height="7.69"/>
    </clipPath>
    <clipPath id="clippath-2">
      <rect class="cls-9" x="86.26" y="60.93" width="8.81" height="7.69"/>
    </clipPath>
    <clipPath id="clippath-3">
      <rect class="cls-9" x="99.84" y="60.92" width="8.81" height="7.69"/>
    </clipPath>
    <clipPath id="clippath-4">
      <rect class="cls-9" x="113.41" y="61.04" width="8.81" height="7.69"/>
    </clipPath>
    <clipPath id="clippath-5">
      <rect class="cls-9" x="126.99" y="61.4" width="8.81" height="7.69"/>
    </clipPath>
    <clipPath id="clippath-6">
      <rect class="cls-9" x="140.57" y="62.87" width="8.81" height="7.69"/>
    </clipPath>
    <clipPath id="clippath-7">
      <rect class="cls-9" x="154.14" y="63.56" width="8.81" height="7.69"/>
    </clipPath>
    <clipPath id="clippath-8">
      <rect class="cls-9" x="167.72" y="61.83" width="8.81" height="7.69"/>
    </clipPath>
    <clipPath id="clippath-9">
      <rect class="cls-9" x="181.29" y="60.02" width="8.81" height="7.69"/>
    </clipPath>
    <clipPath id="clippath-10">
      <rect class="cls-9" x="194.87" y="64.72" width="8.81" height="7.69"/>
    </clipPath>
    <clipPath id="clippath-11">
      <rect class="cls-9" x="208.45" y="68.79" width="8.81" height="7.69"/>
    </clipPath>
    <clipPath id="clippath-12">
      <rect class="cls-9" x="222.02" y="70.41" width="8.81" height="7.69"/>
    </clipPath>
    <clipPath id="clippath-13">
      <rect class="cls-9" x="320.17" y="72.28" width="8.81" height="7.69"/>
    </clipPath>
    <clipPath id="clippath-14">
      <rect class="cls-9" x="333.75" y="72.26" width="8.81" height="7.69"/>
    </clipPath>
    <clipPath id="clippath-15">
      <rect class="cls-9" x="347.32" y="72.29" width="8.81" height="7.69"/>
    </clipPath>
    <clipPath id="clippath-16">
      <rect class="cls-9" x="360.9" y="72.2" width="8.81" height="7.69"/>
    </clipPath>
    <clipPath id="clippath-17">
      <rect class="cls-9" x="374.48" y="71.93" width="8.81" height="7.69"/>
    </clipPath>
    <clipPath id="clippath-18">
      <rect class="cls-9" x="388.05" y="71.89" width="8.81" height="7.69"/>
    </clipPath>
    <clipPath id="clippath-19">
      <rect class="cls-9" x="401.63" y="71.79" width="8.81" height="7.69"/>
    </clipPath>
    <clipPath id="clippath-20">
      <rect class="cls-9" x="415.2" y="71.6" width="8.81" height="7.69"/>
    </clipPath>
    <clipPath id="clippath-21">
      <rect class="cls-9" x="428.78" y="72.18" width="8.81" height="7.69"/>
    </clipPath>
    <clipPath id="clippath-22">
      <rect class="cls-9" x="442.36" y="72.42" width="8.81" height="7.69"/>
    </clipPath>
    <clipPath id="clippath-23">
      <rect class="cls-9" x="455.93" y="72.51" width="8.81" height="7.69"/>
    </clipPath>
    <clipPath id="clippath-24">
      <rect class="cls-9" x="469.51" y="73.09" width="8.81" height="7.69"/>
    </clipPath>
    <clipPath id="clippath-25">
      <rect class="cls-9" x="483.09" y="72.11" width="8.81" height="7.69"/>
    </clipPath>
    <clipPath id="clippath-26">
      <rect class="cls-9" x="54.91" y="225.1" width="179.21" height="54.9"/>
    </clipPath>
    <clipPath id="clippath-27">
      <rect class="cls-9" x="58.65" y="258.53" width="8.81" height="7.69"/>
    </clipPath>
    <clipPath id="clippath-28">
      <rect class="cls-9" x="72.23" y="258.49" width="8.81" height="7.69"/>
    </clipPath>
    <clipPath id="clippath-29">
      <rect class="cls-9" x="85.81" y="258.43" width="8.81" height="7.69"/>
    </clipPath>
    <clipPath id="clippath-30">
      <rect class="cls-9" x="99.38" y="258.37" width="8.81" height="7.69"/>
    </clipPath>
    <clipPath id="clippath-31">
      <rect class="cls-9" x="112.96" y="258.57" width="8.81" height="7.69"/>
    </clipPath>
    <clipPath id="clippath-32">
      <rect class="cls-9" x="126.54" y="258.87" width="8.81" height="7.69"/>
    </clipPath>
    <clipPath id="clippath-33">
      <rect class="cls-9" x="140.11" y="258.29" width="8.81" height="7.69"/>
    </clipPath>
    <clipPath id="clippath-34">
      <rect class="cls-9" x="153.69" y="259.14" width="8.81" height="7.69"/>
    </clipPath>
    <clipPath id="clippath-35">
      <rect class="cls-9" x="167.26" y="259.94" width="8.81" height="7.69"/>
    </clipPath>
    <clipPath id="clippath-36">
      <rect class="cls-9" x="180.84" y="258.62" width="8.81" height="7.69"/>
    </clipPath>
    <clipPath id="clippath-37">
      <rect class="cls-9" x="194.42" y="258.73" width="8.81" height="7.69"/>
    </clipPath>
    <clipPath id="clippath-38">
      <rect class="cls-9" x="207.99" y="256.77" width="8.81" height="7.69"/>
    </clipPath>
    <clipPath id="clippath-39">
      <rect class="cls-9" x="221.57" y="254.3" width="8.81" height="7.69"/>
    </clipPath>
    <clipPath id="clippath-40">
      <rect class="cls-9" x="319.81" y="260.45" width="8.81" height="7.69"/>
    </clipPath>
    <clipPath id="clippath-41">
      <rect class="cls-9" x="333.39" y="260.44" width="8.81" height="7.69"/>
    </clipPath>
    <clipPath id="clippath-42">
      <rect class="cls-9" x="346.97" y="260.5" width="8.81" height="7.69"/>
    </clipPath>
    <clipPath id="clippath-43">
      <rect class="cls-9" x="360.54" y="260.48" width="8.81" height="7.69"/>
    </clipPath>
    <clipPath id="clippath-44">
      <rect class="cls-9" x="374.12" y="260.49" width="8.81" height="7.69"/>
    </clipPath>
    <clipPath id="clippath-45">
      <rect class="cls-9" x="387.7" y="260.39" width="8.81" height="7.69"/>
    </clipPath>
    <clipPath id="clippath-46">
      <rect class="cls-9" x="401.27" y="260.26" width="8.81" height="7.69"/>
    </clipPath>
    <clipPath id="clippath-47">
      <rect class="cls-9" x="414.85" y="260.65" width="8.81" height="7.69"/>
    </clipPath>
    <clipPath id="clippath-48">
      <rect class="cls-9" x="428.42" y="261.53" width="8.81" height="7.69"/>
    </clipPath>
    <clipPath id="clippath-49">
      <rect class="cls-9" x="442" y="262.24" width="8.81" height="7.69"/>
    </clipPath>
    <clipPath id="clippath-50">
      <rect class="cls-9" x="455.58" y="259.58" width="8.81" height="7.69"/>
    </clipPath>
    <clipPath id="clippath-51">
      <rect class="cls-9" x="469.15" y="252.96" width="8.81" height="7.69"/>
    </clipPath>
    <clipPath id="clippath-52">
      <rect class="cls-9" x="482.73" y="249.95" width="8.81" height="7.69"/>
    </clipPath>
    <clipPath id="clippath-53">
      <rect class="cls-9" x="189.27" y="445.91" width="8.81" height="7.69"/>
    </clipPath>
    <clipPath id="clippath-54">
      <rect class="cls-9" x="202.85" y="445.89" width="8.81" height="7.69"/>
    </clipPath>
    <clipPath id="clippath-55">
      <rect class="cls-9" x="216.42" y="446.02" width="8.81" height="7.69"/>
    </clipPath>
    <clipPath id="clippath-56">
      <rect class="cls-9" x="230" y="445.95" width="8.81" height="7.69"/>
    </clipPath>
    <clipPath id="clippath-57">
      <rect class="cls-9" x="243.58" y="445.8" width="8.81" height="7.69"/>
    </clipPath>
    <clipPath id="clippath-58">
      <rect class="cls-9" x="257.15" y="445.94" width="8.81" height="7.69"/>
    </clipPath>
    <clipPath id="clippath-59">
      <rect class="cls-9" x="270.73" y="445.28" width="8.81" height="7.69"/>
    </clipPath>
    <clipPath id="clippath-60">
      <rect class="cls-9" x="284.31" y="444.63" width="8.81" height="7.69"/>
    </clipPath>
    <clipPath id="clippath-61">
      <rect class="cls-9" x="297.88" y="445.59" width="8.81" height="7.69"/>
    </clipPath>
    <clipPath id="clippath-62">
      <rect class="cls-9" x="311.46" y="446.6" width="8.81" height="7.69"/>
    </clipPath>
    <clipPath id="clippath-63">
      <rect class="cls-9" x="325.04" y="444.13" width="8.81" height="7.69"/>
    </clipPath>
    <clipPath id="clippath-64">
      <rect class="cls-9" x="338.61" y="440.87" width="8.81" height="7.69"/>
    </clipPath>
    <clipPath id="clippath-65">
      <rect class="cls-9" x="352.19" y="439.51" width="8.81" height="7.69"/>
    </clipPath>
  </defs>
  <g id="Capa_1" data-name="Capa 1">
    <text class="cls-32" transform="translate(8.44 15.44)"><tspan x="0" y="0" xml:space="preserve">A.   Longitudinal</tspan></text>
    <text class="cls-30" transform="translate(196.39 507.97) rotate(-90)"><tspan x="0" y="0">Baseline</tspan></text>
    <text class="cls-30" transform="translate(249.94 546.23) rotate(-90)"><tspan x="0" y="0">Local Democracy</tspan></text>
    <text class="cls-31" transform="translate(263.99 554.64) rotate(-90)"><tspan class="cls-76" x="0" y="0"> </tspan><tspan class="cls-33" x="2.73" y="0">Languages </tspan><tspan class="cls-76" x="46.13" y="0">Distance</tspan></text>
    <text class="cls-30" transform="translate(331.75 550.06) rotate(-90)"><tspan x="0" y="0">Structural Equality</tspan></text>
    <text class="cls-30" transform="translate(222.91 568.13) rotate(-90)"><tspan x="0" y="0">Institutional languages</tspan></text>
    <text class="cls-30" transform="translate(278.4 558.26) rotate(-90)"><tspan x="0" y="0">Free political parties</tspan></text>
    <text class="cls-30" transform="translate(291.88 540.78) rotate(-90)"><tspan x="0" y="0">Gender Equality</tspan></text>
    <text class="cls-30" transform="translate(236.37 549.52) rotate(-90)"><tspan x="0" y="0">Credible Elections</tspan></text>
    <text class="cls-30" transform="translate(317.68 513.43) rotate(-90)"><tspan x="0" y="0">Air quality</tspan></text>
    <text class="cls-30" transform="translate(345.81 537.31) rotate(-90)"><tspan x="0" y="0">GD</tspan><tspan class="cls-70" x="14.75" y="0">P</tspan><tspan class="cls-61" x="21.14" y="0" xml:space="preserve"> per capita</tspan></text>
    <text class="cls-30" transform="translate(304.05 546.26) rotate(-90)"><tspan x="0" y="0">Stable languages</tspan></text>
    <text class="cls-30" transform="translate(358.53 510.69) rotate(-90)"><tspan x="0" y="0">Migration</tspan></text>
    <text class="cls-30" transform="translate(209.44 546.61) rotate(-90)"><tspan x="0" y="0">Inclusive su</tspan><tspan class="cls-70" x="51.39" y="0">f</tspan><tspan class="cls-61" x="53.95" y="0">frage</tspan></text>
    <g>
      <text class="cls-23" transform="translate(168.31 445.46)"><tspan x="0" y="0">1.0</tspan></text>
      <text class="cls-30" transform="translate(164.32 441.67) rotate(-90)"><tspan x="0" y="0">RR</tspan></text>
      <text class="cls-23" transform="translate(168.31 412.6)"><tspan x="0" y="0">2.5</tspan></text>
      <text class="cls-23" transform="translate(175.97 467.94)"><tspan x="0" y="0">0</tspan></text>
      <text class="cls-23" transform="translate(168.31 434.56)"><tspan x="0" y="0">1.5</tspan></text>
      <text class="cls-23" transform="translate(168.31 423.32)"><tspan x="0" y="0">2.0</tspan></text>
      <text class="cls-23" transform="translate(168.31 457.21)"><tspan x="0" y="0">0.5</tspan></text>
    </g>
    <text class="cls-28" transform="translate(240.31 406)"><tspan class="cls-35" x="0" y="0">T</tspan><tspan class="cls-41" x="4.72" y="0">otal (≥1 language)</tspan></text>
    <text class="cls-30" transform="translate(120.4 382.13) rotate(-90)"><tspan x="0" y="0">Institutional languages</tspan></text>
    <text class="cls-30" transform="translate(65.21 321.97) rotate(-90)"><tspan x="0" y="0">Baseline</tspan></text>
    <text class="cls-30" transform="translate(105.69 360.22) rotate(-90)"><tspan x="0" y="0">Local Democracy</tspan></text>
    <text class="cls-31" transform="translate(134.59 368.64) rotate(-90)"><tspan class="cls-76" x="0" y="0"> </tspan><tspan class="cls-33" x="2.73" y="0">Languages </tspan><tspan class="cls-76" x="46.13" y="0">Distance</tspan></text>
    <text class="cls-30" transform="translate(229.03 364.06) rotate(-90)"><tspan x="0" y="0">Structural Equality</tspan></text>
    <text class="cls-30" transform="translate(161.75 360.26) rotate(-90)"><tspan x="0" y="0">Stable languages</tspan></text>
    <text class="cls-30" transform="translate(148.08 372.26) rotate(-90)"><tspan x="0" y="0">Free political parties</tspan></text>
    <text class="cls-30" transform="translate(215.56 354.77) rotate(-90)"><tspan x="0" y="0">Gender Equality</tspan></text>
    <text class="cls-30" transform="translate(92.18 363.51) rotate(-90)"><tspan x="0" y="0">Credible Elections</tspan></text>
    <text class="cls-30" transform="translate(174.42 327.42) rotate(-90)"><tspan x="0" y="0">Air quality</tspan></text>
    <text class="cls-30" transform="translate(188.56 351.31) rotate(-90)"><tspan x="0" y="0">GD</tspan><tspan class="cls-70" x="14.75" y="0">P</tspan><tspan x="21.14" y="0" xml:space="preserve"> per capita</tspan></text>
    <text class="cls-30" transform="translate(202.55 324.69) rotate(-90)"><tspan x="0" y="0">Migration</tspan></text>
    <text class="cls-30" transform="translate(78.72 360.6) rotate(-90)"><tspan x="0" y="0">Inclusive su</tspan><tspan class="cls-70" x="51.39" y="0">f</tspan><tspan x="53.95" y="0">frage</tspan></text>
    <text class="cls-30" transform="translate(421.07 382.13) rotate(-90)"><tspan x="0" y="0">Institutional languages</tspan></text>
    <text class="cls-30" transform="translate(326.55 321.97) rotate(-90)"><tspan x="0" y="0">Baseline</tspan></text>
    <text class="cls-30" transform="translate(394.53 360.22) rotate(-90)"><tspan x="0" y="0">Local Democracy</tspan></text>
    <text class="cls-31" transform="translate(339.95 368.64) rotate(-90)"><tspan class="cls-76" x="0" y="0"> </tspan><tspan class="cls-33" x="2.73" y="0">Languages </tspan><tspan class="cls-76" x="46.13" y="0">Distance</tspan></text>
    <text class="cls-30" transform="translate(463.3 364.06) rotate(-90)"><tspan x="0" y="0">Structural Equality</tspan></text>
    <text class="cls-30" transform="translate(434.01 360.26) rotate(-90)"><tspan x="0" y="0">Stable languages</tspan></text>
    <text class="cls-30" transform="translate(407.87 372.26) rotate(-90)"><tspan x="0" y="0">Free political parties</tspan></text>
    <text class="cls-30" transform="translate(367.03 354.77) rotate(-90)"><tspan x="0" y="0">Gender Equality</tspan></text>
    <text class="cls-30" transform="translate(380.87 363.51) rotate(-90)"><tspan x="0" y="0">Credible Elections</tspan></text>
    <text class="cls-30" transform="translate(449.36 327.42) rotate(-90)"><tspan x="0" y="0">Air quality</tspan></text>
    <text class="cls-30" transform="translate(489.56 351.31) rotate(-90)"><tspan x="0" y="0">GD</tspan><tspan class="cls-70" x="14.75" y="0">P</tspan><tspan x="21.14" y="0" xml:space="preserve"> per capita</tspan></text>
    <text class="cls-30" transform="translate(476.61 324.69) rotate(-90)"><tspan x="0" y="0">Migration</tspan></text>
    <text class="cls-30" transform="translate(354.16 360.6) rotate(-90)"><tspan x="0" y="0">Inclusive su</tspan><tspan class="cls-70" x="51.39" y="0">f</tspan><tspan x="53.95" y="0">frage</tspan></text>
    <g>
      <text class="cls-23" transform="translate(38.62 260.1)"><tspan x="0" y="0">1.0</tspan></text>
      <text class="cls-30" transform="translate(34.64 256.31) rotate(-90)"><tspan x="0" y="0">RR</tspan></text>
      <text class="cls-23" transform="translate(38.62 227.24)"><tspan x="0" y="0">2.5</tspan></text>
      <text class="cls-23" transform="translate(46.28 282.58)"><tspan x="0" y="0">0</tspan></text>
      <text class="cls-23" transform="translate(38.62 249.21)"><tspan x="0" y="0">1.5</tspan></text>
      <text class="cls-23" transform="translate(38.62 237.96)"><tspan x="0" y="0">2.0</tspan></text>
      <text class="cls-23" transform="translate(38.62 271.85)"><tspan x="0" y="0">0.5</tspan></text>
    </g>
    <g>
      <text class="cls-23" transform="translate(298.33 260.1)"><tspan x="0" y="0">1.0</tspan></text>
      <text class="cls-30" transform="translate(294.35 256.31) rotate(-90)"><tspan x="0" y="0">RR</tspan></text>
      <text class="cls-23" transform="translate(298.33 227.24)"><tspan x="0" y="0">2.5</tspan></text>
      <text class="cls-23" transform="translate(305.99 282.58)"><tspan x="0" y="0">0</tspan></text>
      <text class="cls-23" transform="translate(298.33 249.21)"><tspan x="0" y="0">1.5</tspan></text>
      <text class="cls-23" transform="translate(298.33 237.96)"><tspan x="0" y="0">2.0</tspan></text>
      <text class="cls-23" transform="translate(298.33 271.85)"><tspan x="0" y="0">0.5</tspan></text>
    </g>
    <text class="cls-24" transform="translate(362.75 221.33)"><tspan x="0" y="0">3 additional languages</tspan></text>
    <text class="cls-27" transform="translate(93.24 221.33)"><tspan x="0" y="0">2 additional languages</tspan></text>
    <text class="cls-30" transform="translate(64.68 135.94) rotate(-90) scale(.99 1)"><tspan x="0" y="0">Baseline</tspan></text>
    <text class="cls-30" transform="translate(132.29 173.68) rotate(-90) scale(.99 1)"><tspan x="0" y="0">Local Democracy</tspan></text>
    <text class="cls-31" transform="translate(106.84 181.98) rotate(-90) scale(.99 1)"><tspan class="cls-76" x="0" y="0"> </tspan><tspan class="cls-34" x="2.73" y="0">Languages </tspan><tspan class="cls-76" x="46.13" y="0">Distance</tspan></text>
    <text class="cls-30" transform="translate(200.22 177.46) rotate(-90) scale(.99 1)"><tspan x="0" y="0">Structural Equality</tspan></text>
    <text class="cls-30" transform="translate(174.36 195.28) rotate(-90) scale(.99 1)"><tspan x="0" y="0">Institutional languages</tspan></text>
    <text class="cls-30" transform="translate(449.36 195.28) rotate(-90) scale(.99 1)"><tspan x="0" y="0">Institutional languages</tspan></text>
    <text class="cls-30" transform="translate(147.32 185.55) rotate(-90) scale(.99 1)"><tspan x="0" y="0">Free political parties</tspan></text>
    <text class="cls-30" transform="translate(160.36 168.3) rotate(-90) scale(.99 1)"><tspan x="0" y="0">Gender Equality</tspan></text>
    <text class="cls-30" transform="translate(119.05 176.92) rotate(-90) scale(.99 1)"><tspan x="0" y="0">Credible Elections</tspan></text>
    <text class="cls-30" transform="translate(187.23 141.32) rotate(-90) scale(.99 1)"><tspan x="0" y="0">Air quality</tspan></text>
    <text class="cls-30" transform="translate(214.32 164.88) rotate(-90) scale(.99 1)"><tspan x="0" y="0">GD</tspan><tspan class="cls-43" x="14.75" y="0">P</tspan><tspan x="21.14" y="0" xml:space="preserve"> per capita</tspan></text>
    <text class="cls-30" transform="translate(92.1 173.71) rotate(-90) scale(.99 1)"><tspan x="0" y="0">Stable languages</tspan></text>
    <text class="cls-30" transform="translate(228.89 138.63) rotate(-90) scale(.99 1)"><tspan x="0" y="0">Migration</tspan></text>
    <text class="cls-30" transform="translate(78.72 174.05) rotate(-90) scale(.99 1)"><tspan x="0" y="0">Inclusive su</tspan><tspan class="cls-43" x="51.39" y="0">f</tspan><tspan x="53.95" y="0">frage</tspan></text>
    <text class="cls-30" transform="translate(326.84 135.94) rotate(-90) scale(.99 1)"><tspan x="0" y="0">Baseline</tspan></text>
    <text class="cls-30" transform="translate(422.66 173.68) rotate(-90) scale(.99 1)"><tspan x="0" y="0">Local Democracy</tspan></text>
    <text class="cls-31" transform="translate(340.48 181.98) rotate(-90) scale(.99 1)"><tspan class="cls-76" x="0" y="0"> </tspan><tspan class="cls-34" x="2.73" y="0">Languages </tspan><tspan class="cls-76" x="46.13" y="0">Distance</tspan></text>
    <text class="cls-30" transform="translate(353.85 177.46) rotate(-90) scale(.99 1)"><tspan x="0" y="0">Structural Equality</tspan></text>
    <text class="cls-30" transform="translate(462.17 173.71) rotate(-90) scale(.99 1)"><tspan x="0" y="0">Stable languages</tspan></text>
    <text class="cls-30" transform="translate(409.47 185.55) rotate(-90) scale(.99 1)"><tspan x="0" y="0">Free political parties</tspan></text>
    <text class="cls-30" transform="translate(491.01 168.3) rotate(-90) scale(.99 1)"><tspan x="0" y="0">Gender Equality</tspan></text>
    <text class="cls-30" transform="translate(380.41 176.92) rotate(-90) scale(.99 1)"><tspan x="0" y="0">Credible Elections</tspan></text>
    <text class="cls-30" transform="translate(368.15 141.32) rotate(-90) scale(.99 1)"><tspan x="0" y="0">Air quality</tspan></text>
    <text class="cls-30" transform="translate(477.24 164.88) rotate(-90) scale(.99 1)"><tspan x="0" y="0">GD</tspan><tspan class="cls-43" x="14.75" y="0">P</tspan><tspan x="21.14" y="0" xml:space="preserve"> per capita</tspan></text>
    <text class="cls-30" transform="translate(436.62 138.63) rotate(-90) scale(.99 1)"><tspan x="0" y="0">Migration</tspan></text>
    <text class="cls-30" transform="translate(395.96 174.05) rotate(-90) scale(.99 1)"><tspan x="0" y="0">Inclusive su</tspan><tspan class="cls-43" x="51.39" y="0">f</tspan><tspan x="53.95" y="0">frage</tspan></text>
    <g>
      <text class="cls-26" transform="translate(38.66 76.41) scale(1.01 1)"><tspan x="0" y="0">1.0</tspan></text>
      <text class="cls-30" transform="translate(34.67 72.66) rotate(-90) scale(.99 1)"><tspan x="0" y="0">RR</tspan></text>
      <text class="cls-26" transform="translate(38.66 43.99) scale(1.01 1)"><tspan x="0" y="0">2.5</tspan></text>
      <text class="cls-26" transform="translate(46.31 98.57) scale(1.01 1)"><tspan x="0" y="0">0</tspan></text>
      <text class="cls-26" transform="translate(38.66 65.66) scale(1.01 1)"><tspan x="0" y="0">1.5</tspan></text>
      <text class="cls-26" transform="translate(38.66 54.56) scale(1.01 1)"><tspan x="0" y="0">2.0</tspan></text>
      <text class="cls-26" transform="translate(38.66 88) scale(1.01 1)"><tspan x="0" y="0">0.5</tspan></text>
    </g>
    <g>
      <text class="cls-26" transform="translate(298.37 76.41) scale(1.01 1)"><tspan x="0" y="0">1.0</tspan></text>
      <text class="cls-30" transform="translate(294.38 72.66) rotate(-90) scale(.99 1)"><tspan x="0" y="0">RR</tspan></text>
      <text class="cls-26" transform="translate(298.37 43.99) scale(1.01 1)"><tspan x="0" y="0">2.5</tspan></text>
      <text class="cls-26" transform="translate(306.03 98.57) scale(1.01 1)"><tspan x="0" y="0">0</tspan></text>
      <text class="cls-26" transform="translate(298.37 65.66) scale(1.01 1)"><tspan x="0" y="0">1.5</tspan></text>
      <text class="cls-26" transform="translate(298.37 54.56) scale(1.01 1)"><tspan x="0" y="0">2.0</tspan></text>
      <text class="cls-26" transform="translate(298.37 88) scale(1.01 1)"><tspan x="0" y="0">0.5</tspan></text>
    </g>
    <text class="cls-29" transform="translate(365.17 37.48) scale(1.01 1)"><tspan x="0" y="0">1 additional language</tspan></text>
    <text class="cls-25" transform="translate(106.84 37.48) scale(1.01 1)"><tspan x="0" y="0">Monolingualism</tspan></text>
    <text class="cls-22" transform="translate(22.54 595.56)"><tspan x="0" y="0">Covariate added at each step (models are cumulative: previously added covariates are retained)</tspan></text>
    <g>
      <line class="cls-5" x1="234.66" y1="74.26" x2="233.66" y2="74.26"/>
      <line class="cls-2" x1="232.67" y1="74.26" x2="57.56" y2="74.26"/>
      <line class="cls-5" x1="57.07" y1="74.26" x2="56.07" y2="74.26"/>
    </g>
    <g>
      <line class="cls-5" x1="495.91" y1="74.26" x2="494.91" y2="74.26"/>
      <line class="cls-2" x1="493.92" y1="74.26" x2="318.82" y2="74.26"/>
      <line class="cls-5" x1="318.32" y1="74.26" x2="317.32" y2="74.26"/>
    </g>
    <g>
      <line class="cls-5" x1="234.66" y1="258.2" x2="233.66" y2="258.2"/>
      <line class="cls-2" x1="232.67" y1="258.2" x2="57.56" y2="258.2"/>
      <line class="cls-5" x1="57.07" y1="258.2" x2="56.07" y2="258.2"/>
    </g>
    <g>
      <line class="cls-5" x1="495.91" y1="258.2" x2="494.91" y2="258.2"/>
      <line class="cls-2" x1="493.92" y1="258.2" x2="318.82" y2="258.2"/>
      <line class="cls-5" x1="318.32" y1="258.2" x2="317.32" y2="258.2"/>
    </g>
    <g>
      <line class="cls-5" x1="364.43" y1="443.42" x2="363.43" y2="443.42"/>
      <line class="cls-2" x1="362.44" y1="443.42" x2="187.34" y2="443.42"/>
      <line class="cls-5" x1="186.84" y1="443.42" x2="185.84" y2="443.42"/>
    </g>
  </g>
  <g id="Capa_3" data-name="Capa 3">
    <line class="cls-3" x1="63.51" y1="96.14" x2="63.51" y2="97.83"/>
    <line class="cls-3" x1="77.09" y1="96.14" x2="77.09" y2="97.83"/>
    <line class="cls-3" x1="90.67" y1="96.14" x2="90.67" y2="97.83"/>
    <line class="cls-3" x1="104.24" y1="96.14" x2="104.24" y2="97.83"/>
    <line class="cls-3" x1="117.82" y1="96.14" x2="117.82" y2="97.83"/>
    <line class="cls-3" x1="131.4" y1="96.14" x2="131.4" y2="97.83"/>
    <line class="cls-3" x1="144.97" y1="96.14" x2="144.97" y2="97.83"/>
    <line class="cls-3" x1="158.55" y1="96.14" x2="158.55" y2="97.83"/>
    <line class="cls-3" x1="172.12" y1="96.14" x2="172.12" y2="97.83"/>
    <line class="cls-3" x1="185.7" y1="96.14" x2="185.7" y2="97.83"/>
    <line class="cls-3" x1="199.28" y1="96.14" x2="199.28" y2="97.83"/>
    <line class="cls-3" x1="212.85" y1="96.14" x2="212.85" y2="97.83"/>
    <line class="cls-3" x1="226.43" y1="96.14" x2="226.43" y2="97.83"/>
    <line class="cls-3" x1="55.37" y1="96.14" x2="53.44" y2="96.14"/>
    <line class="cls-3" x1="55.37" y1="85.16" x2="53.44" y2="85.16"/>
    <line class="cls-3" x1="55.37" y1="74.18" x2="53.44" y2="74.18"/>
    <line class="cls-3" x1="55.37" y1="63.2" x2="53.44" y2="63.2"/>
    <line class="cls-3" x1="55.37" y1="52.22" x2="53.44" y2="52.22"/>
    <line class="cls-3" x1="55.37" y1="41.24" x2="53.44" y2="41.24"/>
    <polyline class="cls-6" points="63.51 65.15 77.09 65.18 90.67 64.77 104.24 64.76 117.82 64.89 131.4 65.25 144.97 66.71 158.55 67.4 172.12 65.68 185.7 63.87 199.28 68.57 212.85 72.64 226.43 74.25"/>
    <g class="cls-65">
      <path class="cls-19" d="m63.51,66.59c.44,0,.86-.15,1.17-.42.31-.27.48-.64.48-1.02s-.17-.75-.48-1.02c-.31-.27-.73-.42-1.17-.42s-.86.15-1.17.42c-.31.27-.48.64-.48,1.02s.17.75.48,1.02c.31.27.73.42,1.17.42Z"/>
      <path class="cls-7" d="m63.51,66.59c.44,0,.86-.15,1.17-.42.31-.27.48-.64.48-1.02s-.17-.75-.48-1.02c-.31-.27-.73-.42-1.17-.42s-.86.15-1.17.42c-.31.27-.48.64-.48,1.02s.17.75.48,1.02c.31.27.73.42,1.17.42Z"/>
    </g>
    <g class="cls-51">
      <path class="cls-19" d="m77.09,66.63c.44,0,.86-.15,1.17-.42.31-.27.48-.64.48-1.02s-.17-.75-.48-1.02c-.31-.27-.73-.42-1.17-.42s-.86.15-1.17.42c-.31.27-.48.64-.48,1.02s.17.75.48,1.02c.31.27.73.42,1.17.42Z"/>
      <path class="cls-7" d="m77.09,66.63c.44,0,.86-.15,1.17-.42.31-.27.48-.64.48-1.02s-.17-.75-.48-1.02c-.31-.27-.73-.42-1.17-.42s-.86.15-1.17.42c-.31.27-.48.64-.48,1.02s.17.75.48,1.02c.31.27.73.42,1.17.42Z"/>
    </g>
    <g class="cls-36">
      <path class="cls-19" d="m90.67,66.21c.44,0,.86-.15,1.17-.42.31-.27.48-.64.48-1.02s-.17-.75-.48-1.02c-.31-.27-.73-.42-1.17-.42s-.86.15-1.17.42c-.31.27-.48.64-.48,1.02s.17.75.48,1.02c.31.27.73.42,1.17.42Z"/>
      <path class="cls-7" d="m90.67,66.21c.44,0,.86-.15,1.17-.42.31-.27.48-.64.48-1.02s-.17-.75-.48-1.02c-.31-.27-.73-.42-1.17-.42s-.86.15-1.17.42c-.31.27-.48.64-.48,1.02s.17.75.48,1.02c.31.27.73.42,1.17.42Z"/>
    </g>
    <g class="cls-74">
      <path class="cls-19" d="m104.24,66.2c.44,0,.86-.15,1.17-.42s.48-.64.48-1.02-.17-.75-.48-1.02-.73-.42-1.17-.42-.86.15-1.17.42-.48.64-.48,1.02.17.75.48,1.02.73.42,1.17.42Z"/>
      <path class="cls-7" d="m104.24,66.2c.44,0,.86-.15,1.17-.42s.48-.64.48-1.02-.17-.75-.48-1.02-.73-.42-1.17-.42-.86.15-1.17.42-.48.64-.48,1.02.17.75.48,1.02.73.42,1.17.42Z"/>
    </g>
    <g class="cls-52">
      <path class="cls-19" d="m117.82,66.33c.44,0,.86-.15,1.17-.42s.48-.64.48-1.02-.17-.75-.48-1.02-.73-.42-1.17-.42-.86.15-1.17.42-.48.64-.48,1.02.17.75.48,1.02.73.42,1.17.42Z"/>
      <path class="cls-7" d="m117.82,66.33c.44,0,.86-.15,1.17-.42s.48-.64.48-1.02-.17-.75-.48-1.02-.73-.42-1.17-.42-.86.15-1.17.42-.48.64-.48,1.02.17.75.48,1.02.73.42,1.17.42Z"/>
    </g>
    <g class="cls-83">
      <path class="cls-19" d="m131.4,66.69c.44,0,.86-.15,1.17-.42s.48-.64.48-1.02-.17-.75-.48-1.02-.73-.42-1.17-.42-.86.15-1.17.42-.48.64-.48,1.02.17.75.48,1.02.73.42,1.17.42Z"/>
      <path class="cls-7" d="m131.4,66.69c.44,0,.86-.15,1.17-.42s.48-.64.48-1.02-.17-.75-.48-1.02-.73-.42-1.17-.42-.86.15-1.17.42-.48.64-.48,1.02.17.75.48,1.02.73.42,1.17.42Z"/>
    </g>
    <g class="cls-44">
      <path class="cls-19" d="m144.97,68.15c.44,0,.86-.15,1.17-.42s.48-.64.48-1.02-.17-.75-.48-1.02-.73-.42-1.17-.42-.86.15-1.17.42-.48.64-.48,1.02.17.75.48,1.02.73.42,1.17.42Z"/>
      <path class="cls-7" d="m144.97,68.15c.44,0,.86-.15,1.17-.42s.48-.64.48-1.02-.17-.75-.48-1.02-.73-.42-1.17-.42-.86.15-1.17.42-.48.64-.48,1.02.17.75.48,1.02.73.42,1.17.42Z"/>
    </g>
    <g class="cls-47">
      <path class="cls-19" d="m158.55,68.85c.44,0,.86-.15,1.17-.42s.48-.64.48-1.02-.17-.75-.48-1.02-.73-.42-1.17-.42-.86.15-1.17.42-.48.64-.48,1.02.17.75.48,1.02.73.42,1.17.42Z"/>
      <path class="cls-7" d="m158.55,68.85c.44,0,.86-.15,1.17-.42s.48-.64.48-1.02-.17-.75-.48-1.02-.73-.42-1.17-.42-.86.15-1.17.42-.48.64-.48,1.02.17.75.48,1.02.73.42,1.17.42Z"/>
    </g>
    <g class="cls-77">
      <path class="cls-19" d="m172.12,67.12c.44,0,.86-.15,1.17-.42s.48-.64.48-1.02-.17-.75-.48-1.02-.73-.42-1.17-.42-.86.15-1.17.42-.48.64-.48,1.02.17.75.48,1.02.73.42,1.17.42Z"/>
      <path class="cls-7" d="m172.12,67.12c.44,0,.86-.15,1.17-.42s.48-.64.48-1.02-.17-.75-.48-1.02-.73-.42-1.17-.42-.86.15-1.17.42-.48.64-.48,1.02.17.75.48,1.02.73.42,1.17.42Z"/>
    </g>
    <g class="cls-63">
      <path class="cls-19" d="m185.7,65.31c.44,0,.86-.15,1.17-.42.31-.27.48-.64.48-1.02s-.17-.75-.48-1.02c-.31-.27-.73-.42-1.17-.42s-.86.15-1.17.42c-.31.27-.48.64-.48,1.02s.17.75.48,1.02c.31.27.73.42,1.17.42Z"/>
      <path class="cls-7" d="m185.7,65.31c.44,0,.86-.15,1.17-.42.31-.27.48-.64.48-1.02s-.17-.75-.48-1.02c-.31-.27-.73-.42-1.17-.42s-.86.15-1.17.42c-.31.27-.48.64-.48,1.02s.17.75.48,1.02c.31.27.73.42,1.17.42Z"/>
    </g>
    <g class="cls-87">
      <path class="cls-19" d="m199.28,70.01c.44,0,.86-.15,1.17-.42.31-.27.48-.64.48-1.02s-.17-.75-.48-1.02c-.31-.27-.73-.42-1.17-.42s-.86.15-1.17.42c-.31.27-.48.64-.48,1.02s.17.75.48,1.02c.31.27.73.42,1.17.42Z"/>
      <path class="cls-7" d="m199.28,70.01c.44,0,.86-.15,1.17-.42.31-.27.48-.64.48-1.02s-.17-.75-.48-1.02c-.31-.27-.73-.42-1.17-.42s-.86.15-1.17.42c-.31.27-.48.64-.48,1.02s.17.75.48,1.02c.31.27.73.42,1.17.42Z"/>
    </g>
    <g class="cls-13">
      <path class="cls-19" d="m212.85,74.08c.44,0,.86-.15,1.17-.42.31-.27.48-.64.48-1.02s-.17-.75-.48-1.02c-.31-.27-.73-.42-1.17-.42s-.86.15-1.17.42c-.31.27-.48.64-.48,1.02s.17.75.48,1.02c.31.27.73.42,1.17.42Z"/>
      <path class="cls-7" d="m212.85,74.08c.44,0,.86-.15,1.17-.42.31-.27.48-.64.48-1.02s-.17-.75-.48-1.02c-.31-.27-.73-.42-1.17-.42s-.86.15-1.17.42c-.31.27-.48.64-.48,1.02s.17.75.48,1.02c.31.27.73.42,1.17.42Z"/>
    </g>
    <g class="cls-58">
      <path class="cls-19" d="m226.43,75.7c.44,0,.86-.15,1.17-.42.31-.27.48-.64.48-1.02s-.17-.75-.48-1.02c-.31-.27-.73-.42-1.17-.42s-.86.15-1.17.42c-.31.27-.48.64-.48,1.02s.17.75.48,1.02c.31.27.73.42,1.17.42Z"/>
      <path class="cls-7" d="m226.43,75.7c.44,0,.86-.15,1.17-.42.31-.27.48-.64.48-1.02s-.17-.75-.48-1.02c-.31-.27-.73-.42-1.17-.42s-.86.15-1.17.42c-.31.27-.48.64-.48,1.02s.17.75.48,1.02c.31.27.73.42,1.17.42Z"/>
    </g>
    <rect class="cls-9" x="55.37" y="41.24" width="179.21" height="54.9"/>
    <rect class="cls-9" x="55.37" y="41.24" width="179.21" height="54.9"/>
    <line class="cls-8" x1="55.37" y1="96.14" x2="55.37" y2="41.24"/>
    <line class="cls-8" x1="234.58" y1="96.14" x2="234.58" y2="41.24"/>
    <line class="cls-8" x1="55.37" y1="96.14" x2="234.58" y2="96.14"/>
    <line class="cls-8" x1="55.37" y1="41.24" x2="234.58" y2="41.24"/>
    <line class="cls-3" x1="324.58" y1="96.04" x2="324.58" y2="97.72"/>
    <line class="cls-3" x1="338.15" y1="96.04" x2="338.15" y2="97.72"/>
    <line class="cls-3" x1="351.73" y1="96.04" x2="351.73" y2="97.72"/>
    <line class="cls-3" x1="365.31" y1="96.04" x2="365.31" y2="97.72"/>
    <line class="cls-3" x1="378.88" y1="96.04" x2="378.88" y2="97.72"/>
    <line class="cls-3" x1="392.46" y1="96.04" x2="392.46" y2="97.72"/>
    <line class="cls-3" x1="406.03" y1="96.04" x2="406.03" y2="97.72"/>
    <line class="cls-3" x1="419.61" y1="96.04" x2="419.61" y2="97.72"/>
    <line class="cls-3" x1="433.19" y1="96.04" x2="433.19" y2="97.72"/>
    <line class="cls-3" x1="446.76" y1="96.04" x2="446.76" y2="97.72"/>
    <line class="cls-3" x1="460.34" y1="96.04" x2="460.34" y2="97.72"/>
    <line class="cls-3" x1="473.92" y1="96.04" x2="473.92" y2="97.72"/>
    <line class="cls-3" x1="487.49" y1="96.04" x2="487.49" y2="97.72"/>
    <line class="cls-3" x1="316.43" y1="96.04" x2="314.5" y2="96.04"/>
    <line class="cls-3" x1="316.43" y1="85.06" x2="314.5" y2="85.06"/>
    <line class="cls-3" x1="316.43" y1="74.07" x2="314.5" y2="74.07"/>
    <line class="cls-3" x1="316.43" y1="63.09" x2="314.5" y2="63.09"/>
    <line class="cls-3" x1="316.43" y1="52.11" x2="314.5" y2="52.11"/>
    <line class="cls-3" x1="316.43" y1="41.13" x2="314.5" y2="41.13"/>
    <polyline class="cls-6" points="324.58 76.12 338.15 76.1 351.73 76.13 365.31 76.04 378.88 75.77 392.46 75.73 406.03 75.63 419.61 75.45 433.19 76.02 446.76 76.27 460.34 76.35 473.92 76.94 487.49 75.95"/>
    <g class="cls-37">
      <path class="cls-19" d="m324.58,77.57c.44,0,.86-.15,1.17-.42.31-.27.48-.64.48-1.02s-.17-.75-.48-1.02c-.31-.27-.73-.42-1.17-.42s-.86.15-1.17.42c-.31.27-.48.64-.48,1.02s.17.75.48,1.02c.31.27.73.42,1.17.42Z"/>
      <path class="cls-7" d="m324.58,77.57c.44,0,.86-.15,1.17-.42.31-.27.48-.64.48-1.02s-.17-.75-.48-1.02c-.31-.27-.73-.42-1.17-.42s-.86.15-1.17.42c-.31.27-.48.64-.48,1.02s.17.75.48,1.02c.31.27.73.42,1.17.42Z"/>
    </g>
    <g class="cls-81">
      <path class="cls-19" d="m338.15,77.54c.44,0,.86-.15,1.17-.42.31-.27.48-.64.48-1.02s-.17-.75-.48-1.02c-.31-.27-.73-.42-1.17-.42s-.86.15-1.17.42c-.31.27-.48.64-.48,1.02s.17.75.48,1.02c.31.27.73.42,1.17.42Z"/>
      <path class="cls-7" d="m338.15,77.54c.44,0,.86-.15,1.17-.42.31-.27.48-.64.48-1.02s-.17-.75-.48-1.02c-.31-.27-.73-.42-1.17-.42s-.86.15-1.17.42c-.31.27-.48.64-.48,1.02s.17.75.48,1.02c.31.27.73.42,1.17.42Z"/>
    </g>
    <g class="cls-42">
      <path class="cls-19" d="m351.73,77.57c.44,0,.86-.15,1.17-.42.31-.27.48-.64.48-1.02s-.17-.75-.48-1.02c-.31-.27-.73-.42-1.17-.42s-.86.15-1.17.42c-.31.27-.48.64-.48,1.02s.17.75.48,1.02c.31.27.73.42,1.17.42Z"/>
      <path class="cls-7" d="m351.73,77.57c.44,0,.86-.15,1.17-.42.31-.27.48-.64.48-1.02s-.17-.75-.48-1.02c-.31-.27-.73-.42-1.17-.42s-.86.15-1.17.42c-.31.27-.48.64-.48,1.02s.17.75.48,1.02c.31.27.73.42,1.17.42Z"/>
    </g>
    <g class="cls-14">
      <path class="cls-19" d="m365.31,77.48c.44,0,.86-.15,1.17-.42.31-.27.48-.64.48-1.02s-.17-.75-.48-1.02c-.31-.27-.73-.42-1.17-.42s-.86.15-1.17.42c-.31.27-.48.64-.48,1.02s.17.75.48,1.02c.31.27.73.42,1.17.42Z"/>
      <path class="cls-7" d="m365.31,77.48c.44,0,.86-.15,1.17-.42.31-.27.48-.64.48-1.02s-.17-.75-.48-1.02c-.31-.27-.73-.42-1.17-.42s-.86.15-1.17.42c-.31.27-.48.64-.48,1.02s.17.75.48,1.02c.31.27.73.42,1.17.42Z"/>
    </g>
    <g class="cls-82">
      <path class="cls-19" d="m378.88,77.21c.44,0,.86-.15,1.17-.42.31-.27.48-.64.48-1.02s-.17-.75-.48-1.02c-.31-.27-.73-.42-1.17-.42s-.86.15-1.17.42c-.31.27-.48.64-.48,1.02s.17.75.48,1.02c.31.27.73.42,1.17.42Z"/>
      <path class="cls-7" d="m378.88,77.21c.44,0,.86-.15,1.17-.42.31-.27.48-.64.48-1.02s-.17-.75-.48-1.02c-.31-.27-.73-.42-1.17-.42s-.86.15-1.17.42c-.31.27-.48.64-.48,1.02s.17.75.48,1.02c.31.27.73.42,1.17.42Z"/>
    </g>
    <g class="cls-80">
      <path class="cls-19" d="m392.46,77.17c.44,0,.86-.15,1.17-.42.31-.27.48-.64.48-1.02s-.17-.75-.48-1.02c-.31-.27-.73-.42-1.17-.42s-.86.15-1.17.42c-.31.27-.48.64-.48,1.02s.17.75.48,1.02c.31.27.73.42,1.17.42Z"/>
      <path class="cls-7" d="m392.46,77.17c.44,0,.86-.15,1.17-.42.31-.27.48-.64.48-1.02s-.17-.75-.48-1.02c-.31-.27-.73-.42-1.17-.42s-.86.15-1.17.42c-.31.27-.48.64-.48,1.02s.17.75.48,1.02c.31.27.73.42,1.17.42Z"/>
    </g>
    <g class="cls-71">
      <path class="cls-19" d="m406.03,77.08c.44,0,.86-.15,1.17-.42.31-.27.48-.64.48-1.02s-.17-.75-.48-1.02c-.31-.27-.73-.42-1.17-.42s-.86.15-1.17.42c-.31.27-.48.64-.48,1.02s.17.75.48,1.02c.31.27.73.42,1.17.42Z"/>
      <path class="cls-7" d="m406.03,77.08c.44,0,.86-.15,1.17-.42.31-.27.48-.64.48-1.02s-.17-.75-.48-1.02c-.31-.27-.73-.42-1.17-.42s-.86.15-1.17.42c-.31.27-.48.64-.48,1.02s.17.75.48,1.02c.31.27.73.42,1.17.42Z"/>
    </g>
    <g class="cls-12">
      <path class="cls-19" d="m419.61,76.89c.44,0,.86-.15,1.17-.42.31-.27.48-.64.48-1.02s-.17-.75-.48-1.02c-.31-.27-.73-.42-1.17-.42s-.86.15-1.17.42c-.31.27-.48.64-.48,1.02s.17.75.48,1.02c.31.27.73.42,1.17.42Z"/>
      <path class="cls-7" d="m419.61,76.89c.44,0,.86-.15,1.17-.42.31-.27.48-.64.48-1.02s-.17-.75-.48-1.02c-.31-.27-.73-.42-1.17-.42s-.86.15-1.17.42c-.31.27-.48.64-.48,1.02s.17.75.48,1.02c.31.27.73.42,1.17.42Z"/>
    </g>
    <g class="cls-48">
      <path class="cls-19" d="m433.19,77.47c.44,0,.86-.15,1.17-.42.31-.27.48-.64.48-1.02s-.17-.75-.48-1.02c-.31-.27-.73-.42-1.17-.42s-.86.15-1.17.42c-.31.27-.48.64-.48,1.02s.17.75.48,1.02c.31.27.73.42,1.17.42Z"/>
      <path class="cls-7" d="m433.19,77.47c.44,0,.86-.15,1.17-.42.31-.27.48-.64.48-1.02s-.17-.75-.48-1.02c-.31-.27-.73-.42-1.17-.42s-.86.15-1.17.42c-.31.27-.48.64-.48,1.02s.17.75.48,1.02c.31.27.73.42,1.17.42Z"/>
    </g>
    <g class="cls-62">
      <path class="cls-19" d="m446.76,77.71c.44,0,.86-.15,1.17-.42.31-.27.48-.64.48-1.02s-.17-.75-.48-1.02c-.31-.27-.73-.42-1.17-.42s-.86.15-1.17.42c-.31.27-.48.64-.48,1.02s.17.75.48,1.02c.31.27.73.42,1.17.42Z"/>
      <path class="cls-7" d="m446.76,77.71c.44,0,.86-.15,1.17-.42.31-.27.48-.64.48-1.02s-.17-.75-.48-1.02c-.31-.27-.73-.42-1.17-.42s-.86.15-1.17.42c-.31.27-.48.64-.48,1.02s.17.75.48,1.02c.31.27.73.42,1.17.42Z"/>
    </g>
    <g class="cls-88">
      <path class="cls-19" d="m460.34,77.79c.44,0,.86-.15,1.17-.42.31-.27.48-.64.48-1.02s-.17-.75-.48-1.02c-.31-.27-.73-.42-1.17-.42s-.86.15-1.17.42c-.31.27-.48.64-.48,1.02s.17.75.48,1.02c.31.27.73.42,1.17.42Z"/>
      <path class="cls-7" d="m460.34,77.79c.44,0,.86-.15,1.17-.42.31-.27.48-.64.48-1.02s-.17-.75-.48-1.02c-.31-.27-.73-.42-1.17-.42s-.86.15-1.17.42c-.31.27-.48.64-.48,1.02s.17.75.48,1.02c.31.27.73.42,1.17.42Z"/>
    </g>
    <g class="cls-59">
      <path class="cls-19" d="m473.92,78.38c.44,0,.86-.15,1.17-.42.31-.27.48-.64.48-1.02s-.17-.75-.48-1.02c-.31-.27-.73-.42-1.17-.42s-.86.15-1.17.42c-.31.27-.48.64-.48,1.02s.17.75.48,1.02c.31.27.73.42,1.17.42Z"/>
      <path class="cls-7" d="m473.92,78.38c.44,0,.86-.15,1.17-.42.31-.27.48-.64.48-1.02s-.17-.75-.48-1.02c-.31-.27-.73-.42-1.17-.42s-.86.15-1.17.42c-.31.27-.48.64-.48,1.02s.17.75.48,1.02c.31.27.73.42,1.17.42Z"/>
    </g>
    <g class="cls-40">
      <path class="cls-19" d="m487.49,77.39c.44,0,.86-.15,1.17-.42.31-.27.48-.64.48-1.02s-.17-.75-.48-1.02c-.31-.27-.73-.42-1.17-.42s-.86.15-1.17.42c-.31.27-.48.64-.48,1.02s.17.75.48,1.02c.31.27.73.42,1.17.42Z"/>
      <path class="cls-7" d="m487.49,77.39c.44,0,.86-.15,1.17-.42.31-.27.48-.64.48-1.02s-.17-.75-.48-1.02c-.31-.27-.73-.42-1.17-.42s-.86.15-1.17.42c-.31.27-.48.64-.48,1.02s.17.75.48,1.02c.31.27.73.42,1.17.42Z"/>
    </g>
    <rect class="cls-9" x="316.43" y="41.13" width="179.21" height="54.9"/>
    <rect class="cls-9" x="316.43" y="41.13" width="179.21" height="54.9"/>
    <line class="cls-8" x1="316.43" y1="96.04" x2="316.43" y2="41.13"/>
    <line class="cls-8" x1="495.64" y1="96.04" x2="495.64" y2="41.13"/>
    <line class="cls-8" x1="316.43" y1="96.04" x2="495.64" y2="96.04"/>
    <line class="cls-8" x1="316.43" y1="41.13" x2="495.64" y2="41.13"/>
    <line class="cls-3" x1="63.06" y1="280" x2="63.06" y2="281.69"/>
    <line class="cls-3" x1="76.64" y1="280" x2="76.64" y2="281.69"/>
    <line class="cls-3" x1="90.21" y1="280" x2="90.21" y2="281.69"/>
    <line class="cls-3" x1="103.79" y1="280" x2="103.79" y2="281.69"/>
    <line class="cls-3" x1="117.37" y1="280" x2="117.37" y2="281.69"/>
    <line class="cls-3" x1="130.94" y1="280" x2="130.94" y2="281.69"/>
    <line class="cls-3" x1="144.52" y1="280" x2="144.52" y2="281.69"/>
    <line class="cls-3" x1="158.1" y1="280" x2="158.1" y2="281.69"/>
    <line class="cls-3" x1="171.67" y1="280" x2="171.67" y2="281.69"/>
    <line class="cls-3" x1="185.25" y1="280" x2="185.25" y2="281.69"/>
    <line class="cls-3" x1="198.82" y1="280" x2="198.82" y2="281.69"/>
    <line class="cls-3" x1="212.4" y1="280" x2="212.4" y2="281.69"/>
    <line class="cls-3" x1="225.98" y1="280" x2="225.98" y2="281.69"/>
    <line class="cls-3" x1="54.91" y1="280" x2="52.99" y2="280"/>
    <line class="cls-3" x1="54.91" y1="269.02" x2="52.99" y2="269.02"/>
    <line class="cls-3" x1="54.91" y1="258.04" x2="52.99" y2="258.04"/>
    <line class="cls-3" x1="54.91" y1="247.06" x2="52.99" y2="247.06"/>
    <line class="cls-3" x1="54.91" y1="236.08" x2="52.99" y2="236.08"/>
    <line class="cls-3" x1="54.91" y1="225.1" x2="52.99" y2="225.1"/>
    <g class="cls-46">
      <polyline class="cls-6" points="63.06 262.37 76.64 262.34 90.21 262.28 103.79 262.22 117.37 262.41 130.94 262.72 144.52 262.14 158.1 262.99 171.67 263.79 185.25 262.47 198.82 262.58 212.4 260.62 225.98 258.14"/>
      <g class="cls-55">
        <path class="cls-19" d="m63.06,263.81c.44,0,.86-.15,1.17-.42.31-.27.48-.64.48-1.02s-.17-.75-.48-1.02c-.31-.27-.73-.42-1.17-.42s-.86.15-1.17.42c-.31.27-.48.64-.48,1.02s.17.75.48,1.02c.31.27.73.42,1.17.42Z"/>
        <path class="cls-7" d="m63.06,263.81c.44,0,.86-.15,1.17-.42.31-.27.48-.64.48-1.02s-.17-.75-.48-1.02c-.31-.27-.73-.42-1.17-.42s-.86.15-1.17.42c-.31.27-.48.64-.48,1.02s.17.75.48,1.02c.31.27.73.42,1.17.42Z"/>
      </g>
      <g class="cls-93">
        <path class="cls-19" d="m76.64,263.78c.44,0,.86-.15,1.17-.42.31-.27.48-.64.48-1.02s-.17-.75-.48-1.02c-.31-.27-.73-.42-1.17-.42s-.86.15-1.17.42c-.31.27-.48.64-.48,1.02s.17.75.48,1.02c.31.27.73.42,1.17.42Z"/>
        <path class="cls-7" d="m76.64,263.78c.44,0,.86-.15,1.17-.42.31-.27.48-.64.48-1.02s-.17-.75-.48-1.02c-.31-.27-.73-.42-1.17-.42s-.86.15-1.17.42c-.31.27-.48.64-.48,1.02s.17.75.48,1.02c.31.27.73.42,1.17.42Z"/>
      </g>
      <g class="cls-79">
        <path class="cls-19" d="m90.21,263.72c.44,0,.86-.15,1.17-.42.31-.27.48-.64.48-1.02s-.17-.75-.48-1.02c-.31-.27-.73-.42-1.17-.42s-.86.15-1.17.42c-.31.27-.48.64-.48,1.02s.17.75.48,1.02c.31.27.73.42,1.17.42Z"/>
        <path class="cls-7" d="m90.21,263.72c.44,0,.86-.15,1.17-.42.31-.27.48-.64.48-1.02s-.17-.75-.48-1.02c-.31-.27-.73-.42-1.17-.42s-.86.15-1.17.42c-.31.27-.48.64-.48,1.02s.17.75.48,1.02c.31.27.73.42,1.17.42Z"/>
      </g>
      <g class="cls-60">
        <path class="cls-19" d="m103.79,263.66c.44,0,.86-.15,1.17-.42.31-.27.48-.64.48-1.02s-.17-.75-.48-1.02c-.31-.27-.73-.42-1.17-.42s-.86.15-1.17.42c-.31.27-.48.64-.48,1.02s.17.75.48,1.02c.31.27.73.42,1.17.42Z"/>
        <path class="cls-7" d="m103.79,263.66c.44,0,.86-.15,1.17-.42.31-.27.48-.64.48-1.02s-.17-.75-.48-1.02c-.31-.27-.73-.42-1.17-.42s-.86.15-1.17.42c-.31.27-.48.64-.48,1.02s.17.75.48,1.02c.31.27.73.42,1.17.42Z"/>
      </g>
      <g class="cls-72">
        <path class="cls-19" d="m117.37,263.86c.44,0,.86-.15,1.17-.42.31-.27.48-.64.48-1.02s-.17-.75-.48-1.02c-.31-.27-.73-.42-1.17-.42s-.86.15-1.17.42c-.31.27-.48.64-.48,1.02s.17.75.48,1.02c.31.27.73.42,1.17.42Z"/>
        <path class="cls-7" d="m117.37,263.86c.44,0,.86-.15,1.17-.42.31-.27.48-.64.48-1.02s-.17-.75-.48-1.02c-.31-.27-.73-.42-1.17-.42s-.86.15-1.17.42c-.31.27-.48.64-.48,1.02s.17.75.48,1.02c.31.27.73.42,1.17.42Z"/>
      </g>
      <g class="cls-21">
        <path class="cls-19" d="m130.94,264.16c.44,0,.86-.15,1.17-.42.31-.27.48-.64.48-1.02s-.17-.75-.48-1.02c-.31-.27-.73-.42-1.17-.42s-.86.15-1.17.42c-.31.27-.48.64-.48,1.02s.17.75.48,1.02c.31.27.73.42,1.17.42Z"/>
        <path class="cls-7" d="m130.94,264.16c.44,0,.86-.15,1.17-.42.31-.27.48-.64.48-1.02s-.17-.75-.48-1.02c-.31-.27-.73-.42-1.17-.42s-.86.15-1.17.42c-.31.27-.48.64-.48,1.02s.17.75.48,1.02c.31.27.73.42,1.17.42Z"/>
      </g>
      <g class="cls-16">
        <path class="cls-19" d="m144.52,263.58c.44,0,.86-.15,1.17-.42.31-.27.48-.64.48-1.02s-.17-.75-.48-1.02c-.31-.27-.73-.42-1.17-.42s-.86.15-1.17.42c-.31.27-.48.64-.48,1.02s.17.75.48,1.02c.31.27.73.42,1.17.42Z"/>
        <path class="cls-7" d="m144.52,263.58c.44,0,.86-.15,1.17-.42.31-.27.48-.64.48-1.02s-.17-.75-.48-1.02c-.31-.27-.73-.42-1.17-.42s-.86.15-1.17.42c-.31.27-.48.64-.48,1.02s.17.75.48,1.02c.31.27.73.42,1.17.42Z"/>
      </g>
      <g class="cls-49">
        <path class="cls-19" d="m158.1,264.43c.44,0,.86-.15,1.17-.42.31-.27.48-.64.48-1.02s-.17-.75-.48-1.02c-.31-.27-.73-.42-1.17-.42s-.86.15-1.17.42c-.31.27-.48.64-.48,1.02s.17.75.48,1.02c.31.27.73.42,1.17.42Z"/>
        <path class="cls-7" d="m158.1,264.43c.44,0,.86-.15,1.17-.42.31-.27.48-.64.48-1.02s-.17-.75-.48-1.02c-.31-.27-.73-.42-1.17-.42s-.86.15-1.17.42c-.31.27-.48.64-.48,1.02s.17.75.48,1.02c.31.27.73.42,1.17.42Z"/>
      </g>
      <g class="cls-94">
        <path class="cls-19" d="m171.67,265.23c.44,0,.86-.15,1.17-.42.31-.27.48-.64.48-1.02s-.17-.75-.48-1.02c-.31-.27-.73-.42-1.17-.42s-.86.15-1.17.42c-.31.27-.48.64-.48,1.02s.17.75.48,1.02c.31.27.73.42,1.17.42Z"/>
        <path class="cls-7" d="m171.67,265.23c.44,0,.86-.15,1.17-.42.31-.27.48-.64.48-1.02s-.17-.75-.48-1.02c-.31-.27-.73-.42-1.17-.42s-.86.15-1.17.42c-.31.27-.48.64-.48,1.02s.17.75.48,1.02c.31.27.73.42,1.17.42Z"/>
      </g>
      <g class="cls-54">
        <path class="cls-19" d="m185.25,263.91c.44,0,.86-.15,1.17-.42.31-.27.48-.64.48-1.02s-.17-.75-.48-1.02c-.31-.27-.73-.42-1.17-.42s-.86.15-1.17.42c-.31.27-.48.64-.48,1.02s.17.75.48,1.02c.31.27.73.42,1.17.42Z"/>
        <path class="cls-7" d="m185.25,263.91c.44,0,.86-.15,1.17-.42.31-.27.48-.64.48-1.02s-.17-.75-.48-1.02c-.31-.27-.73-.42-1.17-.42s-.86.15-1.17.42c-.31.27-.48.64-.48,1.02s.17.75.48,1.02c.31.27.73.42,1.17.42Z"/>
      </g>
      <g class="cls-38">
        <path class="cls-19" d="m198.82,264.02c.44,0,.86-.15,1.17-.42.31-.27.48-.64.48-1.02s-.17-.75-.48-1.02c-.31-.27-.73-.42-1.17-.42s-.86.15-1.17.42c-.31.27-.48.64-.48,1.02s.17.75.48,1.02c.31.27.73.42,1.17.42Z"/>
        <path class="cls-7" d="m198.82,264.02c.44,0,.86-.15,1.17-.42.31-.27.48-.64.48-1.02s-.17-.75-.48-1.02c-.31-.27-.73-.42-1.17-.42s-.86.15-1.17.42c-.31.27-.48.64-.48,1.02s.17.75.48,1.02c.31.27.73.42,1.17.42Z"/>
      </g>
      <g class="cls-53">
        <path class="cls-19" d="m212.4,262.06c.44,0,.86-.15,1.17-.42.31-.27.48-.64.48-1.02s-.17-.75-.48-1.02c-.31-.27-.73-.42-1.17-.42s-.86.15-1.17.42c-.31.27-.48.64-.48,1.02s.17.75.48,1.02c.31.27.73.42,1.17.42Z"/>
        <path class="cls-7" d="m212.4,262.06c.44,0,.86-.15,1.17-.42.31-.27.48-.64.48-1.02s-.17-.75-.48-1.02c-.31-.27-.73-.42-1.17-.42s-.86.15-1.17.42c-.31.27-.48.64-.48,1.02s.17.75.48,1.02c.31.27.73.42,1.17.42Z"/>
      </g>
      <g class="cls-69">
        <path class="cls-19" d="m225.98,259.58c.44,0,.86-.15,1.17-.42.31-.27.48-.64.48-1.02s-.17-.75-.48-1.02c-.31-.27-.73-.42-1.17-.42s-.86.15-1.17.42c-.31.27-.48.64-.48,1.02s.17.75.48,1.02c.31.27.73.42,1.17.42Z"/>
        <path class="cls-7" d="m225.98,259.58c.44,0,.86-.15,1.17-.42.31-.27.48-.64.48-1.02s-.17-.75-.48-1.02c-.31-.27-.73-.42-1.17-.42s-.86.15-1.17.42c-.31.27-.48.64-.48,1.02s.17.75.48,1.02c.31.27.73.42,1.17.42Z"/>
      </g>
    </g>
    <line class="cls-8" x1="54.91" y1="280" x2="54.91" y2="225.1"/>
    <line class="cls-8" x1="234.12" y1="280" x2="234.12" y2="225.1"/>
    <line class="cls-8" x1="54.91" y1="280" x2="234.12" y2="280"/>
    <line class="cls-8" x1="54.91" y1="225.1" x2="234.12" y2="225.1"/>
    <line class="cls-3" x1="324.22" y1="279.97" x2="324.22" y2="281.65"/>
    <line class="cls-3" x1="337.8" y1="279.97" x2="337.8" y2="281.65"/>
    <line class="cls-3" x1="351.37" y1="279.97" x2="351.37" y2="281.65"/>
    <line class="cls-3" x1="364.95" y1="279.97" x2="364.95" y2="281.65"/>
    <line class="cls-3" x1="378.53" y1="279.97" x2="378.53" y2="281.65"/>
    <line class="cls-3" x1="392.1" y1="279.97" x2="392.1" y2="281.65"/>
    <line class="cls-3" x1="405.68" y1="279.97" x2="405.68" y2="281.65"/>
    <line class="cls-3" x1="419.26" y1="279.97" x2="419.26" y2="281.65"/>
    <line class="cls-3" x1="432.83" y1="279.97" x2="432.83" y2="281.65"/>
    <line class="cls-3" x1="446.41" y1="279.97" x2="446.41" y2="281.65"/>
    <line class="cls-3" x1="459.98" y1="279.97" x2="459.98" y2="281.65"/>
    <line class="cls-3" x1="473.56" y1="279.97" x2="473.56" y2="281.65"/>
    <line class="cls-3" x1="487.14" y1="279.97" x2="487.14" y2="281.65"/>
    <line class="cls-3" x1="316.07" y1="279.97" x2="314.15" y2="279.97"/>
    <line class="cls-3" x1="316.07" y1="268.99" x2="314.15" y2="268.99"/>
    <line class="cls-3" x1="316.07" y1="258.01" x2="314.15" y2="258.01"/>
    <line class="cls-3" x1="316.07" y1="247.03" x2="314.15" y2="247.03"/>
    <line class="cls-3" x1="316.07" y1="236.05" x2="314.15" y2="236.05"/>
    <line class="cls-3" x1="316.07" y1="225.07" x2="314.15" y2="225.07"/>
    <polyline class="cls-6" points="324.22 264.3 337.8 264.29 351.37 264.34 364.95 264.33 378.53 264.33 392.1 264.23 405.68 264.11 419.26 264.5 432.83 265.37 446.41 266.08 459.98 263.42 473.56 256.81 487.14 253.79"/>
    <g class="cls-45">
      <path class="cls-19" d="m324.22,265.74c.44,0,.86-.15,1.17-.42.31-.27.48-.64.48-1.02s-.17-.75-.48-1.02c-.31-.27-.73-.42-1.17-.42s-.86.15-1.17.42c-.31.27-.48.64-.48,1.02s.17.75.48,1.02c.31.27.73.42,1.17.42Z"/>
      <path class="cls-7" d="m324.22,265.74c.44,0,.86-.15,1.17-.42.31-.27.48-.64.48-1.02s-.17-.75-.48-1.02c-.31-.27-.73-.42-1.17-.42s-.86.15-1.17.42c-.31.27-.48.64-.48,1.02s.17.75.48,1.02c.31.27.73.42,1.17.42Z"/>
    </g>
    <g class="cls-20">
      <path class="cls-19" d="m337.8,265.73c.44,0,.86-.15,1.17-.42.31-.27.48-.64.48-1.02s-.17-.75-.48-1.02c-.31-.27-.73-.42-1.17-.42s-.86.15-1.17.42c-.31.27-.48.64-.48,1.02s.17.75.48,1.02c.31.27.73.42,1.17.42Z"/>
      <path class="cls-7" d="m337.8,265.73c.44,0,.86-.15,1.17-.42.31-.27.48-.64.48-1.02s-.17-.75-.48-1.02c-.31-.27-.73-.42-1.17-.42s-.86.15-1.17.42c-.31.27-.48.64-.48,1.02s.17.75.48,1.02c.31.27.73.42,1.17.42Z"/>
    </g>
    <g class="cls-85">
      <path class="cls-19" d="m351.37,265.78c.44,0,.86-.15,1.17-.42.31-.27.48-.64.48-1.02s-.17-.75-.48-1.02c-.31-.27-.73-.42-1.17-.42s-.86.15-1.17.42c-.31.27-.48.64-.48,1.02s.17.75.48,1.02c.31.27.73.42,1.17.42Z"/>
      <path class="cls-7" d="m351.37,265.78c.44,0,.86-.15,1.17-.42.31-.27.48-.64.48-1.02s-.17-.75-.48-1.02c-.31-.27-.73-.42-1.17-.42s-.86.15-1.17.42c-.31.27-.48.64-.48,1.02s.17.75.48,1.02c.31.27.73.42,1.17.42Z"/>
    </g>
    <g class="cls-75">
      <path class="cls-19" d="m364.95,265.77c.44,0,.86-.15,1.17-.42.31-.27.48-.64.48-1.02s-.17-.75-.48-1.02c-.31-.27-.73-.42-1.17-.42s-.86.15-1.17.42c-.31.27-.48.64-.48,1.02s.17.75.48,1.02c.31.27.73.42,1.17.42Z"/>
      <path class="cls-7" d="m364.95,265.77c.44,0,.86-.15,1.17-.42.31-.27.48-.64.48-1.02s-.17-.75-.48-1.02c-.31-.27-.73-.42-1.17-.42s-.86.15-1.17.42c-.31.27-.48.64-.48,1.02s.17.75.48,1.02c.31.27.73.42,1.17.42Z"/>
    </g>
    <g class="cls-57">
      <path class="cls-19" d="m378.53,265.77c.44,0,.86-.15,1.17-.42.31-.27.48-.64.48-1.02s-.17-.75-.48-1.02c-.31-.27-.73-.42-1.17-.42s-.86.15-1.17.42c-.31.27-.48.64-.48,1.02s.17.75.48,1.02c.31.27.73.42,1.17.42Z"/>
      <path class="cls-7" d="m378.53,265.77c.44,0,.86-.15,1.17-.42.31-.27.48-.64.48-1.02s-.17-.75-.48-1.02c-.31-.27-.73-.42-1.17-.42s-.86.15-1.17.42c-.31.27-.48.64-.48,1.02s.17.75.48,1.02c.31.27.73.42,1.17.42Z"/>
    </g>
    <g class="cls-10">
      <path class="cls-19" d="m392.1,265.67c.44,0,.86-.15,1.17-.42.31-.27.48-.64.48-1.02s-.17-.75-.48-1.02c-.31-.27-.73-.42-1.17-.42s-.86.15-1.17.42c-.31.27-.48.64-.48,1.02s.17.75.48,1.02c.31.27.73.42,1.17.42Z"/>
      <path class="cls-7" d="m392.1,265.67c.44,0,.86-.15,1.17-.42.31-.27.48-.64.48-1.02s-.17-.75-.48-1.02c-.31-.27-.73-.42-1.17-.42s-.86.15-1.17.42c-.31.27-.48.64-.48,1.02s.17.75.48,1.02c.31.27.73.42,1.17.42Z"/>
    </g>
    <g class="cls-39">
      <path class="cls-19" d="m405.68,265.55c.44,0,.86-.15,1.17-.42.31-.27.48-.64.48-1.02s-.17-.75-.48-1.02c-.31-.27-.73-.42-1.17-.42s-.86.15-1.17.42c-.31.27-.48.64-.48,1.02s.17.75.48,1.02c.31.27.73.42,1.17.42Z"/>
      <path class="cls-7" d="m405.68,265.55c.44,0,.86-.15,1.17-.42.31-.27.48-.64.48-1.02s-.17-.75-.48-1.02c-.31-.27-.73-.42-1.17-.42s-.86.15-1.17.42c-.31.27-.48.64-.48,1.02s.17.75.48,1.02c.31.27.73.42,1.17.42Z"/>
    </g>
    <g class="cls-18">
      <path class="cls-19" d="m419.26,265.94c.44,0,.86-.15,1.17-.42.31-.27.48-.64.48-1.02s-.17-.75-.48-1.02c-.31-.27-.73-.42-1.17-.42s-.86.15-1.17.42c-.31.27-.48.64-.48,1.02s.17.75.48,1.02c.31.27.73.42,1.17.42Z"/>
      <path class="cls-7" d="m419.26,265.94c.44,0,.86-.15,1.17-.42.31-.27.48-.64.48-1.02s-.17-.75-.48-1.02c-.31-.27-.73-.42-1.17-.42s-.86.15-1.17.42c-.31.27-.48.64-.48,1.02s.17.75.48,1.02c.31.27.73.42,1.17.42Z"/>
    </g>
    <g class="cls-67">
      <path class="cls-19" d="m432.83,266.81c.44,0,.86-.15,1.17-.42.31-.27.48-.64.48-1.02s-.17-.75-.48-1.02c-.31-.27-.73-.42-1.17-.42s-.86.15-1.17.42c-.31.27-.48.64-.48,1.02s.17.75.48,1.02c.31.27.73.42,1.17.42Z"/>
      <path class="cls-7" d="m432.83,266.81c.44,0,.86-.15,1.17-.42.31-.27.48-.64.48-1.02s-.17-.75-.48-1.02c-.31-.27-.73-.42-1.17-.42s-.86.15-1.17.42c-.31.27-.48.64-.48,1.02s.17.75.48,1.02c.31.27.73.42,1.17.42Z"/>
    </g>
    <g class="cls-91">
      <path class="cls-19" d="m446.41,267.53c.44,0,.86-.15,1.17-.42.31-.27.48-.64.48-1.02s-.17-.75-.48-1.02c-.31-.27-.73-.42-1.17-.42s-.86.15-1.17.42c-.31.27-.48.64-.48,1.02s.17.75.48,1.02c.31.27.73.42,1.17.42Z"/>
      <path class="cls-7" d="m446.41,267.53c.44,0,.86-.15,1.17-.42.31-.27.48-.64.48-1.02s-.17-.75-.48-1.02c-.31-.27-.73-.42-1.17-.42s-.86.15-1.17.42c-.31.27-.48.64-.48,1.02s.17.75.48,1.02c.31.27.73.42,1.17.42Z"/>
    </g>
    <g class="cls-66">
      <path class="cls-19" d="m459.98,264.86c.44,0,.86-.15,1.17-.42.31-.27.48-.64.48-1.02s-.17-.75-.48-1.02c-.31-.27-.73-.42-1.17-.42s-.86.15-1.17.42c-.31.27-.48.64-.48,1.02s.17.75.48,1.02c.31.27.73.42,1.17.42Z"/>
      <path class="cls-7" d="m459.98,264.86c.44,0,.86-.15,1.17-.42.31-.27.48-.64.48-1.02s-.17-.75-.48-1.02c-.31-.27-.73-.42-1.17-.42s-.86.15-1.17.42c-.31.27-.48.64-.48,1.02s.17.75.48,1.02c.31.27.73.42,1.17.42Z"/>
    </g>
    <g class="cls-92">
      <path class="cls-19" d="m473.56,258.25c.44,0,.86-.15,1.17-.42.31-.27.48-.64.48-1.02s-.17-.75-.48-1.02c-.31-.27-.73-.42-1.17-.42s-.86.15-1.17.42c-.31.27-.48.64-.48,1.02s.17.75.48,1.02c.31.27.73.42,1.17.42Z"/>
      <path class="cls-7" d="m473.56,258.25c.44,0,.86-.15,1.17-.42.31-.27.48-.64.48-1.02s-.17-.75-.48-1.02c-.31-.27-.73-.42-1.17-.42s-.86.15-1.17.42c-.31.27-.48.64-.48,1.02s.17.75.48,1.02c.31.27.73.42,1.17.42Z"/>
    </g>
    <g class="cls-64">
      <path class="cls-19" d="m487.14,255.23c.44,0,.86-.15,1.17-.42.31-.27.48-.64.48-1.02s-.17-.75-.48-1.02c-.31-.27-.73-.42-1.17-.42s-.86.15-1.17.42c-.31.27-.48.64-.48,1.02s.17.75.48,1.02c.31.27.73.42,1.17.42Z"/>
      <path class="cls-7" d="m487.14,255.23c.44,0,.86-.15,1.17-.42.31-.27.48-.64.48-1.02s-.17-.75-.48-1.02c-.31-.27-.73-.42-1.17-.42s-.86.15-1.17.42c-.31.27-.48.64-.48,1.02s.17.75.48,1.02c.31.27.73.42,1.17.42Z"/>
    </g>
    <rect class="cls-9" x="316.07" y="225.07" width="179.21" height="54.9"/>
    <rect class="cls-9" x="316.07" y="225.07" width="179.21" height="54.9"/>
    <line class="cls-8" x1="316.07" y1="279.97" x2="316.07" y2="225.07"/>
    <line class="cls-8" x1="495.28" y1="279.97" x2="495.28" y2="225.07"/>
    <line class="cls-8" x1="316.07" y1="279.97" x2="495.28" y2="279.97"/>
    <line class="cls-8" x1="316.07" y1="225.07" x2="495.28" y2="225.07"/>
    <line class="cls-3" x1="193.68" y1="465.38" x2="193.68" y2="467.06"/>
    <line class="cls-3" x1="207.25" y1="465.38" x2="207.25" y2="467.06"/>
    <line class="cls-3" x1="220.83" y1="465.38" x2="220.83" y2="467.06"/>
    <line class="cls-3" x1="234.41" y1="465.38" x2="234.41" y2="467.06"/>
    <line class="cls-3" x1="247.98" y1="465.38" x2="247.98" y2="467.06"/>
    <line class="cls-3" x1="261.56" y1="465.38" x2="261.56" y2="467.06"/>
    <line class="cls-3" x1="275.14" y1="465.38" x2="275.14" y2="467.06"/>
    <line class="cls-3" x1="288.71" y1="465.38" x2="288.71" y2="467.06"/>
    <line class="cls-3" x1="302.29" y1="465.38" x2="302.29" y2="467.06"/>
    <line class="cls-3" x1="315.87" y1="465.38" x2="315.87" y2="467.06"/>
    <line class="cls-3" x1="329.44" y1="465.38" x2="329.44" y2="467.06"/>
    <line class="cls-3" x1="343.02" y1="465.38" x2="343.02" y2="467.06"/>
    <line class="cls-3" x1="356.59" y1="465.38" x2="356.59" y2="467.06"/>
    <line class="cls-3" x1="185.53" y1="465.38" x2="183.6" y2="465.38"/>
    <line class="cls-3" x1="185.53" y1="454.4" x2="183.6" y2="454.4"/>
    <line class="cls-3" x1="185.53" y1="443.42" x2="183.6" y2="443.42"/>
    <line class="cls-3" x1="185.53" y1="432.43" x2="183.6" y2="432.43"/>
    <line class="cls-3" x1="185.53" y1="421.45" x2="183.6" y2="421.45"/>
    <line class="cls-3" x1="185.53" y1="410.47" x2="183.6" y2="410.47"/>
    <polyline class="cls-6" points="193.68 449.75 207.25 449.73 220.83 449.86 234.41 449.79 247.98 449.65 261.56 449.78 275.14 449.12 288.71 448.47 302.29 449.43 315.87 450.44 329.44 447.97 343.02 444.72 356.59 443.35"/>
    <g class="cls-90">
      <path class="cls-19" d="m193.68,451.2c.44,0,.86-.15,1.17-.42.31-.27.48-.64.48-1.02s-.17-.75-.48-1.02c-.31-.27-.73-.42-1.17-.42s-.86.15-1.17.42c-.31.27-.48.64-.48,1.02s.17.75.48,1.02c.31.27.73.42,1.17.42Z"/>
      <path class="cls-7" d="m193.68,451.2c.44,0,.86-.15,1.17-.42.31-.27.48-.64.48-1.02s-.17-.75-.48-1.02c-.31-.27-.73-.42-1.17-.42s-.86.15-1.17.42c-.31.27-.48.64-.48,1.02s.17.75.48,1.02c.31.27.73.42,1.17.42Z"/>
    </g>
    <g class="cls-73">
      <path class="cls-19" d="m207.25,451.18c.44,0,.86-.15,1.17-.42.31-.27.48-.64.48-1.02s-.17-.75-.48-1.02c-.31-.27-.73-.42-1.17-.42s-.86.15-1.17.42c-.31.27-.48.64-.48,1.02s.17.75.48,1.02c.31.27.73.42,1.17.42Z"/>
      <path class="cls-7" d="m207.25,451.18c.44,0,.86-.15,1.17-.42.31-.27.48-.64.48-1.02s-.17-.75-.48-1.02c-.31-.27-.73-.42-1.17-.42s-.86.15-1.17.42c-.31.27-.48.64-.48,1.02s.17.75.48,1.02c.31.27.73.42,1.17.42Z"/>
    </g>
    <g class="cls-78">
      <path class="cls-19" d="m220.83,451.3c.44,0,.86-.15,1.17-.42.31-.27.48-.64.48-1.02s-.17-.75-.48-1.02c-.31-.27-.73-.42-1.17-.42s-.86.15-1.17.42c-.31.27-.48.64-.48,1.02s.17.75.48,1.02c.31.27.73.42,1.17.42Z"/>
      <path class="cls-7" d="m220.83,451.3c.44,0,.86-.15,1.17-.42.31-.27.48-.64.48-1.02s-.17-.75-.48-1.02c-.31-.27-.73-.42-1.17-.42s-.86.15-1.17.42c-.31.27-.48.64-.48,1.02s.17.75.48,1.02c.31.27.73.42,1.17.42Z"/>
    </g>
    <g class="cls-89">
      <path class="cls-19" d="m234.41,451.23c.44,0,.86-.15,1.17-.42s.48-.64.48-1.02-.17-.75-.48-1.02-.73-.42-1.17-.42-.86.15-1.17.42-.48.64-.48,1.02.17.75.48,1.02.73.42,1.17.42Z"/>
      <path class="cls-7" d="m234.41,451.23c.44,0,.86-.15,1.17-.42s.48-.64.48-1.02-.17-.75-.48-1.02-.73-.42-1.17-.42-.86.15-1.17.42-.48.64-.48,1.02.17.75.48,1.02.73.42,1.17.42Z"/>
    </g>
    <g class="cls-50">
      <path class="cls-19" d="m247.98,451.09c.44,0,.86-.15,1.17-.42s.48-.64.48-1.02-.17-.75-.48-1.02-.73-.42-1.17-.42-.86.15-1.17.42-.48.64-.48,1.02.17.75.48,1.02.73.42,1.17.42Z"/>
      <path class="cls-7" d="m247.98,451.09c.44,0,.86-.15,1.17-.42s.48-.64.48-1.02-.17-.75-.48-1.02-.73-.42-1.17-.42-.86.15-1.17.42-.48.64-.48,1.02.17.75.48,1.02.73.42,1.17.42Z"/>
    </g>
    <g class="cls-84">
      <path class="cls-19" d="m261.56,451.22c.44,0,.86-.15,1.17-.42s.48-.64.48-1.02-.17-.75-.48-1.02-.73-.42-1.17-.42-.86.15-1.17.42-.48.64-.48,1.02.17.75.48,1.02.73.42,1.17.42Z"/>
      <path class="cls-7" d="m261.56,451.22c.44,0,.86-.15,1.17-.42s.48-.64.48-1.02-.17-.75-.48-1.02-.73-.42-1.17-.42-.86.15-1.17.42-.48.64-.48,1.02.17.75.48,1.02.73.42,1.17.42Z"/>
    </g>
    <g class="cls-15">
      <path class="cls-19" d="m275.14,450.56c.44,0,.86-.15,1.17-.42s.48-.64.48-1.02-.17-.75-.48-1.02-.73-.42-1.17-.42-.86.15-1.17.42-.48.64-.48,1.02.17.75.48,1.02.73.42,1.17.42Z"/>
      <path class="cls-7" d="m275.14,450.56c.44,0,.86-.15,1.17-.42s.48-.64.48-1.02-.17-.75-.48-1.02-.73-.42-1.17-.42-.86.15-1.17.42-.48.64-.48,1.02.17.75.48,1.02.73.42,1.17.42Z"/>
    </g>
    <g class="cls-56">
      <path class="cls-19" d="m288.71,449.91c.44,0,.86-.15,1.17-.42s.48-.64.48-1.02-.17-.75-.48-1.02-.73-.42-1.17-.42-.86.15-1.17.42-.48.64-.48,1.02.17.75.48,1.02.73.42,1.17.42Z"/>
      <path class="cls-7" d="m288.71,449.91c.44,0,.86-.15,1.17-.42s.48-.64.48-1.02-.17-.75-.48-1.02-.73-.42-1.17-.42-.86.15-1.17.42-.48.64-.48,1.02.17.75.48,1.02.73.42,1.17.42Z"/>
    </g>
    <g class="cls-68">
      <path class="cls-19" d="m302.29,450.88c.44,0,.86-.15,1.17-.42s.48-.64.48-1.02-.17-.75-.48-1.02-.73-.42-1.17-.42-.86.15-1.17.42-.48.64-.48,1.02.17.75.48,1.02.73.42,1.17.42Z"/>
      <path class="cls-7" d="m302.29,450.88c.44,0,.86-.15,1.17-.42s.48-.64.48-1.02-.17-.75-.48-1.02-.73-.42-1.17-.42-.86.15-1.17.42-.48.64-.48,1.02.17.75.48,1.02.73.42,1.17.42Z"/>
    </g>
    <g class="cls-1">
      <path class="cls-19" d="m315.87,451.89c.44,0,.86-.15,1.17-.42.31-.27.48-.64.48-1.02s-.17-.75-.48-1.02c-.31-.27-.73-.42-1.17-.42s-.86.15-1.17.42c-.31.27-.48.64-.48,1.02s.17.75.48,1.02c.31.27.73.42,1.17.42Z"/>
      <path class="cls-7" d="m315.87,451.89c.44,0,.86-.15,1.17-.42.31-.27.48-.64.48-1.02s-.17-.75-.48-1.02c-.31-.27-.73-.42-1.17-.42s-.86.15-1.17.42c-.31.27-.48.64-.48,1.02s.17.75.48,1.02c.31.27.73.42,1.17.42Z"/>
    </g>
    <g class="cls-11">
      <path class="cls-19" d="m329.44,449.41c.44,0,.86-.15,1.17-.42.31-.27.48-.64.48-1.02s-.17-.75-.48-1.02c-.31-.27-.73-.42-1.17-.42s-.86.15-1.17.42c-.31.27-.48.64-.48,1.02s.17.75.48,1.02c.31.27.73.42,1.17.42Z"/>
      <path class="cls-7" d="m329.44,449.41c.44,0,.86-.15,1.17-.42.31-.27.48-.64.48-1.02s-.17-.75-.48-1.02c-.31-.27-.73-.42-1.17-.42s-.86.15-1.17.42c-.31.27-.48.64-.48,1.02s.17.75.48,1.02c.31.27.73.42,1.17.42Z"/>
    </g>
    <g class="cls-17">
      <path class="cls-19" d="m343.02,446.16c.44,0,.86-.15,1.17-.42.31-.27.48-.64.48-1.02s-.17-.75-.48-1.02c-.31-.27-.73-.42-1.17-.42s-.86.15-1.17.42c-.31.27-.48.64-.48,1.02s.17.75.48,1.02c.31.27.73.42,1.17.42Z"/>
      <path class="cls-7" d="m343.02,446.16c.44,0,.86-.15,1.17-.42.31-.27.48-.64.48-1.02s-.17-.75-.48-1.02c-.31-.27-.73-.42-1.17-.42s-.86.15-1.17.42c-.31.27-.48.64-.48,1.02s.17.75.48,1.02c.31.27.73.42,1.17.42Z"/>
    </g>
    <g class="cls-86">
      <path class="cls-19" d="m356.59,444.79c.44,0,.86-.15,1.17-.42.31-.27.48-.64.48-1.02s-.17-.75-.48-1.02c-.31-.27-.73-.42-1.17-.42s-.86.15-1.17.42c-.31.27-.48.64-.48,1.02s.17.75.48,1.02c.31.27.73.42,1.17.42Z"/>
      <path class="cls-7" d="m356.59,444.79c.44,0,.86-.15,1.17-.42.31-.27.48-.64.48-1.02s-.17-.75-.48-1.02c-.31-.27-.73-.42-1.17-.42s-.86.15-1.17.42c-.31.27-.48.64-.48,1.02s.17.75.48,1.02c.31.27.73.42,1.17.42Z"/>
    </g>
    <rect class="cls-9" x="185.53" y="410.47" width="179.21" height="54.9"/>
    <rect class="cls-9" x="185.53" y="410.47" width="179.21" height="54.9"/>
    <line class="cls-8" x1="185.53" y1="465.38" x2="185.53" y2="410.47"/>
    <line class="cls-8" x1="364.74" y1="465.38" x2="364.74" y2="410.47"/>
    <line class="cls-8" x1="185.53" y1="465.38" x2="364.74" y2="465.38"/>
    <line class="cls-8" x1="185.53" y1="410.47" x2="364.74" y2="410.47"/>
    <rect class="cls-4" x=".5" y=".5" width="520.33" height="606"/>
  </g>
</svg>