<?xml version="1.0" encoding="UTF-8"?>
<svg id="Capa_1" data-name="Capa 1" xmlns="http://www.w3.org/2000/svg" viewBox="0 0 455.41 180.92">
  <defs>
    <style>
      .cls-1 {
        stroke: #000;
        stroke-linejoin: round;
        stroke-width: .8px;
      }

      .cls-1, .cls-2, .cls-3, .cls-4, .cls-5, .cls-6, .cls-7, .cls-8 {
        fill: none;
      }

      .cls-9, .cls-10, .cls-11 {
        fill: #fff;
      }

      .cls-12, .cls-13, .cls-14, .cls-15, .cls-16 {
        font-family: ArialMT, Arial;
      }

      .cls-12, .cls-13, .cls-14, .cls-15, .cls-16, .cls-17 {
        fill: #1d1d1b;
      }

      .cls-12, .cls-14, .cls-16 {
        font-size: 7px;
      }

      .cls-2 {
        stroke-dasharray: 0 0 2.02 1.01;
      }

      .cls-2, .cls-3, .cls-10, .cls-4, .cls-5, .cls-6, .cls-7, .cls-11, .cls-8 {
        stroke-miterlimit: 10;
      }

      .cls-2, .cls-3, .cls-8 {
        stroke: #e30613;
      }

      .cls-10, .cls-7 {
        stroke: #2c7546;
      }

      .cls-13 {
        font-size: 7.5px;
      }

      .cls-14 {
        letter-spacing: -.05em;
      }

      .cls-4 {
        stroke: #1d1d1b;
      }

      .cls-15 {
        font-size: 10px;
      }

      .cls-18 {
        letter-spacing: -.16em;
      }

      .cls-16, .cls-19 {
        letter-spacing: -.05em;
      }

      .cls-17 {
        font-family: MyriadPro-Regular, 'Myriad Pro';
        font-size: 5px;
      }

      .cls-5, .cls-11 {
        stroke: #ee7116;
      }

      .cls-6 {
        stroke: #dadada;
        stroke-width: 4px;
      }

      .cls-8 {
        stroke-dasharray: 0 0 2.04 1.02;
      }
    </style>
  </defs>
  <g>
    <line class="cls-3" x1="363.2" y1="90.19" x2="363.2" y2="89.19"/>
    <line class="cls-2" x1="363.2" y1="88.18" x2="363.2" y2="28.14"/>
    <line class="cls-3" x1="363.2" y1="27.63" x2="363.2" y2="26.63"/>
  </g>
  <text class="cls-15" transform="translate(.02 8.58)"><tspan x="0" y="0" xml:space="preserve">A.   Cross-sectional epidemeological analysis</tspan></text>
  <text class="cls-12" transform="translate(16.23 111.61)"><tspan class="cls-18" x="0" y="0">T</tspan><tspan class="cls-19" x="3.15" y="0">otal (≥1 language)</tspan></text>
  <text class="cls-16" transform="translate(7.1 122.73)"><tspan x="0" y="0">3 additional languages</tspan></text>
  <text class="cls-16" transform="translate(7.1 133.84)"><tspan x="0" y="0">2 additional languages</tspan></text>
  <text class="cls-16" transform="translate(10.25 144.96)"><tspan x="0" y="0">1 additional language</tspan></text>
  <text class="cls-14" transform="translate(25.12 156.07) scale(1.01 1)"><tspan x="0" y="0">Monolingualism</tspan></text>
  <g>
    <line class="cls-1" x1="71.99" y1="110.03" x2="70.09" y2="110.03"/>
    <line class="cls-1" x1="71.99" y1="120.96" x2="70.09" y2="120.96"/>
    <line class="cls-1" x1="71.99" y1="132.07" x2="70.09" y2="132.07"/>
    <line class="cls-1" x1="71.99" y1="143.18" x2="70.09" y2="143.18"/>
    <line class="cls-1" x1="71.99" y1="154.29" x2="70.09" y2="154.29"/>
  </g>
  <text class="cls-12" transform="translate(125.41 166.49)"><tspan x="0" y="0">1.0</tspan></text>
  <text class="cls-12" transform="translate(136.15 178.65)"><tspan x="0" y="0">OR</tspan></text>
  <text class="cls-12" transform="translate(368.38 178.65)"><tspan x="0" y="0">OR</tspan></text>
  <text class="cls-12" transform="translate(212.73 166.49)"><tspan x="0" y="0">2.5</tspan></text>
  <text class="cls-12" transform="translate(70.04 166.57)"><tspan x="0" y="0">0</tspan></text>
  <line class="cls-1" x1="71.99" y1="158.54" x2="71.99" y2="160.73"/>
  <line class="cls-1" x1="130.22" y1="158.54" x2="130.22" y2="160.73"/>
  <text class="cls-12" transform="translate(153.9 166.49)"><tspan x="0" y="0">1.5</tspan></text>
  <line class="cls-1" x1="158.71" y1="158.54" x2="158.71" y2="160.73"/>
  <text class="cls-12" transform="translate(183.19 166.49)"><tspan x="0" y="0">2.0</tspan></text>
  <line class="cls-1" x1="188" y1="158.54" x2="188" y2="160.73"/>
  <text class="cls-12" transform="translate(96.47 166.49)"><tspan x="0" y="0">0.5</tspan></text>
  <line class="cls-1" x1="101.28" y1="158.54" x2="101.28" y2="160.73"/>
  <line class="cls-1" x1="217.59" y1="158.54" x2="217.59" y2="160.73"/>
  <g>
    <line class="cls-3" x1="130.27" y1="158.54" x2="130.27" y2="157.54"/>
    <line class="cls-8" x1="130.27" y1="156.52" x2="130.27" y2="105.03"/>
    <line class="cls-3" x1="130.27" y1="104.52" x2="130.27" y2="103.52"/>
  </g>
  <line class="cls-7" x1="96.69" y1="110.03" x2="104.27" y2="110.03"/>
  <rect class="cls-10" x="97.65" y="107.2" width="5.67" height="5.67" rx="1.42" ry="1.42"/>
  <line class="cls-7" x1="113.24" y1="120.96" x2="122.21" y2="120.96"/>
  <rect class="cls-10" x="114.89" y="118.12" width="5.67" height="5.67" rx="1.42" ry="1.42"/>
  <line class="cls-7" x1="103.13" y1="132.07" x2="111.38" y2="132.07"/>
  <rect class="cls-10" x="104.76" y="129.23" width="5.67" height="5.67" rx="1.42" ry="1.42"/>
  <line class="cls-7" x1="109.52" y1="143.18" x2="117.68" y2="143.18"/>
  <rect class="cls-10" x="110.77" y="140.34" width="5.67" height="5.67" rx="1.42" ry="1.42"/>
  <line class="cls-5" x1="203.64" y1="154.29" x2="181.33" y2="154.29"/>
  <rect class="cls-11" x="188.94" y="151.46" width="5.67" height="5.67" rx="1.42" ry="1.42"/>
  <text class="cls-12" transform="translate(16.23 36.19)"><tspan class="cls-18" x="0" y="0">T</tspan><tspan class="cls-19" x="3.15" y="0">otal (≥1 language)</tspan></text>
  <text class="cls-16" transform="translate(7.1 47.31)"><tspan x="0" y="0">3 additional languages</tspan></text>
  <text class="cls-16" transform="translate(7.1 58.42)"><tspan x="0" y="0">2 additional languages</tspan></text>
  <text class="cls-16" transform="translate(10.25 69.54)"><tspan x="0" y="0">1 additional language</tspan></text>
  <text class="cls-14" transform="translate(25.12 80.65) scale(1.01 1)"><tspan x="0" y="0">Monolingualism</tspan></text>
  <g>
    <line class="cls-1" x1="71.99" y1="34.61" x2="70.09" y2="34.61"/>
    <line class="cls-1" x1="71.99" y1="45.54" x2="70.09" y2="45.54"/>
    <line class="cls-1" x1="71.99" y1="56.65" x2="70.09" y2="56.65"/>
    <line class="cls-1" x1="71.99" y1="67.76" x2="70.09" y2="67.76"/>
    <line class="cls-1" x1="71.99" y1="78.87" x2="70.09" y2="78.87"/>
  </g>
  <g>
    <line class="cls-3" x1="130.25" y1="90.19" x2="130.25" y2="89.19"/>
    <line class="cls-2" x1="130.25" y1="88.18" x2="130.25" y2="28.14"/>
    <line class="cls-3" x1="130.25" y1="27.63" x2="130.25" y2="26.63"/>
  </g>
  <line class="cls-7" x1="100.02" y1="34.61" x2="107.6" y2="34.61"/>
  <rect class="cls-10" x="100.97" y="31.78" width="5.67" height="5.67" rx="1.42" ry="1.42"/>
  <line class="cls-7" x1="116.41" y1="45.54" x2="126.23" y2="45.54"/>
  <rect class="cls-10" x="118.49" y="42.7" width="5.67" height="5.67" rx="1.42" ry="1.42"/>
  <line class="cls-7" x1="111.47" y1="56.67" x2="121.9" y2="56.63"/>
  <rect class="cls-10" x="113.85" y="53.81" width="5.67" height="5.67" rx="1.42" ry="1.42"/>
  <line class="cls-7" x1="106.35" y1="67.76" x2="114.52" y2="67.76"/>
  <rect class="cls-10" x="107.6" y="64.93" width="5.67" height="5.67" rx="1.42" ry="1.42"/>
  <line class="cls-5" x1="167.8" y1="78.87" x2="188.01" y2="78.87"/>
  <rect class="cls-11" x="175.07" y="76.04" width="5.67" height="5.67" rx="1.42" ry="1.42"/>
  <text class="cls-13" transform="translate(184.04 25.06)"><tspan x="0" y="0">Bachelor</tspan></text>
  <text class="cls-13" transform="translate(73.6 25.06)"><tspan x="0" y="0">Removing Slovakia</tspan></text>
  <text class="cls-13" transform="translate(74.19 101.94)"><tspan x="0" y="0">Including Slovakia</tspan></text>
  <line class="cls-6" x1="217.59" y1="90.19" x2="71.99" y2="90.19"/>
  <rect class="cls-4" x="71.99" y="18.05" width="145.43" height="140.48"/>
  <text class="cls-12" transform="translate(249.19 111.61)"><tspan class="cls-18" x="0" y="0">T</tspan><tspan class="cls-19" x="3.15" y="0">otal (≥1 language)</tspan></text>
  <text class="cls-16" transform="translate(240.06 122.73)"><tspan x="0" y="0">3 additional languages</tspan></text>
  <text class="cls-16" transform="translate(240.06 133.84)"><tspan x="0" y="0">2 additional languages</tspan></text>
  <text class="cls-16" transform="translate(243.21 144.96)"><tspan x="0" y="0">1 additional language</tspan></text>
  <text class="cls-14" transform="translate(258.08 156.07) scale(1.01 1)"><tspan x="0" y="0">Monolingualism</tspan></text>
  <g>
    <line class="cls-1" x1="304.94" y1="110.03" x2="303.04" y2="110.03"/>
    <line class="cls-1" x1="304.94" y1="120.96" x2="303.04" y2="120.96"/>
    <line class="cls-1" x1="304.94" y1="132.07" x2="303.04" y2="132.07"/>
    <line class="cls-1" x1="304.94" y1="143.18" x2="303.04" y2="143.18"/>
    <line class="cls-1" x1="304.94" y1="154.29" x2="303.04" y2="154.29"/>
  </g>
  <text class="cls-12" transform="translate(358.36 166.49)"><tspan x="0" y="0">1.0</tspan></text>
  <text class="cls-12" transform="translate(445.68 166.49)"><tspan x="0" y="0">2.5</tspan></text>
  <text class="cls-12" transform="translate(303 166.57)"><tspan x="0" y="0">0</tspan></text>
  <line class="cls-1" x1="304.94" y1="158.54" x2="304.94" y2="160.73"/>
  <line class="cls-1" x1="363.18" y1="158.54" x2="363.18" y2="160.73"/>
  <text class="cls-12" transform="translate(386.85 166.49)"><tspan x="0" y="0">1.5</tspan></text>
  <line class="cls-1" x1="391.67" y1="158.54" x2="391.67" y2="160.73"/>
  <text class="cls-12" transform="translate(416.14 166.49)"><tspan x="0" y="0">2.0</tspan></text>
  <line class="cls-1" x1="420.96" y1="158.54" x2="420.96" y2="160.73"/>
  <text class="cls-12" transform="translate(329.43 166.49)"><tspan x="0" y="0">0.5</tspan></text>
  <line class="cls-1" x1="334.24" y1="158.54" x2="334.24" y2="160.73"/>
  <line class="cls-1" x1="450.55" y1="158.54" x2="450.55" y2="160.73"/>
  <g>
    <line class="cls-3" x1="363.23" y1="158.54" x2="363.23" y2="157.54"/>
    <line class="cls-8" x1="363.23" y1="156.52" x2="363.23" y2="105.03"/>
    <line class="cls-3" x1="363.23" y1="104.52" x2="363.23" y2="103.52"/>
  </g>
  <line class="cls-7" x1="329.77" y1="110.03" x2="337.35" y2="110.03"/>
  <rect class="cls-10" x="330.73" y="107.2" width="5.67" height="5.67" rx="1.42" ry="1.42"/>
  <line class="cls-7" x1="341.23" y1="120.96" x2="351.57" y2="120.96"/>
  <rect class="cls-10" x="343.56" y="118.12" width="5.67" height="5.67" rx="1.42" ry="1.42"/>
  <line class="cls-7" x1="333.71" y1="132.07" x2="341.29" y2="132.07"/>
  <rect class="cls-10" x="334.67" y="129.23" width="5.67" height="5.67" rx="1.42" ry="1.42"/>
  <line class="cls-7" x1="348.78" y1="143.18" x2="358.68" y2="143.18"/>
  <rect class="cls-10" x="350.5" y="140.34" width="5.67" height="5.67" rx="1.42" ry="1.42"/>
  <line class="cls-5" x1="413.96" y1="154.3" x2="437.24" y2="154.3"/>
  <rect class="cls-11" x="422.14" y="151.46" width="5.67" height="5.67" rx="1.42" ry="1.42"/>
  <text class="cls-12" transform="translate(249.19 36.19)"><tspan class="cls-18" x="0" y="0">T</tspan><tspan class="cls-19" x="3.15" y="0">otal (≥1 language)</tspan></text>
  <text class="cls-16" transform="translate(240.06 47.31)"><tspan x="0" y="0">3 additional languages</tspan></text>
  <text class="cls-16" transform="translate(240.06 58.42)"><tspan x="0" y="0">2 additional languages</tspan></text>
  <text class="cls-16" transform="translate(243.21 69.54)"><tspan x="0" y="0">1 additional language</tspan></text>
  <text class="cls-14" transform="translate(258.08 80.65) scale(1.01 1)"><tspan x="0" y="0">Monolingualism</tspan></text>
  <g>
    <line class="cls-1" x1="304.94" y1="34.61" x2="303.04" y2="34.61"/>
    <line class="cls-1" x1="304.94" y1="45.54" x2="303.04" y2="45.54"/>
    <line class="cls-1" x1="304.94" y1="56.65" x2="303.04" y2="56.65"/>
    <line class="cls-1" x1="304.94" y1="67.76" x2="303.04" y2="67.76"/>
    <line class="cls-1" x1="304.94" y1="78.87" x2="303.04" y2="78.87"/>
  </g>
  <line class="cls-7" x1="332.07" y1="34.61" x2="339.64" y2="34.61"/>
  <rect class="cls-10" x="333.02" y="31.78" width="5.67" height="5.67" rx="1.42" ry="1.42"/>
  <line class="cls-10" x1="347.32" y1="45.54" x2="360.07" y2="45.54"/>
  <rect class="cls-10" x="350.86" y="42.7" width="5.67" height="5.67" rx="1.42" ry="1.42"/>
  <line class="cls-7" x1="336.66" y1="56.65" x2="344.24" y2="56.65"/>
  <rect class="cls-10" x="337.61" y="53.81" width="5.67" height="5.67" rx="1.42" ry="1.42"/>
  <line class="cls-7" x1="344.13" y1="67.76" x2="352.29" y2="67.76"/>
  <rect class="cls-10" x="345.38" y="64.93" width="5.67" height="5.67" rx="1.42" ry="1.42"/>
  <line class="cls-5" x1="405.28" y1="78.87" x2="427.32" y2="78.87"/>
  <rect class="cls-11" x="412.66" y="76.04" width="5.67" height="5.67" rx="1.42" ry="1.42"/>
  <text class="cls-13" transform="translate(432.01 25.06)"><tspan x="0" y="0">PhD</tspan></text>
  <text class="cls-13" transform="translate(306.55 25.06)"><tspan x="0" y="0">Removing Slovakia</tspan></text>
  <text class="cls-13" transform="translate(307.14 101.94)"><tspan x="0" y="0">Including Slovakia</tspan></text>
  <line class="cls-6" x1="450.55" y1="90.19" x2="304.94" y2="90.19"/>
  <rect class="cls-4" x="304.94" y="18.05" width="145.43" height="140.48"/>
  <text class="cls-17" transform="translate(372.91 80.65)"><tspan x="0" y="0">1.90 [1.73-2.10]</tspan></text>
  <text class="cls-17" transform="translate(134.76 80.65)"><tspan x="0" y="0">1.82 [1.66-2.00]</tspan></text>
  <text class="cls-17" transform="translate(147.3 156.3)"><tspan x="0" y="0">2.06 [1.88-2.26]</tspan></text>
  <g>
    <rect class="cls-9" x="354.69" y="64.93" width="31.88" height="5.67"/>
    <text class="cls-17" transform="translate(354.51 69.26)"><tspan x="0" y="0">0.74 [0.67-0.82]</tspan></text>
  </g>
  <g>
    <rect class="cls-9" x="117.06" y="64.93" width="31.88" height="5.67"/>
    <text class="cls-17" transform="translate(116.88 69.26)"><tspan x="0" y="0">0.66 [0.60-0.73]</tspan></text>
  </g>
  <g>
    <rect class="cls-9" x="119.55" y="140.34" width="31.88" height="5.67"/>
    <text class="cls-17" transform="translate(119.37 144.68)"><tspan x="0" y="0">0.72 [0.65-0.79]</tspan></text>
  </g>
  <g>
    <rect class="cls-9" x="112.33" y="129.14" width="31.88" height="5.67"/>
    <text class="cls-17" transform="translate(112.15 133.47)"><tspan x="0" y="0">0.60 [0.54-0.67]</tspan></text>
  </g>
  <g>
    <rect class="cls-9" x="124.09" y="118.12" width="31.88" height="5.67"/>
    <text class="cls-17" transform="translate(123.91 122.46)"><tspan x="0" y="0">0.78 [0.71-0.86]</tspan></text>
  </g>
  <g>
    <rect class="cls-9" x="106.78" y="107.2" width="31.88" height="5.67"/>
    <text class="cls-17" transform="translate(106.6 111.53)"><tspan x="0" y="0">0.49 [0.44-0.53]</tspan></text>
  </g>
  <g>
    <rect class="cls-9" x="347.33" y="53.81" width="31.88" height="5.67"/>
    <text class="cls-17" transform="translate(347.15 58.71)"><tspan x="0" y="0">0.61 [0.55-0.67]</tspan></text>
  </g>
  <text class="cls-17" transform="translate(365.06 46.85)"><tspan x="0" y="0">0.84 [0.73-0.95]</tspan></text>
  <g>
    <rect class="cls-9" x="341.52" y="31.15" width="31.88" height="5.67"/>
    <text class="cls-17" transform="translate(341.51 36.19)"><tspan x="0" y="0">0.52 [0.48-0.58]</tspan></text>
  </g>
  <text class="cls-17" transform="translate(379.77 156.41)"><tspan x="0" y="0">2.06 [1.87-2.27]</tspan></text>
  <g>
    <rect class="cls-9" x="360.15" y="140.68" width="31.88" height="5.67"/>
    <text class="cls-17" transform="translate(359.97 145.02)"><tspan x="0" y="0">0.83 [0.75-0.92]</tspan></text>
  </g>
  <g>
    <rect class="cls-9" x="342.55" y="128.86" width="31.88" height="5.67"/>
    <text class="cls-17" transform="translate(342.37 133.75)"><tspan x="0" y="0">0.55 [0.50-0.61]</tspan></text>
  </g>
  <g>
    <rect class="cls-9" x="338.79" y="106.71" width="31.88" height="5.67"/>
    <text class="cls-17" transform="translate(338.77 111.76)"><tspan x="0" y="0">0.49 [0.44-0.53]</tspan></text>
  </g>
  <g>
    <rect class="cls-9" x="353.68" y="118.1" width="31.88" height="5.67"/>
    <text class="cls-17" transform="translate(353.66 123.15)"><tspan x="0" y="0">0.71 [0.62-0.80]</tspan></text>
  </g>
  <g>
    <rect class="cls-9" x="123.35" y="53.81" width="31.88" height="5.67"/>
    <text class="cls-17" transform="translate(123.17 58.71)"><tspan x="0" y="0">0.77[0.68-0.86]</tspan></text>
  </g>
  <g>
    <rect class="cls-9" x="128.59" y="42.79" width="31.88" height="5.67"/>
    <text class="cls-17" transform="translate(128.41 47.69)"><tspan x="0" y="0">0.85 [0.77-0.93]</tspan></text>
  </g>
  <g>
    <rect class="cls-9" x="108.74" y="31.15" width="31.88" height="5.67"/>
    <text class="cls-17" transform="translate(108.73 36.19)"><tspan x="0" y="0">0.55 [0.50-0.60]</tspan></text>
  </g>
</svg>